  0
SECTION
  2
HEADER
  9
$ACADVER
  1
AC1032
  9
$ACADMAINTVER
 90
4
  9
$DWGCODEPAGE
  3
ANSI_1252
  9
$LASTSAVEDBY
  1
ezdxf
  9
$REQUIREDVERSIONS
160
0
  9
$INSBASE
 10
0.0
 20
0.0
 30
0.0
  9
$EXTMIN
 10
1e+20
 20
1e+20
 30
1e+20
  9
$EXTMAX
 10
-1e+20
 20
-1e+20
 30
-1e+20
  9
$LIMMIN
 10
0.0
 20
0.0
  9
$LIMMAX
 10
420.0
 20
297.0
  9
$ORTHOMODE
 70
0
  9
$REGENMODE
 70
1
  9
$FILLMODE
 70
1
  9
$QTEXTMODE
 70
0
  9
$MIRRTEXT
 70
1
  9
$LTSCALE
 40
1.0
  9
$ATTMODE
 70
1
  9
$TEXTSIZE
 40
2.5
  9
$TRACEWID
 40
1.0
  9
$TEXTSTYLE
  7
OpenSans
  9
$CLAYER
  8
0
  9
$CELTYPE
  6
ByLayer
  9
$CECOLOR
 62
256
  9
$CELTSCALE
 40
1.0
  9
$DISPSILH
 70
0
  9
$DIMSCALE
 40
1.0
  9
$DIMASZ
 40
0.175
  9
$DIMEXO
 40
0.125
  9
$DIMDLI
 40
3.75
  9
$DIMRND
 40
0.0
  9
$DIMDLE
 40
0.0
  9
$DIMEXE
 40
0.375
  9
$DIMTP
 40
0.0
  9
$DIMTM
 40
0.0
  9
$DIMTXT
 40
0.25
  9
$DIMCEN
 40
2.5
  9
$DIMTSZ
 40
0.0
  9
$DIMTOL
 70
0
  9
$DIMLIM
 70
0
  9
$DIMTIH
 70
0
  9
$DIMTOH
 70
0
  9
$DIMSE1
 70
0
  9
$DIMSE2
 70
0
  9
$DIMTAD
 70
1
  9
$DIMZIN
 70
12
  9
$DIMBLK
  1
ARCHTICK
  9
$DIMASO
 70
1
  9
$DIMSHO
 70
1
  9
$DIMPOST
  1

  9
$DIMAPOST
  1

  9
$DIMALT
 70
0
  9
$DIMALTD
 70
3
  9
$DIMALTF
 40
0.03937007874
  9
$DIMLFAC
 40
100.0
  9
$DIMTOFL
 70
1
  9
$DIMTVP
 40
0.0
  9
$DIMTIX
 70
0
  9
$DIMSOXD
 70
0
  9
$DIMSAH
 70
0
  9
$DIMBLK1
  1

  9
$DIMBLK2
  1

  9
$DIMSTYLE
  2
EZDXF
  9
$DIMCLRD
 70
0
  9
$DIMCLRE
 70
0
  9
$DIMCLRT
 70
0
  9
$DIMTFAC
 40
0.5
  9
$DIMGAP
 40
0.1
  9
$DIMJUST
 70
0
  9
$DIMSD1
 70
0
  9
$DIMSD2
 70
0
  9
$DIMTOLJ
 70
0
  9
$DIMTZIN
 70
8
  9
$DIMALTZ
 70
0
  9
$DIMALTTZ
 70
0
  9
$DIMUPT
 70
1
  9
$DIMDEC
 70
2
  9
$DIMTDEC
 70
2
  9
$DIMALTU
 70
2
  9
$DIMALTTD
 70
3
  9
$DIMTXSTY
  7
OpenSansCondensed-Light
  9
$DIMAUNIT
 70
0
  9
$DIMADEC
 70
2
  9
$DIMALTRND
 40
0.0
  9
$DIMAZIN
 70
3
  9
$DIMDSEP
 70
46
  9
$DIMATFIT
 70
3
  9
$DIMFRAC
 70
0
  9
$DIMLDRBLK
  1

  9
$DIMLUNIT
 70
2
  9
$DIMLWD
 70
-2
  9
$DIMLWE
 70
-2
  9
$DIMTMOVE
 70
2
  9
$DIMFXL
 40
1.0
  9
$DIMFXLON
 70
0
  9
$DIMJOGANG
 40
0.785398163397
  9
$DIMTFILL
 70
0
  9
$DIMTFILLCLR
 70
0
  9
$DIMARCSYM
 70
0
  9
$DIMLTYPE
  6

  9
$DIMLTEX1
  6

  9
$DIMLTEX2
  6

  9
$DIMTXTDIRECTION
 70
0
  9
$LUNITS
 70
2
  9
$LUPREC
 70
4
  9
$SKETCHINC
 40
1.0
  9
$FILLETRAD
 40
10.0
  9
$AUNITS
 70
0
  9
$AUPREC
 70
2
  9
$MENU
  1
.
  9
$ELEVATION
 40
0.0
  9
$PELEVATION
 40
0.0
  9
$THICKNESS
 40
0.0
  9
$LIMCHECK
 70
0
  9
$CHAMFERA
 40
0.0
  9
$CHAMFERB
 40
0.0
  9
$CHAMFERC
 40
0.0
  9
$CHAMFERD
 40
0.0
  9
$SKPOLY
 70
0
  9
$TDCREATE
 40
2461288.917314815
  9
$TDUCREATE
 40
2458532.153996898
  9
$TDUPDATE
 40
2461288.917314815
  9
$TDUUPDATE
 40
2458532.1544311
  9
$TDINDWG
 40
0.0
  9
$TDUSRTIMER
 40
0.0
  9
$USRTIMER
 70
1
  9
$ANGBASE
 50
0.0
  9
$ANGDIR
 70
0
  9
$PDMODE
 70
0
  9
$PDSIZE
 40
0.0
  9
$PLINEWID
 40
0.0
  9
$SPLFRAME
 70
0
  9
$SPLINETYPE
 70
6
  9
$SPLINESEGS
 70
8
  9
$HANDSEED
  5
161
  9
$SURFTAB1
 70
6
  9
$SURFTAB2
 70
6
  9
$SURFTYPE
 70
6
  9
$SURFU
 70
6
  9
$SURFV
 70
6
  9
$UCSBASE
  2

  9
$UCSNAME
  2

  9
$UCSORG
 10
0.0
 20
0.0
 30
0.0
  9
$UCSXDIR
 10
1.0
 20
0.0
 30
0.0
  9
$UCSYDIR
 10
0.0
 20
1.0
 30
0.0
  9
$UCSORTHOREF
  2

  9
$UCSORTHOVIEW
 70
0
  9
$UCSORGTOP
 10
0.0
 20
0.0
 30
0.0
  9
$UCSORGBOTTOM
 10
0.0
 20
0.0
 30
0.0
  9
$UCSORGLEFT
 10
0.0
 20
0.0
 30
0.0
  9
$UCSORGRIGHT
 10
0.0
 20
0.0
 30
0.0
  9
$UCSORGFRONT
 10
0.0
 20
0.0
 30
0.0
  9
$UCSORGBACK
 10
0.0
 20
0.0
 30
0.0
  9
$PUCSBASE
  2

  9
$PUCSNAME
  2

  9
$PUCSORG
 10
0.0
 20
0.0
 30
0.0
  9
$PUCSXDIR
 10
1.0
 20
0.0
 30
0.0
  9
$PUCSYDIR
 10
0.0
 20
1.0
 30
0.0
  9
$PUCSORTHOREF
  2

  9
$PUCSORTHOVIEW
 70
0
  9
$PUCSORGTOP
 10
0.0
 20
0.0
 30
0.0
  9
$PUCSORGBOTTOM
 10
0.0
 20
0.0
 30
0.0
  9
$PUCSORGLEFT
 10
0.0
 20
0.0
 30
0.0
  9
$PUCSORGRIGHT
 10
0.0
 20
0.0
 30
0.0
  9
$PUCSORGFRONT
 10
0.0
 20
0.0
 30
0.0
  9
$PUCSORGBACK
 10
0.0
 20
0.0
 30
0.0
  9
$USERI1
 70
0
  9
$USERI2
 70
0
  9
$USERI3
 70
0
  9
$USERI4
 70
0
  9
$USERI5
 70
0
  9
$USERR1
 40
0.0
  9
$USERR2
 40
0.0
  9
$USERR3
 40
0.0
  9
$USERR4
 40
0.0
  9
$USERR5
 40
0.0
  9
$WORLDVIEW
 70
1
  9
$SHADEDGE
 70
3
  9
$SHADEDIF
 70
70
  9
$TILEMODE
 70
1
  9
$MAXACTVP
 70
64
  9
$PINSBASE
 10
0.0
 20
0.0
 30
0.0
  9
$PLIMCHECK
 70
0
  9
$PEXTMIN
 10
1e+20
 20
1e+20
 30
1e+20
  9
$PEXTMAX
 10
-1e+20
 20
-1e+20
 30
-1e+20
  9
$PLIMMIN
 10
0.0
 20
0.0
  9
$PLIMMAX
 10
420.0
 20
297.0
  9
$UNITMODE
 70
0
  9
$VISRETAIN
 70
1
  9
$PLINEGEN
 70
0
  9
$PSLTSCALE
 70
1
  9
$TREEDEPTH
 70
3020
  9
$CMLSTYLE
  2
Standard
  9
$CMLJUST
 70
0
  9
$CMLSCALE
 40
20.0
  9
$PROXYGRAPHICS
 70
1
  9
$MEASUREMENT
 70
1
  9
$CELWEIGHT
370
-1
  9
$ENDCAPS
280
0
  9
$JOINSTYLE
280
0
  9
$LWDISPLAY
290
0
  9
$INSUNITS
 70
6
  9
$HYPERLINKBASE
  1

  9
$STYLESHEET
  1

  9
$XEDIT
290
1
  9
$CEPSNTYPE
380
0
  9
$PSTYLEMODE
290
1
  9
$FINGERPRINTGUID
  2
{C8F796B1-60CB-44B3-992B-9254FAA4F3A0}
  9
$VERSIONGUID
  2
{757F24B4-7E85-4247-8C99-689484EB4403}
  9
$EXTNAMES
290
1
  9
$PSVPSCALE
 40
0.0
  9
$OLESTARTUP
290
0
  9
$SORTENTS
280
127
  9
$INDEXCTL
280
0
  9
$HIDETEXT
280
1
  9
$XCLIPFRAME
280
1
  9
$HALOGAP
280
0
  9
$OBSCOLOR
 70
257
  9
$OBSLTYPE
280
0
  9
$INTERSECTIONDISPLAY
280
0
  9
$INTERSECTIONCOLOR
 70
257
  9
$DIMASSOC
280
2
  9
$PROJECTNAME
  1

  9
$CAMERADISPLAY
290
0
  9
$LENSLENGTH
 40
50.0
  9
$CAMERAHEIGHT
 40
0.0
  9
$STEPSPERSEC
 40
24.0
  9
$STEPSIZE
 40
100.0
  9
$3DDWFPREC
 40
2.0
  9
$PSOLWIDTH
 40
0.005
  9
$PSOLHEIGHT
 40
0.08
  9
$LOFTANG1
 40
1.570796326795
  9
$LOFTANG2
 40
1.570796326795
  9
$LOFTMAG1
 40
0.0
  9
$LOFTMAG2
 40
0.0
  9
$LOFTPARAM
 70
7
  9
$LOFTNORMALS
280
1
  9
$LATITUDE
 40
37.795
  9
$LONGITUDE
 40
-122.394
  9
$NORTHDIRECTION
 40
0.0
  9
$TIMEZONE
 70
-8000
  9
$LIGHTGLYPHDISPLAY
280
1
  9
$TILEMODELIGHTSYNCH
280
1
  9
$CMATERIAL
347
20
  9
$SOLIDHIST
280
0
  9
$SHOWHIST
280
1
  9
$DWFFRAME
280
2
  9
$DGNFRAME
280
2
  9
$REALWORLDSCALE
290
1
  9
$INTERFERECOLOR
 62
256
  9
$CSHADOW
280
0
  9
$SHADOWPLANELOCATION
 40
0.0
  0
ENDSEC
  0
SECTION
  2
CLASSES
  0
CLASS
  1
ACDBDICTIONARYWDFLT
  2
AcDbDictionaryWithDefault
  3
ObjectDBX Classes
 90
0
 91
0
280
0
281
0
  0
CLASS
  1
SUN
  2
AcDbSun
  3
SCENEOE
 90
1153
 91
0
280
0
281
0
  0
CLASS
  1
VISUALSTYLE
  2
AcDbVisualStyle
  3
ObjectDBX Classes
 90
4095
 91
0
280
0
281
0
  0
CLASS
  1
MATERIAL
  2
AcDbMaterial
  3
ObjectDBX Classes
 90
1153
 91
0
280
0
281
0
  0
CLASS
  1
SCALE
  2
AcDbScale
  3
ObjectDBX Classes
 90
1153
 91
0
280
0
281
0
  0
CLASS
  1
TABLESTYLE
  2
AcDbTableStyle
  3
ObjectDBX Classes
 90
4095
 91
0
280
0
281
0
  0
CLASS
  1
MLEADERSTYLE
  2
AcDbMLeaderStyle
  3
ACDB_MLEADERSTYLE_CLASS
 90
4095
 91
0
280
0
281
0
  0
CLASS
  1
DICTIONARYVAR
  2
AcDbDictionaryVar
  3
ObjectDBX Classes
 90
0
 91
0
280
0
281
0
  0
CLASS
  1
CELLSTYLEMAP
  2
AcDbCellStyleMap
  3
ObjectDBX Classes
 90
1152
 91
0
280
0
281
0
  0
CLASS
  1
MENTALRAYRENDERSETTINGS
  2
AcDbMentalRayRenderSettings
  3
SCENEOE
 90
1024
 91
0
280
0
281
0
  0
CLASS
  1
ACDBDETAILVIEWSTYLE
  2
AcDbDetailViewStyle
  3
ObjectDBX Classes
 90
1025
 91
0
280
0
281
0
  0
CLASS
  1
ACDBSECTIONVIEWSTYLE
  2
AcDbSectionViewStyle
  3
ObjectDBX Classes
 90
1025
 91
0
280
0
281
0
  0
CLASS
  1
RASTERVARIABLES
  2
AcDbRasterVariables
  3
ISM
 90
0
 91
0
280
0
281
0
  0
CLASS
  1
LAYOUT
  2
AcDbLayout
  3
ObjectDBX Classes
 90
0
 91
0
280
0
281
0
  0
CLASS
  1
ACDBPLACEHOLDER
  2
AcDbPlaceHolder
  3
ObjectDBX Classes
 90
0
 91
0
280
0
281
0
  0
ENDSEC
  0
SECTION
  2
TABLES
  0
TABLE
  2
VPORT
  5
8
330
0
100
AcDbSymbolTable
 70
1
  0
VPORT
  5
23
330
8
100
AcDbSymbolTableRecord
100
AcDbViewportTableRecord
  2
*Active
 70
0
 10
0.0
 20
0.0
 11
1.0
 21
1.0
 12
0.0
 22
0.0
 13
0.0
 23
0.0
 14
0.5
 24
0.5
 15
0.5
 25
0.5
 16
0.0
 26
0.0
 36
1.0
 17
0.0
 27
0.0
 37
0.0
 40
1000.0
 41
1.34
 42
50.0
 43
0.0
 44
0.0
 50
0.0
 51
0.0
 71
0
 72
1000
 73
1
 74
3
 75
0
 76
0
 77
0
 78
0
281
0
 65
0
146
0.0
  0
ENDTAB
  0
TABLE
  2
LTYPE
  5
2
330
0
100
AcDbSymbolTable
 70
21
  0
LTYPE
  5
24
330
2
100
AcDbSymbolTableRecord
100
AcDbLinetypeTableRecord
  2
ByBlock
 70
0
  3

 72
65
 73
0
 40
0.0
  0
LTYPE
  5
25
330
2
100
AcDbSymbolTableRecord
100
AcDbLinetypeTableRecord
  2
ByLayer
 70
0
  3

 72
65
 73
0
 40
0.0
  0
LTYPE
  5
26
330
2
100
AcDbSymbolTableRecord
100
AcDbLinetypeTableRecord
  2
Continuous
 70
0
  3

 72
65
 73
0
 40
0.0
  0
LTYPE
  5
2F
330
2
100
AcDbSymbolTableRecord
100
AcDbLinetypeTableRecord
  2
CENTER
 70
0
  3
Center ____ _ ____ _ ____ _ ____ _ ____ _ ____
 72
65
 73
4
 40
5.08
 49
3.175
 74
0
 49
-0.635
 74
0
 49
0.635
 74
0
 49
-0.635
 74
0
  0
LTYPE
  5
30
330
2
100
AcDbSymbolTableRecord
100
AcDbLinetypeTableRecord
  2
CENTERX2
 70
0
  3
Center (2x) ________  __  ________  __  ________
 72
65
 73
4
 40
8.89
 49
6.35
 74
0
 49
-0.635
 74
0
 49
1.27
 74
0
 49
-0.635
 74
0
  0
LTYPE
  5
31
330
2
100
AcDbSymbolTableRecord
100
AcDbLinetypeTableRecord
  2
CENTER2
 70
0
  3
Center (.5x) ____ _ ____ _ ____ _ ____ _ ____
 72
65
 73
4
 40
2.54
 49
1.587
 74
0
 49
-0.318
 74
0
 49
0.318
 74
0
 49
-0.318
 74
0
  0
LTYPE
  5
32
330
2
100
AcDbSymbolTableRecord
100
AcDbLinetypeTableRecord
  2
DASHED
 70
0
  3
Dashed __ __ __ __ __ __ __ __ __ __ __ __ __ _
 72
65
 73
2
 40
1.524
 49
1.27
 74
0
 49
-0.254
 74
0
  0
LTYPE
  5
33
330
2
100
AcDbSymbolTableRecord
100
AcDbLinetypeTableRecord
  2
DASHEDX2
 70
0
  3
Dashed (2x) ____  ____  ____  ____  ____  ____
 72
65
 73
2
 40
3.048
 49
2.54
 74
0
 49
-0.508
 74
0
  0
LTYPE
  5
34
330
2
100
AcDbSymbolTableRecord
100
AcDbLinetypeTableRecord
  2
DASHED2
 70
0
  3
Dashed (.5x) _ _ _ _ _ _ _ _ _ _ _ _ _ _
 72
65
 73
2
 40
0.762
 49
0.635
 74
0
 49
-0.127
 74
0
  0
LTYPE
  5
35
330
2
100
AcDbSymbolTableRecord
100
AcDbLinetypeTableRecord
  2
PHANTOM
 70
0
  3
Phantom ______  __  __  ______  __  __  ______
 72
65
 73
6
 40
6.35
 49
3.175
 74
0
 49
-0.635
 74
0
 49
0.635
 74
0
 49
-0.635
 74
0
 49
0.635
 74
0
 49
-0.635
 74
0
  0
LTYPE
  5
36
330
2
100
AcDbSymbolTableRecord
100
AcDbLinetypeTableRecord
  2
PHANTOMX2
 70
0
  3
Phantom (2x)____________    ____    ____    ____________
 72
65
 73
6
 40
10.795
 49
6.35
 74
0
 49
-0.635
 74
0
 49
1.27
 74
0
 49
-0.635
 74
0
 49
1.27
 74
0
 49
-0.635
 74
0
  0
LTYPE
  5
37
330
2
100
AcDbSymbolTableRecord
100
AcDbLinetypeTableRecord
  2
PHANTOM2
 70
0
  3
Phantom (.5x) ___ _ _ ___ _ _ ___ _ _ ___ _ _ ___
 72
65
 73
6
 40
3.175
 49
1.587
 74
0
 49
-0.318
 74
0
 49
0.318
 74
0
 49
-0.318
 74
0
 49
0.318
 74
0
 49
-0.318
 74
0
  0
LTYPE
  5
38
330
2
100
AcDbSymbolTableRecord
100
AcDbLinetypeTableRecord
  2
DASHDOT
 70
0
  3
Dash dot __ . __ . __ . __ . __ . __ . __ . __
 72
65
 73
4
 40
3.556
 49
2.54
 74
0
 49
-0.508
 74
0
 49
0.0
 74
0
 49
-0.508
 74
0
  0
LTYPE
  5
39
330
2
100
AcDbSymbolTableRecord
100
AcDbLinetypeTableRecord
  2
DASHDOTX2
 70
0
  3
Dash dot (2x) ____  .  ____  .  ____  .  ____
 72
65
 73
4
 40
6.096
 49
5.08
 74
0
 49
-0.508
 74
0
 49
0.0
 74
0
 49
-0.508
 74
0
  0
LTYPE
  5
3A
330
2
100
AcDbSymbolTableRecord
100
AcDbLinetypeTableRecord
  2
DASHDOT2
 70
0
  3
Dash dot (.5x) _ . _ . _ . _ . _ . _ . _ . _
 72
65
 73
4
 40
1.778
 49
1.27
 74
0
 49
-0.254
 74
0
 49
0.0
 74
0
 49
-0.254
 74
0
  0
LTYPE
  5
3B
330
2
100
AcDbSymbolTableRecord
100
AcDbLinetypeTableRecord
  2
DOT
 70
0
  3
Dot .  .  .  .  .  .  .  .  .  .  .  .  .  .  .  .
 72
65
 73
2
 40
0.508
 49
0.0
 74
0
 49
-0.508
 74
0
  0
LTYPE
  5
3C
330
2
100
AcDbSymbolTableRecord
100
AcDbLinetypeTableRecord
  2
DOTX2
 70
0
  3
Dot (2x) .    .    .    .    .    .    .    . 
 72
65
 73
2
 40
1.016
 49
0.0
 74
0
 49
-1.016
 74
0
  0
LTYPE
  5
3D
330
2
100
AcDbSymbolTableRecord
100
AcDbLinetypeTableRecord
  2
DOT2
 70
0
  3
Dot (.5) . . . . . . . . . . . . . . . . . . . 
 72
65
 73
2
 40
0.254
 49
0.0
 74
0
 49
-0.254
 74
0
  0
LTYPE
  5
3E
330
2
100
AcDbSymbolTableRecord
100
AcDbLinetypeTableRecord
  2
DIVIDE
 70
0
  3
Divide __ . . __ . . __ . . __ . . __ . . __
 72
65
 73
6
 40
4.064
 49
2.54
 74
0
 49
-0.508
 74
0
 49
0.0
 74
0
 49
-0.508
 74
0
 49
0.0
 74
0
 49
-0.508
 74
0
  0
LTYPE
  5
3F
330
2
100
AcDbSymbolTableRecord
100
AcDbLinetypeTableRecord
  2
DIVIDEX2
 70
0
  3
Divide (2x) ____  . .  ____  . .  ____  . .  ____
 72
65
 73
6
 40
6.604
 49
5.08
 74
0
 49
-0.508
 74
0
 49
0.0
 74
0
 49
-0.508
 74
0
 49
0.0
 74
0
 49
-0.508
 74
0
  0
LTYPE
  5
40
330
2
100
AcDbSymbolTableRecord
100
AcDbLinetypeTableRecord
  2
DIVIDE2
 70
0
  3
Divide(.5x) _ . _ . _ . _ . _ . _ . _ . _
 72
65
 73
6
 40
2.032
 49
1.27
 74
0
 49
-0.254
 74
0
 49
0.0
 74
0
 49
-0.254
 74
0
 49
0.0
 74
0
 49
-0.254
 74
0
  0
ENDTAB
  0
TABLE
  2
LAYER
  5
1
330
0
100
AcDbSymbolTable
 70
15
  0
LAYER
  5
27
330
1
100
AcDbSymbolTableRecord
100
AcDbLayerTableRecord
  2
0
 70
0
 62
7
  6
Continuous
370
-3
390
13
347
21
  0
LAYER
  5
28
330
1
100
AcDbSymbolTableRecord
100
AcDbLayerTableRecord
  2
Defpoints
 70
0
 62
7
  6
Continuous
290
0
370
-3
390
13
347
21
  0
LAYER
  5
8A
330
1
100
AcDbSymbolTableRecord
100
AcDbLayerTableRecord
  2
0_POLIGONO_GENERAL
 70
0
 62
4
  6
Continuous
370
50
390
13
347
21
  0
LAYER
  5
8B
330
1
100
AcDbSymbolTableRecord
100
AcDbLayerTableRecord
  2
0_HUELLA_CENTRAL
 70
0
 62
2
  6
Continuous
370
40
390
13
347
21
  0
LAYER
  5
8C
330
1
100
AcDbSymbolTableRecord
100
AcDbLayerTableRecord
  2
SUBDIVISION_LOT_C01
 70
0
 62
30
  6
Continuous
370
35
390
13
347
21
  0
LAYER
  5
8D
330
1
100
AcDbSymbolTableRecord
100
AcDbLayerTableRecord
  2
SUBDIVISION_LOT_C02
 70
0
 62
140
  6
Continuous
370
35
390
13
347
21
  0
LAYER
  5
8E
330
1
100
AcDbSymbolTableRecord
100
AcDbLayerTableRecord
  2
SUBDIVISION_LOT_C03
 70
0
 62
210
  6
Continuous
370
35
390
13
347
21
  0
LAYER
  5
8F
330
1
100
AcDbSymbolTableRecord
100
AcDbLayerTableRecord
  2
0_DIVISORIAS_INTERNAS
 70
0
 62
1
  6
Continuous
370
35
390
13
347
21
  0
LAYER
  5
90
330
1
100
AcDbSymbolTableRecord
100
AcDbLayerTableRecord
  2
0_COTAS_METRICAS
 70
0
 62
1
  6
Continuous
370
18
390
13
347
21
  0
LAYER
  5
91
330
1
100
AcDbSymbolTableRecord
100
AcDbLayerTableRecord
  2
0_ESTACIONAMIENTOS
 70
0
 62
3
  6
Continuous
370
25
390
13
347
21
  0
LAYER
  5
92
330
1
100
AcDbSymbolTableRecord
100
AcDbLayerTableRecord
  2
0_ACCESO_VIAL
 70
0
 62
6
  6
Continuous
370
30
390
13
347
21
  0
LAYER
  5
93
330
1
100
AcDbSymbolTableRecord
100
AcDbLayerTableRecord
  2
0_CIRCULACION_GANDOLAS
 70
0
 62
3
  6
Continuous
370
50
390
13
347
21
  0
LAYER
  5
94
330
1
100
AcDbSymbolTableRecord
100
AcDbLayerTableRecord
  2
0_TEXTOS_COTAS
 70
0
 62
7
  6
Continuous
370
25
390
13
347
21
  0
LAYER
  5
95
330
1
100
AcDbSymbolTableRecord
100
AcDbLayerTableRecord
  2
0_CUADRO_TECNICO
 70
0
 62
7
  6
Continuous
370
30
390
13
347
21
  0
LAYER
  5
96
330
1
100
AcDbSymbolTableRecord
100
AcDbLayerTableRecord
  2
0_GRILLA_UTM
 70
0
 62
8
  6
Continuous
370
13
390
13
347
21
  0
ENDTAB
  0
TABLE
  2
STYLE
  5
5
330
0
100
AcDbSymbolTable
 70
26
  0
STYLE
  5
29
330
5
100
AcDbSymbolTableRecord
100
AcDbTextStyleTableRecord
  2
Standard
 70
0
 40
0.0
 41
1.0
 50
0.0
 71
0
 42
2.5
  3
txt
  4

  0
STYLE
  5
41
330
5
100
AcDbSymbolTableRecord
100
AcDbTextStyleTableRecord
  2
OpenSans-Light
 70
0
 40
0.0
 41
1.0
 50
0.0
 71
0
 42
2.5
  3
OpenSans-Light.ttf
  4

  0
STYLE
  5
42
330
5
100
AcDbSymbolTableRecord
100
AcDbTextStyleTableRecord
  2
OpenSans-Light-Italic
 70
0
 40
0.0
 41
1.0
 50
0.0
 71
0
 42
2.5
  3
OpenSans-LightItalic.ttf
  4

  0
STYLE
  5
43
330
5
100
AcDbSymbolTableRecord
100
AcDbTextStyleTableRecord
  2
OpenSans
 70
0
 40
0.0
 41
1.0
 50
0.0
 71
0
 42
2.5
  3
OpenSans-Regular.ttf
  4

  0
STYLE
  5
44
330
5
100
AcDbSymbolTableRecord
100
AcDbTextStyleTableRecord
  2
OpenSans-Italic
 70
0
 40
0.0
 41
1.0
 50
0.0
 71
0
 42
2.5
  3
OpenSans-Italic.ttf
  4

  0
STYLE
  5
45
330
5
100
AcDbSymbolTableRecord
100
AcDbTextStyleTableRecord
  2
OpenSans-SemiBold
 70
0
 40
0.0
 41
1.0
 50
0.0
 71
0
 42
2.5
  3
OpenSans-SemiBold.ttf
  4

  0
STYLE
  5
46
330
5
100
AcDbSymbolTableRecord
100
AcDbTextStyleTableRecord
  2
OpenSans-SemiBoldItalic
 70
0
 40
0.0
 41
1.0
 50
0.0
 71
0
 42
2.5
  3
OpenSans-SemiBoldItalic.ttf
  4

  0
STYLE
  5
47
330
5
100
AcDbSymbolTableRecord
100
AcDbTextStyleTableRecord
  2
OpenSans-Bold
 70
0
 40
0.0
 41
1.0
 50
0.0
 71
0
 42
2.5
  3
OpenSans-Bold.ttf
  4

  0
STYLE
  5
48
330
5
100
AcDbSymbolTableRecord
100
AcDbTextStyleTableRecord
  2
OpenSans-BoldItalic
 70
0
 40
0.0
 41
1.0
 50
0.0
 71
0
 42
2.5
  3
OpenSans-BoldItalic.ttf
  4

  0
STYLE
  5
49
330
5
100
AcDbSymbolTableRecord
100
AcDbTextStyleTableRecord
  2
OpenSans-ExtraBold
 70
0
 40
0.0
 41
1.0
 50
0.0
 71
0
 42
2.5
  3
OpenSans-ExtraBold.ttf
  4

  0
STYLE
  5
4A
330
5
100
AcDbSymbolTableRecord
100
AcDbTextStyleTableRecord
  2
OpenSans-ExtraBoldItalic
 70
0
 40
0.0
 41
1.0
 50
0.0
 71
0
 42
2.5
  3
OpenSans-ExtraBoldItalic.ttf
  4

  0
STYLE
  5
4B
330
5
100
AcDbSymbolTableRecord
100
AcDbTextStyleTableRecord
  2
OpenSansCondensed-Bold
 70
0
 40
0.0
 41
1.0
 50
0.0
 71
0
 42
2.5
  3
OpenSansCondensed-Bold.ttf
  4

  0
STYLE
  5
4C
330
5
100
AcDbSymbolTableRecord
100
AcDbTextStyleTableRecord
  2
OpenSansCondensed-Light
 70
0
 40
0.0
 41
1.0
 50
0.0
 71
0
 42
2.5
  3
OpenSansCondensed-Light.ttf
  4

  0
STYLE
  5
4D
330
5
100
AcDbSymbolTableRecord
100
AcDbTextStyleTableRecord
  2
OpenSansCondensed-Italic
 70
0
 40
0.0
 41
1.0
 50
0.0
 71
0
 42
2.5
  3
OpenSansCondensed-LightItalic.ttf
  4

  0
STYLE
  5
4E
330
5
100
AcDbSymbolTableRecord
100
AcDbTextStyleTableRecord
  2
LiberationSans
 70
0
 40
0.0
 41
1.0
 50
0.0
 71
0
 42
2.5
  3
LiberationSans-Regular.ttf
  4

  0
STYLE
  5
4F
330
5
100
AcDbSymbolTableRecord
100
AcDbTextStyleTableRecord
  2
LiberationSans-Bold
 70
0
 40
0.0
 41
1.0
 50
0.0
 71
0
 42
2.5
  3
LiberationSans-Bold.ttf
  4

  0
STYLE
  5
50
330
5
100
AcDbSymbolTableRecord
100
AcDbTextStyleTableRecord
  2
LiberationSans-BoldItalic
 70
0
 40
0.0
 41
1.0
 50
0.0
 71
0
 42
2.5
  3
LiberationSans-BoldItalic.ttf
  4

  0
STYLE
  5
51
330
5
100
AcDbSymbolTableRecord
100
AcDbTextStyleTableRecord
  2
LiberationSans-Italic
 70
0
 40
0.0
 41
1.0
 50
0.0
 71
0
 42
2.5
  3
LiberationSans-Italic.ttf
  4

  0
STYLE
  5
52
330
5
100
AcDbSymbolTableRecord
100
AcDbTextStyleTableRecord
  2
LiberationSerif
 70
0
 40
0.0
 41
1.0
 50
0.0
 71
0
 42
2.5
  3
LiberationSerif-Regular.ttf
  4

  0
STYLE
  5
53
330
5
100
AcDbSymbolTableRecord
100
AcDbTextStyleTableRecord
  2
LiberationSerif-Bold
 70
0
 40
0.0
 41
1.0
 50
0.0
 71
0
 42
2.5
  3
LiberationSerif-Bold.ttf
  4

  0
STYLE
  5
54
330
5
100
AcDbSymbolTableRecord
100
AcDbTextStyleTableRecord
  2
LiberationSerif-BoldItalic
 70
0
 40
0.0
 41
1.0
 50
0.0
 71
0
 42
2.5
  3
LiberationSerif-BoldItalic.ttf
  4

  0
STYLE
  5
55
330
5
100
AcDbSymbolTableRecord
100
AcDbTextStyleTableRecord
  2
LiberationSerif-Italic
 70
0
 40
0.0
 41
1.0
 50
0.0
 71
0
 42
2.5
  3
LiberationSerif-Italic.ttf
  4

  0
STYLE
  5
56
330
5
100
AcDbSymbolTableRecord
100
AcDbTextStyleTableRecord
  2
LiberationMono
 70
0
 40
0.0
 41
1.0
 50
0.0
 71
0
 42
2.5
  3
LiberationMono-Regular.ttf
  4

  0
STYLE
  5
57
330
5
100
AcDbSymbolTableRecord
100
AcDbTextStyleTableRecord
  2
LiberationMono-Bold
 70
0
 40
0.0
 41
1.0
 50
0.0
 71
0
 42
2.5
  3
LiberationMono-Bold.ttf
  4

  0
STYLE
  5
58
330
5
100
AcDbSymbolTableRecord
100
AcDbTextStyleTableRecord
  2
LiberationMono-BoldItalic
 70
0
 40
0.0
 41
1.0
 50
0.0
 71
0
 42
2.5
  3
LiberationMono-BoldItalic.ttf
  4

  0
STYLE
  5
59
330
5
100
AcDbSymbolTableRecord
100
AcDbTextStyleTableRecord
  2
LiberationMono-Italic
 70
0
 40
0.0
 41
1.0
 50
0.0
 71
0
 42
2.5
  3
LiberationMono-Italic.ttf
  4

  0
ENDTAB
  0
TABLE
  2
VIEW
  5
7
330
0
100
AcDbSymbolTable
 70
0
  0
ENDTAB
  0
TABLE
  2
UCS
  5
6
330
0
100
AcDbSymbolTable
 70
0
  0
ENDTAB
  0
TABLE
  2
APPID
  5
3
330
0
100
AcDbSymbolTable
 70
3
  0
APPID
  5
2A
330
3
100
AcDbSymbolTableRecord
100
AcDbRegAppTableRecord
  2
ACAD
 70
0
  0
APPID
  5
15E
330
3
100
AcDbSymbolTableRecord
100
AcDbRegAppTableRecord
  2
HATCHBACKGROUNDCOLOR
 70
0
  0
APPID
  5
15F
330
3
100
AcDbSymbolTableRecord
100
AcDbRegAppTableRecord
  2
EZDXF
 70
0
  0
ENDTAB
  0
TABLE
  2
DIMSTYLE
  5
4
330
0
100
AcDbSymbolTable
 70
12
100
AcDbDimStyleTable
  0
DIMSTYLE
105
2B
330
4
100
AcDbSymbolTableRecord
100
AcDbDimStyleTableRecord
  2
Standard
 70
0
 40
1.0
 41
2.5
 42
0.625
 43
3.75
 44
1.25
 45
0.0
 46
0.0
 47
0.0
 48
0.0
 49
2.5
140
2.5
141
2.5
142
0.0
143
0.03937007874
144
1.0
145
0.0
146
1.0
147
0.625
148
0.0
 69
0
 70
0
 71
0
 72
0
 73
0
 74
0
 75
0
 76
0
 77
1
 78
8
 79
3
170
0
171
3
172
1
173
0
174
0
175
0
176
0
177
0
178
0
179
2
271
2
272
2
273
2
274
3
275
0
276
0
277
2
278
44
279
0
280
0
281
0
282
0
283
0
284
8
285
0
286
0
288
0
289
3
290
0
371
-2
372
-2
  0
DIMSTYLE
105
73
330
4
100
AcDbSymbolTableRecord
100
AcDbDimStyleTableRecord
  2
EZDXF
 70
0
 40
1.0
 41
0.175
 42
0.125
 43
3.75
 44
0.375
 45
0.0
 46
0.0
 47
0.0
 48
0.0
 49
2.5
140
0.25
141
2.5
142
0.0
143
0.03937007874
144
100.0
145
0.0
146
0.5
147
0.1
148
0.0
 69
0
 70
0
 71
0
 72
0
 73
0
 74
0
 75
0
 76
0
 77
1
 78
12
 79
3
170
0
171
3
172
1
173
0
174
0
175
0
176
0
177
0
178
0
179
2
271
2
272
2
273
2
274
3
275
0
276
0
277
2
278
46
279
2
280
0
281
0
282
0
283
0
284
8
285
0
286
0
288
1
289
3
290
0
340
4C
342
74
371
-2
372
-2
  0
DIMSTYLE
105
7C
330
4
100
AcDbSymbolTableRecord
100
AcDbDimStyleTableRecord
  2
EZ_M_100_H25_CM
 70
0
 40
1.0
 41
0.25
 42
0.125
 43
3.75
 44
0.375
 45
0.0
 46
0.0
 47
0.0
 48
0.0
 49
2.5
140
0.25
141
2.5
142
0.125
143
0.03937007874
144
100.0
145
0.0
146
0.5
147
0.1
148
0.0
 69
0
 70
0
 71
0
 72
0
 73
0
 74
0
 75
0
 76
0
 77
1
 78
12
 79
3
170
0
171
3
172
1
173
0
174
0
175
0
176
0
177
0
178
0
179
2
271
2
272
2
273
2
274
3
275
0
276
0
277
2
278
46
279
2
280
0
281
0
282
0
283
0
284
8
285
0
286
0
288
1
289
3
290
0
340
4C
371
-2
372
-2
  0
DIMSTYLE
105
7D
330
4
100
AcDbSymbolTableRecord
100
AcDbDimStyleTableRecord
  2
EZ_M_50_H25_CM
 70
0
 40
1.0
 41
0.125
 42
0.0625
 43
3.75
 44
0.1875
 45
0.0
 46
0.0
 47
0.0
 48
0.0
 49
2.5
140
0.125
141
2.5
142
0.0625
143
0.03937007874
144
100.0
145
0.0
146
0.5
147
0.05
148
0.0
 69
0
 70
0
 71
0
 72
0
 73
0
 74
0
 75
0
 76
0
 77
1
 78
12
 79
3
170
0
171
3
172
1
173
0
174
0
175
0
176
0
177
0
178
0
179
2
271
2
272
2
273
2
274
3
275
0
276
0
277
2
278
46
279
2
280
0
281
0
282
0
283
0
284
8
285
0
286
0
288
1
289
3
290
0
340
4C
371
-2
372
-2
  0
DIMSTYLE
105
7E
330
4
100
AcDbSymbolTableRecord
100
AcDbDimStyleTableRecord
  2
EZ_M_25_H25_CM
 70
0
 40
1.0
 41
0.0625
 42
0.03125
 43
3.75
 44
0.09375
 45
0.0
 46
0.0
 47
0.0
 48
0.0
 49
2.5
140
0.0625
141
2.5
142
0.03125
143
0.03937007874
144
100.0
145
0.0
146
0.5
147
0.025
148
0.0
 69
0
 70
0
 71
0
 72
0
 73
0
 74
0
 75
0
 76
0
 77
1
 78
12
 79
3
170
0
171
3
172
1
173
0
174
0
175
0
176
0
177
0
178
0
179
2
271
2
272
2
273
2
274
3
275
0
276
0
277
2
278
46
279
2
280
0
281
0
282
0
283
0
284
8
285
0
286
0
288
1
289
3
290
0
340
4C
371
-2
372
-2
  0
DIMSTYLE
105
7F
330
4
100
AcDbSymbolTableRecord
100
AcDbDimStyleTableRecord
  2
EZ_M_20_H25_CM
 70
0
 40
1.0
 41
0.05
 42
0.025
 43
3.75
 44
0.07500000000000001
 45
0.0
 46
0.0
 47
0.0
 48
0.0
 49
2.5
140
0.05
141
2.5
142
0.025
143
0.03937007874
144
100.0
145
0.0
146
0.5
147
0.020000000000000004
148
0.0
 69
0
 70
0
 71
0
 72
0
 73
0
 74
0
 75
0
 76
0
 77
1
 78
12
 79
3
170
0
171
3
172
1
173
0
174
0
175
0
176
0
177
0
178
0
179
2
271
2
272
2
273
2
274
3
275
0
276
0
277
2
278
46
279
2
280
0
281
0
282
0
283
0
284
8
285
0
286
0
288
1
289
3
290
0
340
4C
371
-2
372
-2
  0
DIMSTYLE
105
80
330
4
100
AcDbSymbolTableRecord
100
AcDbDimStyleTableRecord
  2
EZ_M_10_H25_CM
 70
0
 40
1.0
 41
0.025
 42
0.0125
 43
3.75
 44
0.037500000000000006
 45
0.0
 46
0.0
 47
0.0
 48
0.0
 49
2.5
140
0.025
141
2.5
142
0.0125
143
0.03937007874
144
100.0
145
0.0
146
0.5
147
0.010000000000000002
148
0.0
 69
0
 70
0
 71
0
 72
0
 73
0
 74
0
 75
0
 76
0
 77
1
 78
12
 79
3
170
0
171
3
172
1
173
0
174
0
175
0
176
0
177
0
178
0
179
2
271
2
272
2
273
2
274
3
275
0
276
0
277
2
278
46
279
2
280
0
281
0
282
0
283
0
284
8
285
0
286
0
288
1
289
3
290
0
340
4C
371
-2
372
-2
  0
DIMSTYLE
105
81
330
4
100
AcDbSymbolTableRecord
100
AcDbDimStyleTableRecord
  2
EZ_M_5_H25_CM
 70
0
 40
1.0
 41
0.0125
 42
0.00625
 43
3.75
 44
0.018750000000000003
 45
0.0
 46
0.0
 47
0.0
 48
0.0
 49
2.5
140
0.0125
141
2.5
142
0.00625
143
0.03937007874
144
100.0
145
0.0
146
0.5
147
0.005000000000000001
148
0.0
 69
0
 70
0
 71
0
 72
0
 73
0
 74
0
 75
0
 76
0
 77
1
 78
12
 79
3
170
0
171
3
172
1
173
0
174
0
175
0
176
0
177
0
178
0
179
2
271
2
272
2
273
2
274
3
275
0
276
0
277
2
278
46
279
2
280
0
281
0
282
0
283
0
284
8
285
0
286
0
288
1
289
3
290
0
340
4C
371
-2
372
-2
  0
DIMSTYLE
105
82
330
4
100
AcDbSymbolTableRecord
100
AcDbDimStyleTableRecord
  2
EZ_M_1_H25_CM
 70
0
 40
1.0
 41
0.0025
 42
0.00125
 43
3.75
 44
0.00375
 45
0.0
 46
0.0
 47
0.0
 48
0.0
 49
2.5
140
0.0025
141
2.5
142
0.00125
143
0.03937007874
144
100.0
145
0.0
146
0.5
147
0.001
148
0.0
 69
0
 70
0
 71
0
 72
0
 73
0
 74
0
 75
0
 76
0
 77
1
 78
12
 79
3
170
0
171
3
172
1
173
0
174
0
175
0
176
0
177
0
178
0
179
2
271
2
272
2
273
2
274
3
275
0
276
0
277
2
278
46
279
2
280
0
281
0
282
0
283
0
284
8
285
0
286
0
288
1
289
3
290
0
340
4C
371
-2
372
-2
  0
DIMSTYLE
105
83
330
4
100
AcDbSymbolTableRecord
100
AcDbDimStyleTableRecord
  2
EZ_RADIUS
 70
0
 40
1.0
 41
0.25
 42
0.125
 43
3.75
 44
0.375
 45
0.0
 46
0.0
 47
0.0
 48
0.0
 49
2.5
140
0.25
141
0.0
142
0.0
143
0.03937007874
144
100.0
145
0.0
146
0.5
147
0.1
148
0.0
 69
0
 70
0
 71
0
 72
0
 73
0
 74
0
 75
0
 76
0
 77
1
 78
12
 79
3
170
0
171
3
172
0
173
0
174
0
175
0
176
0
177
0
178
0
179
2
271
2
272
2
273
2
274
3
275
0
276
0
277
2
278
46
279
1
280
0
281
0
282
0
283
0
284
8
285
0
286
0
288
1
289
3
290
0
340
4C
342
84
371
-2
372
-2
  0
DIMSTYLE
105
88
330
4
100
AcDbSymbolTableRecord
100
AcDbDimStyleTableRecord
  2
EZ_RADIUS_INSIDE
 70
0
 40
1.0
 41
0.25
 42
0.125
 43
3.75
 44
0.375
 45
0.0
 46
0.0
 47
0.0
 48
0.0
 49
2.5
140
0.25
141
0.0
142
0.0
143
0.03937007874
144
100.0
145
0.0
146
0.5
147
0.1
148
0.0
 69
0
 70
0
 71
0
 72
0
 73
0
 74
0
 75
0
 76
0
 77
0
 78
12
 79
3
170
0
171
3
172
0
173
0
174
1
175
0
176
0
177
0
178
0
179
2
271
2
272
2
273
2
274
3
275
0
276
0
277
2
278
46
279
0
280
0
281
0
282
0
283
0
284
8
285
0
286
0
288
1
289
0
290
0
340
4C
342
84
371
-2
372
-2
  0
DIMSTYLE
105
89
330
4
100
AcDbSymbolTableRecord
100
AcDbDimStyleTableRecord
  2
EZ_CURVED
 70
0
 40
1.0
 41
0.25
 42
0.125
 43
3.75
 44
0.375
 45
0.0
 46
0.0
 47
0.0
 48
0.0
 49
2.5
140
0.25
141
2.5
142
0.0
143
0.03937007874
144
100.0
145
0.0
146
0.5
147
0.1
148
0.0
 69
0
 70
0
 71
0
 72
0
 73
0
 74
0
 75
0
 76
0
 77
1
 78
12
 79
2
 90
2
170
0
171
3
172
1
173
0
174
0
175
0
176
0
177
0
178
0
179
2
271
2
272
2
273
2
274
3
275
0
276
0
277
2
278
46
279
2
280
0
281
0
282
0
283
0
284
8
285
0
286
0
288
1
289
3
290
0
340
4C
371
-2
372
-2
  0
ENDTAB
  0
TABLE
  2
BLOCK_RECORD
  5
9
330
0
100
AcDbSymbolTable
 70
5
  0
BLOCK_RECORD
  5
17
330
9
100
AcDbSymbolTableRecord
100
AcDbBlockTableRecord
  2
*Model_Space
340
1A
 70
0
280
1
281
0
  0
BLOCK_RECORD
  5
1B
330
9
100
AcDbSymbolTableRecord
100
AcDbBlockTableRecord
  2
*Paper_Space
340
1E
 70
0
280
1
281
0
  0
BLOCK_RECORD
  5
74
330
9
100
AcDbSymbolTableRecord
100
AcDbBlockTableRecord
  2
_ARCHTICK
340
0
 70
0
280
1
281
0
  0
BLOCK_RECORD
  5
78
330
9
100
AcDbSymbolTableRecord
100
AcDbBlockTableRecord
  2
_CLOSEDFILLED
340
0
 70
0
280
1
281
0
  0
BLOCK_RECORD
  5
84
330
9
100
AcDbSymbolTableRecord
100
AcDbBlockTableRecord
  2
_CLOSEDBLANK
340
0
 70
0
280
1
281
0
  0
ENDTAB
  0
ENDSEC
  0
SECTION
  2
BLOCKS
  0
BLOCK
  5
18
330
17
100
AcDbEntity
  8
0
100
AcDbBlockBegin
  2
*Model_Space
 70
0
 10
0.0
 20
0.0
 30
0.0
  3
*Model_Space
  1

  0
ENDBLK
  5
19
330
17
100
AcDbEntity
  8
0
100
AcDbBlockEnd
  0
BLOCK
  5
1C
330
1B
100
AcDbEntity
  8
0
100
AcDbBlockBegin
  2
*Paper_Space
 70
0
 10
0.0
 20
0.0
 30
0.0
  3
*Paper_Space
  1

  0
ENDBLK
  5
1D
330
1B
100
AcDbEntity
  8
0
100
AcDbBlockEnd
  0
BLOCK
  5
75
330
74
100
AcDbEntity
  8
0
100
AcDbBlockBegin
  2
_ARCHTICK
 70
0
 10
0.0
 20
0.0
 30
0.0
  3
_ARCHTICK
  1

  0
LWPOLYLINE
  5
77
330
74
100
AcDbEntity
  8
0
  6
BYBLOCK
 62
0
100
AcDbPolyline
 90
2
 70
0
 43
0.15
 10
-0.5
 20
-0.5
 10
0.5
 20
0.5
  0
ENDBLK
  5
76
330
74
100
AcDbEntity
  8
0
100
AcDbBlockEnd
  0
BLOCK
  5
79
330
78
100
AcDbEntity
  8
0
100
AcDbBlockBegin
  2
_CLOSEDFILLED
 70
0
 10
0.0
 20
0.0
 30
0.0
  3
_CLOSEDFILLED
  1

  0
SOLID
  5
7B
330
78
100
AcDbEntity
  8
0
  6
BYBLOCK
 62
0
100
AcDbTrace
 10
-1.0
 20
0.16439898372402537
 30
0.0
 11
0.0
 21
0.0
 31
0.0
 12
-1.0
 22
-0.16439898372402537
 32
0.0
 13
-1.0
 23
-0.16439898372402537
 33
0.0
  0
ENDBLK
  5
7A
330
78
100
AcDbEntity
  8
0
100
AcDbBlockEnd
  0
BLOCK
  5
85
330
84
100
AcDbEntity
  8
0
100
AcDbBlockBegin
  2
_CLOSEDBLANK
 70
0
 10
0.0
 20
0.0
 30
0.0
  3
_CLOSEDBLANK
  1

  0
LWPOLYLINE
  5
87
330
84
100
AcDbEntity
  8
0
  6
BYBLOCK
 62
0
100
AcDbPolyline
 90
3
 70
1
 10
-1.0
 20
0.16439898372402537
 10
0.0
 20
0.0
 10
-1.0
 20
-0.16439898372402537
  0
ENDBLK
  5
86
330
84
100
AcDbEntity
  8
0
100
AcDbBlockEnd
  0
ENDSEC
  0
SECTION
  2
ENTITIES
  0
LWPOLYLINE
  5
97
330
17
100
AcDbEntity
  8
0_POLIGONO_GENERAL
100
AcDbPolyline
 90
4
 70
1
 10
0.0
 20
0.0
 10
99.53471542324405
 20
-22.88261189707555
 10
130.3234819502104
 20
110.35678743291646
 10
23.774829596164636
 20
132.05755258863792
  0
CIRCLE
  5
98
330
17
100
AcDbEntity
  8
0_POLIGONO_GENERAL
100
AcDbCircle
 10
0.0
 20
0.0
 30
0.0
 40
0.8
  0
TEXT
  5
99
330
17
100
AcDbEntity
  8
0_TEXTOS_COTAS
100
AcDbText
 10
1.5
 20
1.5
 30
0.0
 40
1.2
  1
P1 (SW): X=0.00, Y=0.00
 11
1.5
 21
1.5
 31
0.0
100
AcDbText
  0
CIRCLE
  5
9A
330
17
100
AcDbEntity
  8
0_POLIGONO_GENERAL
100
AcDbCircle
 10
99.53471542324405
 20
-22.88261189707555
 30
0.0
 40
0.8
  0
TEXT
  5
9B
330
17
100
AcDbEntity
  8
0_TEXTOS_COTAS
100
AcDbText
 10
101.03471542324405
 20
-21.38261189707555
 30
0.0
 40
1.2
  1
P2 (SE): X=99.53, Y=-22.88
 11
101.03471542324405
 21
-21.38261189707555
 31
0.0
100
AcDbText
  0
CIRCLE
  5
9C
330
17
100
AcDbEntity
  8
0_POLIGONO_GENERAL
100
AcDbCircle
 10
130.3234819502104
 20
110.35678743291646
 30
0.0
 40
0.8
  0
TEXT
  5
9D
330
17
100
AcDbEntity
  8
0_TEXTOS_COTAS
100
AcDbText
 10
131.8234819502104
 20
111.85678743291646
 30
0.0
 40
1.2
  1
P3 (NE): X=130.32, Y=110.36
 11
131.8234819502104
 21
111.85678743291646
 31
0.0
100
AcDbText
  0
CIRCLE
  5
9E
330
17
100
AcDbEntity
  8
0_POLIGONO_GENERAL
100
AcDbCircle
 10
23.774829596164636
 20
132.05755258863792
 30
0.0
 40
0.8
  0
TEXT
  5
9F
330
17
100
AcDbEntity
  8
0_TEXTOS_COTAS
100
AcDbText
 10
25.274829596164636
 20
133.55755258863792
 30
0.0
 40
1.2
  1
P4 (NW): X=23.77, Y=132.06
 11
25.274829596164636
 21
133.55755258863792
 31
0.0
100
AcDbText
  0
LWPOLYLINE
  5
A0
330
17
100
AcDbEntity
  8
0_HUELLA_CENTRAL
100
AcDbPolyline
 90
4
 70
1
 10
43.585476424894296
 20
128.42230836465023
 10
28.1829238088103
 20
45.75697053782642
 10
90.07720179914031
 20
37.16883903555572
 10
106.62963361176662
 20
115.21466643409804
  0
LWPOLYLINE
  5
A1
330
17
100
AcDbEntity
  8
SUBDIVISION_LOT_C01
100
AcDbPolyline
 90
4
 70
1
 10
43.585476424894296
 20
128.42230836465023
 10
38.455020327703096
 20
100.86354516888969
 10
101.11578347010072
 20
89.20313117420301
 10
106.62963361176662
 20
115.21466643409804
  0
LWPOLYLINE
  5
A2
330
17
100
AcDbEntity
  8
SUBDIVISION_LOT_C02
100
AcDbPolyline
 90
4
 70
1
 10
38.455020327703096
 20
100.86354516888969
 10
33.31341432163026
 20
73.31572473444976
 10
95.59108440880664
 20
63.18036505836062
 10
101.11578347010072
 20
89.20313117420301
  0
LWPOLYLINE
  5
A3
330
17
100
AcDbEntity
  8
SUBDIVISION_LOT_C03
100
AcDbPolyline
 90
4
 70
1
 10
33.31341432163026
 20
73.31572473444976
 10
28.1829238088103
 20
45.75697053782642
 10
90.07720179914031
 20
37.16883903555572
 10
95.59108440880664
 20
63.18036505836062
  0
LINE
  5
A4
330
17
100
AcDbEntity
  8
0_DIVISORIAS_INTERNAS
  6
DASHED
100
AcDbLine
 10
38.455020327703096
 20
100.86354516888969
 30
0.0
 11
101.11578347010072
 21
89.20313117420301
 31
0.0
  0
LINE
  5
A5
330
17
100
AcDbEntity
  8
0_DIVISORIAS_INTERNAS
  6
DASHED
100
AcDbLine
 10
33.31341432163026
 20
73.31572473444976
 30
0.0
 11
95.59108440880664
 21
63.18036505836062
 31
0.0
  0
CIRCLE
  5
A6
330
17
100
AcDbEntity
  8
0_DIVISORIAS_INTERNAS
100
AcDbCircle
 10
38.455020327703096
 20
100.86354516888969
 30
0.0
 40
0.45
  0
CIRCLE
  5
A7
330
17
100
AcDbEntity
  8
0_DIVISORIAS_INTERNAS
100
AcDbCircle
 10
101.11578347010072
 20
89.20313117420301
 30
0.0
 40
0.45
  0
CIRCLE
  5
A8
330
17
100
AcDbEntity
  8
0_DIVISORIAS_INTERNAS
100
AcDbCircle
 10
33.31341432163026
 20
73.31572473444976
 30
0.0
 40
0.45
  0
CIRCLE
  5
A9
330
17
100
AcDbEntity
  8
0_DIVISORIAS_INTERNAS
100
AcDbCircle
 10
95.59108440880664
 20
63.18036505836062
 30
0.0
 40
0.45
  0
TEXT
  5
AA
330
17
100
AcDbEntity
  8
SUBDIVISION_LOT_C01
100
AcDbText
 10
58.446478458616184
 20
109.62591278546024
 30
0.0
 40
1.8
  1
LOT-C01 (NORTE) - 1.730 m2
 11
58.446478458616184
 21
109.62591278546024
 31
0.0
100
AcDbText
  0
TEXT
  5
AB
330
17
100
AcDbEntity
  8
0_TEXTOS_COTAS
100
AcDbText
 10
54.446478458616184
 20
107.02591278546024
 30
0.0
 40
1.0
  1
FTE. VIAL OESTE: 27.95 m | SHOWROOM / RETAIL
 11
54.446478458616184
 21
107.02591278546024
 31
0.0
100
AcDbText
  0
TEXT
  5
AC
330
17
100
AcDbEntity
  8
SUBDIVISION_LOT_C02
100
AcDbText
 10
53.11882563206018
 20
82.84069153397577
 30
0.0
 40
1.8
  1
LOT-C02 (CENTRO) - 1.730 m2
 11
53.11882563206018
 21
82.84069153397577
 31
0.0
100
AcDbText
  0
TEXT
  5
AD
330
17
100
AcDbEntity
  8
0_TEXTOS_COTAS
100
AcDbText
 10
49.11882563206018
 20
80.24069153397576
 30
0.0
 40
1.0
  1
FTE. VIAL OESTE: 27.95 m | LOGISTICA Y DISTRIBUCION
 11
49.11882563206018
 21
80.24069153397576
 31
0.0
100
AcDbText
  0
TEXT
  5
AE
330
17
100
AcDbEntity
  8
SUBDIVISION_LOT_C03
100
AcDbText
 10
47.79115608459688
 20
56.05547484154813
 30
0.0
 40
1.8
  1
LOT-C03 (SUR) - 1.730 m2
 11
47.79115608459688
 21
56.05547484154813
 31
0.0
100
AcDbText
  0
TEXT
  5
AF
330
17
100
AcDbEntity
  8
0_TEXTOS_COTAS
100
AcDbText
 10
43.79115608459688
 20
53.45547484154813
 30
0.0
 40
1.0
  1
FTE. VIAL OESTE: 27.96 m | TALLER / PATIO CARGA
 11
43.79115608459688
 21
53.45547484154813
 31
0.0
100
AcDbText
  0
CIRCLE
  5
B0
330
17
100
AcDbEntity
  8
0_HUELLA_CENTRAL
100
AcDbCircle
 10
43.585476424894296
 20
128.42230836465023
 30
0.0
 40
0.6
  0
TEXT
  5
B1
330
17
100
AcDbEntity
  8
0_TEXTOS_COTAS
100
AcDbText
 10
44.585476424894296
 20
125.92230836465023
 30
0.0
 40
1.0
  1
Q1 (NW): X=43.59, Y=128.42
 11
44.585476424894296
 21
125.92230836465023
 31
0.0
100
AcDbText
  0
CIRCLE
  5
B2
330
17
100
AcDbEntity
  8
0_HUELLA_CENTRAL
100
AcDbCircle
 10
28.1829238088103
 20
45.75697053782642
 30
0.0
 40
0.6
  0
TEXT
  5
B3
330
17
100
AcDbEntity
  8
0_TEXTOS_COTAS
100
AcDbText
 10
29.1829238088103
 20
43.25697053782642
 30
0.0
 40
1.0
  1
Q2 (SW): X=28.18, Y=45.76
 11
29.1829238088103
 21
43.25697053782642
 31
0.0
100
AcDbText
  0
CIRCLE
  5
B4
330
17
100
AcDbEntity
  8
0_HUELLA_CENTRAL
100
AcDbCircle
 10
90.07720179914031
 20
37.16883903555572
 30
0.0
 40
0.6
  0
TEXT
  5
B5
330
17
100
AcDbEntity
  8
0_TEXTOS_COTAS
100
AcDbText
 10
91.07720179914031
 20
34.66883903555572
 30
0.0
 40
1.0
  1
Q3 (SE): X=90.08, Y=37.17
 11
91.07720179914031
 21
34.66883903555572
 31
0.0
100
AcDbText
  0
CIRCLE
  5
B6
330
17
100
AcDbEntity
  8
0_HUELLA_CENTRAL
100
AcDbCircle
 10
106.62963361176662
 20
115.21466643409804
 30
0.0
 40
0.6
  0
TEXT
  5
B7
330
17
100
AcDbEntity
  8
0_TEXTOS_COTAS
100
AcDbText
 10
107.62963361176662
 20
112.71466643409804
 30
0.0
 40
1.0
  1
Q4 (NE): X=106.63, Y=115.21
 11
107.62963361176662
 21
112.71466643409804
 31
0.0
100
AcDbText
  0
LINE
  5
B8
330
17
100
AcDbEntity
  8
0_ACCESO_VIAL
  6
CENTER
100
AcDbLine
 10
-44.66795361577533
 20
168.3902048659511
 30
0.0
 11
23.81876031390857
 21
132.0581469712779
 31
0.0
  0
LINE
  5
B9
330
17
100
AcDbEntity
  8
0_ACCESO_VIAL
100
AcDbLine
 10
-47.362616280565554
 20
163.31070753619633
 30
0.0
 11
-41.97329095098511
 21
173.46970219570585
 31
0.0
  0
LINE
  5
BA
330
17
100
AcDbEntity
  8
0_ACCESO_VIAL
100
AcDbLine
 10
21.124097649118347
 20
126.97864964152313
 30
0.0
 11
26.51342297869879
 21
137.13764430103265
 31
0.0
  0
LINE
  5
BB
330
17
100
AcDbEntity
  8
0_ACCESO_VIAL
100
AcDbLine
 10
-47.362616280565554
 20
163.31070753619633
 30
0.0
 11
21.124097649118347
 21
126.97864964152313
 31
0.0
  0
LINE
  5
BC
330
17
100
AcDbEntity
  8
0_ACCESO_VIAL
100
AcDbLine
 10
-41.97329095098511
 20
173.46970219570585
 30
0.0
 11
26.51342297869879
 21
137.13764430103265
 31
0.0
  0
TEXT
  5
BD
330
17
100
AcDbEntity
  8
0_TEXTOS_COTAS
100
AcDbText
 10
-69.66795361577533
 20
173.3902048659511
 30
0.0
 40
1.3
  1
BOCA DE ACCESO AV. MUNICIPAL (11.50 m)
 11
-69.66795361577533
 21
173.3902048659511
 31
0.0
100
AcDbText
  0
TEXT
  5
BE
330
17
100
AcDbEntity
  8
0_TEXTOS_COTAS
100
AcDbText
 10
-25.42459665093338
 20
154.2241759186145
 30
0.0
 40
1.2
  1
EJE ACCESO: 77.53 m (Nominal 76.00 m)
 11
-25.42459665093338
 21
154.2241759186145
 31
0.0
100
AcDbText
  0
LINE
  5
BF
330
17
100
AcDbEntity
  8
0_ESTACIONAMIENTOS
  6
DASHED
100
AcDbLine
 10
63.247094926082745
 20
124.7588731033519
 30
0.0
 11
47.84454230999875
 21
42.09353527652808
 31
0.0
  0
LINE
  5
C0
330
17
100
AcDbEntity
  8
0_ESTACIONAMIENTOS
100
AcDbLine
 10
43.585476424894296
 20
128.42230836465023
 30
0.0
 11
48.50088105019141
 21
127.50644954932565
 31
0.0
  0
LINE
  5
C1
330
17
100
AcDbEntity
  8
0_ESTACIONAMIENTOS
100
AcDbLine
 10
43.13246017148006
 20
125.99097489915542
 30
0.0
 11
48.047864796777176
 21
125.07511608383084
 31
0.0
  0
LINE
  5
C2
330
17
100
AcDbEntity
  8
0_ESTACIONAMIENTOS
100
AcDbLine
 10
42.67944391806583
 20
123.5596414336606
 30
0.0
 11
47.59484854336294
 21
122.64378261833602
 31
0.0
  0
LINE
  5
C3
330
17
100
AcDbEntity
  8
0_ESTACIONAMIENTOS
100
AcDbLine
 10
42.22642766465159
 20
121.12830796816579
 30
0.0
 11
47.1418322899487
 21
120.2124491528412
 31
0.0
  0
LINE
  5
C4
330
17
100
AcDbEntity
  8
0_ESTACIONAMIENTOS
100
AcDbLine
 10
41.773411411237355
 20
118.69697450267097
 30
0.0
 11
46.68881603653447
 21
117.78111568734639
 31
0.0
  0
LINE
  5
C5
330
17
100
AcDbEntity
  8
0_ESTACIONAMIENTOS
100
AcDbLine
 10
41.32039515782312
 20
116.26564103717614
 30
0.0
 11
46.235799783120235
 21
115.34978222185156
 31
0.0
  0
LINE
  5
C6
330
17
100
AcDbEntity
  8
0_ESTACIONAMIENTOS
100
AcDbLine
 10
40.86737890440889
 20
113.83430757168132
 30
0.0
 11
45.782783529706
 21
112.91844875635674
 31
0.0
  0
LINE
  5
C7
330
17
100
AcDbEntity
  8
0_ESTACIONAMIENTOS
100
AcDbLine
 10
40.41436265099465
 20
111.4029741061865
 30
0.0
 11
45.32976727629176
 21
110.48711529086192
 31
0.0
  0
LINE
  5
C8
330
17
100
AcDbEntity
  8
0_ESTACIONAMIENTOS
100
AcDbLine
 10
39.961346397580414
 20
108.97164064069169
 30
0.0
 11
44.87675102287753
 21
108.0557818253671
 31
0.0
  0
LINE
  5
C9
330
17
100
AcDbEntity
  8
0_ESTACIONAMIENTOS
100
AcDbLine
 10
39.50833014416618
 20
106.54030717519687
 30
0.0
 11
44.423734769463294
 21
105.62444835987229
 31
0.0
  0
LINE
  5
CA
330
17
100
AcDbEntity
  8
0_ESTACIONAMIENTOS
100
AcDbLine
 10
39.05531389075195
 20
104.10897370970206
 30
0.0
 11
43.97071851604906
 21
103.19311489437747
 31
0.0
  0
LINE
  5
CB
330
17
100
AcDbEntity
  8
0_ESTACIONAMIENTOS
100
AcDbLine
 10
38.602297637337706
 20
101.67764024420723
 30
0.0
 11
43.51770226263482
 21
100.76178142888264
 31
0.0
  0
LINE
  5
CC
330
17
100
AcDbEntity
  8
0_ESTACIONAMIENTOS
100
AcDbLine
 10
38.14928138392347
 20
99.24630677871241
 30
0.0
 11
43.06468600922059
 21
98.33044796338783
 31
0.0
  0
LINE
  5
CD
330
17
100
AcDbEntity
  8
0_ESTACIONAMIENTOS
100
AcDbLine
 10
37.69626513050924
 20
96.81497331321759
 30
0.0
 11
42.61166975580635
 21
95.89911449789301
 31
0.0
  0
LINE
  5
CE
330
17
100
AcDbEntity
  8
0_ESTACIONAMIENTOS
100
AcDbLine
 10
37.243248877095006
 20
94.38363984772278
 30
0.0
 11
42.15865350239212
 21
93.4677810323982
 31
0.0
  0
LINE
  5
CF
330
17
100
AcDbEntity
  8
0_ESTACIONAMIENTOS
100
AcDbLine
 10
36.790232623680765
 20
91.95230638222796
 30
0.0
 11
41.70563724897788
 21
91.03644756690338
 31
0.0
  0
LINE
  5
D0
330
17
100
AcDbEntity
  8
0_ESTACIONAMIENTOS
100
AcDbLine
 10
36.33721637026653
 20
89.52097291673314
 30
0.0
 11
41.252620995563646
 21
88.60511410140856
 31
0.0
  0
LINE
  5
D1
330
17
100
AcDbEntity
  8
0_ESTACIONAMIENTOS
100
AcDbLine
 10
35.8842001168523
 20
87.08963945123833
 30
0.0
 11
40.79960474214941
 21
86.17378063591374
 31
0.0
  0
LINE
  5
D2
330
17
100
AcDbEntity
  8
0_ESTACIONAMIENTOS
100
AcDbLine
 10
35.431183863438065
 20
84.65830598574351
 30
0.0
 11
40.34658848873518
 21
83.74244717041893
 31
0.0
  0
LINE
  5
D3
330
17
100
AcDbEntity
  8
0_ESTACIONAMIENTOS
100
AcDbLine
 10
34.97816761002383
 20
82.2269725202487
 30
0.0
 11
39.893572235320946
 21
81.31111370492411
 31
0.0
  0
LINE
  5
D4
330
17
100
AcDbEntity
  8
0_ESTACIONAMIENTOS
100
AcDbLine
 10
34.5251513566096
 20
79.79563905475388
 30
0.0
 11
39.44055598190671
 21
78.8797802394293
 31
0.0
  0
LINE
  5
D5
330
17
100
AcDbEntity
  8
0_ESTACIONAMIENTOS
100
AcDbLine
 10
34.07213510319536
 20
77.36430558925905
 30
0.0
 11
38.98753972849247
 21
76.44844677393446
 31
0.0
  0
LINE
  5
D6
330
17
100
AcDbEntity
  8
0_ESTACIONAMIENTOS
100
AcDbLine
 10
33.619118849781124
 20
74.93297212376423
 30
0.0
 11
38.53452347507824
 21
74.01711330843965
 31
0.0
  0
LINE
  5
D7
330
17
100
AcDbEntity
  8
0_ESTACIONAMIENTOS
100
AcDbLine
 10
33.16610259636688
 20
72.50163865826941
 30
0.0
 11
38.081507221664
 21
71.58577984294483
 31
0.0
  0
LINE
  5
D8
330
17
100
AcDbEntity
  8
0_ESTACIONAMIENTOS
100
AcDbLine
 10
32.71308634295265
 20
70.0703051927746
 30
0.0
 11
37.628490968249764
 21
69.15444637745001
 31
0.0
  0
LINE
  5
D9
330
17
100
AcDbEntity
  8
0_ESTACIONAMIENTOS
100
AcDbLine
 10
32.26007008953842
 20
67.63897172727978
 30
0.0
 11
37.17547471483553
 21
66.7231129119552
 31
0.0
  0
LINE
  5
DA
330
17
100
AcDbEntity
  8
0_ESTACIONAMIENTOS
100
AcDbLine
 10
31.807053836124183
 20
65.20763826178495
 30
0.0
 11
36.7224584614213
 21
64.29177944646037
 31
0.0
  0
LINE
  5
DB
330
17
100
AcDbEntity
  8
0_ESTACIONAMIENTOS
100
AcDbLine
 10
31.35403758270995
 20
62.77630479629015
 30
0.0
 11
36.269442208007064
 21
61.860445980965565
 31
0.0
  0
LINE
  5
DC
330
17
100
AcDbEntity
  8
0_ESTACIONAMIENTOS
100
AcDbLine
 10
30.90102132929571
 20
60.34497133079532
 30
0.0
 11
35.81642595459282
 21
59.429112515470734
 31
0.0
  0
LINE
  5
DD
330
17
100
AcDbEntity
  8
0_ESTACIONAMIENTOS
100
AcDbLine
 10
30.448005075881476
 20
57.913637865300515
 30
0.0
 11
35.36340970117859
 21
56.99777904997593
 31
0.0
  0
LINE
  5
DE
330
17
100
AcDbEntity
  8
0_ESTACIONAMIENTOS
100
AcDbLine
 10
29.994988822467242
 20
55.482304399805685
 30
0.0
 11
34.910393447764356
 21
54.5664455844811
 31
0.0
  0
LINE
  5
DF
330
17
100
AcDbEntity
  8
0_ESTACIONAMIENTOS
100
AcDbLine
 10
29.54197256905301
 20
53.05097093431087
 30
0.0
 11
34.45737719435012
 21
52.135112118986285
 31
0.0
  0
LINE
  5
E0
330
17
100
AcDbEntity
  8
0_ESTACIONAMIENTOS
100
AcDbLine
 10
29.08895631563877
 20
50.61963746881605
 30
0.0
 11
34.00436094093588
 21
49.70377865349147
 31
0.0
  0
LINE
  5
E1
330
17
100
AcDbEntity
  8
0_ESTACIONAMIENTOS
100
AcDbLine
 10
28.635940062224535
 20
48.18830400332122
 30
0.0
 11
33.55134468752165
 21
47.27244518799664
 31
0.0
  0
LINE
  5
E2
330
17
100
AcDbEntity
  8
0_ESTACIONAMIENTOS
100
AcDbLine
 10
28.1829238088103
 20
45.75697053782642
 30
0.0
 11
33.098328434107415
 21
44.841111722501836
 31
0.0
  0
LINE
  5
E3
330
17
100
AcDbEntity
  8
0_ESTACIONAMIENTOS
  6
DASHED
100
AcDbLine
 10
48.50088105019141
 20
127.50644954932565
 30
0.0
 11
33.098328434107415
 21
44.841111722501836
 31
0.0
  0
LINE
  5
E4
330
17
100
AcDbEntity
  8
0_COTAS_METRICAS
100
AcDbLine
 10
0.0
 20
0.0
 30
0.0
 11
-1.344307394812937
 21
-5.847464204956816
 31
0.0
  0
LINE
  5
E5
330
17
100
AcDbEntity
  8
0_COTAS_METRICAS
100
AcDbLine
 10
99.53471542324405
 20
-22.88261189707555
 30
0.0
 11
98.19040802843111
 21
-28.730076102032363
 31
0.0
  0
LINE
  5
E6
330
17
100
AcDbEntity
  8
0_COTAS_METRICAS
100
AcDbLine
 10
-1.344307394812937
 20
-5.847464204956816
 30
0.0
 11
98.19040802843111
 21
-28.730076102032363
 31
0.0
  0
LINE
  5
E7
330
17
100
AcDbEntity
  8
0_COTAS_METRICAS
100
AcDbLine
 10
-2.244307394812937
 20
-6.747464204956817
 30
0.0
 11
-0.4443073948129369
 21
-4.947464204956816
 31
0.0
  0
LINE
  5
E8
330
17
100
AcDbEntity
  8
0_COTAS_METRICAS
100
AcDbLine
 10
97.2904080284311
 20
-29.630076102032362
 30
0.0
 11
99.09040802843111
 21
-27.830076102032365
 31
0.0
  0
TEXT
  5
E9
330
17
100
AcDbEntity
  8
0_TEXTOS_COTAS
100
AcDbText
 10
48.69191179577167
 20
-16.119277312503225
 30
0.0
 40
1.3
  1
SUR: 101.88 m
 50
-12.947093501613928
 11
48.69191179577167
 21
-16.119277312503225
 31
0.0
100
AcDbText
  0
LINE
  5
EA
330
17
100
AcDbEntity
  8
0_COTAS_METRICAS
100
AcDbLine
 10
99.53471542324405
 20
-22.88261189707555
 30
0.0
 11
93.68876468757023
 21
-21.53173810723632
 31
0.0
  0
LINE
  5
EB
330
17
100
AcDbEntity
  8
0_COTAS_METRICAS
100
AcDbLine
 10
130.3234819502104
 20
110.35678743291646
 30
0.0
 11
124.47753121453658
 21
111.70766122275569
 31
0.0
  0
LINE
  5
EC
330
17
100
AcDbEntity
  8
0_COTAS_METRICAS
100
AcDbLine
 10
93.68876468757023
 20
-21.53173810723632
 30
0.0
 11
124.47753121453658
 21
111.70766122275569
 31
0.0
  0
LINE
  5
ED
330
17
100
AcDbEntity
  8
0_COTAS_METRICAS
100
AcDbLine
 10
92.78876468757022
 20
-22.431738107236317
 30
0.0
 11
94.58876468757023
 21
-20.63173810723632
 31
0.0
  0
LINE
  5
EE
330
17
100
AcDbEntity
  8
0_COTAS_METRICAS
100
AcDbLine
 10
123.57753121453658
 20
110.80766122275568
 30
0.0
 11
125.37753121453659
 21
112.6076612227557
 31
0.0
  0
TEXT
  5
EF
330
17
100
AcDbEntity
  8
0_TEXTOS_COTAS
100
AcDbText
 10
107.91395780391863
 20
45.35813631572753
 30
0.0
 40
1.3
  1
ESTE: 136.42 m
 50
76.98855802807408
 11
107.91395780391863
 21
45.35813631572753
 31
0.0
100
AcDbText
  0
LINE
  5
F0
330
17
100
AcDbEntity
  8
0_COTAS_METRICAS
100
AcDbLine
 10
130.3234819502104
 20
110.35678743291646
 30
0.0
 11
129.12604525733482
 21
104.47748939943023
 31
0.0
  0
LINE
  5
F1
330
17
100
AcDbEntity
  8
0_COTAS_METRICAS
100
AcDbLine
 10
23.774829596164636
 20
132.05755258863792
 30
0.0
 11
22.57739290328904
 21
126.17825455515168
 31
0.0
  0
LINE
  5
F2
330
17
100
AcDbEntity
  8
0_COTAS_METRICAS
100
AcDbLine
 10
129.12604525733482
 20
104.47748939943023
 30
0.0
 11
22.57739290328904
 21
126.17825455515168
 31
0.0
  0
LINE
  5
F3
330
17
100
AcDbEntity
  8
0_COTAS_METRICAS
100
AcDbLine
 10
128.22604525733482
 20
103.57748939943022
 30
0.0
 11
130.02604525733483
 21
105.37748939943023
 31
0.0
  0
LINE
  5
F4
330
17
100
AcDbEntity
  8
0_COTAS_METRICAS
100
AcDbLine
 10
21.677392903289043
 20
125.27825455515168
 30
0.0
 11
23.47739290328904
 21
127.07825455515169
 31
0.0
  0
TEXT
  5
F5
330
17
100
AcDbEntity
  8
0_TEXTOS_COTAS
100
AcDbText
 10
75.61223174173682
 20
114.15201237059371
 30
0.0
 40
1.3
  1
NORTE: 108.47 m
 50
-11.511977614125612
 11
75.61223174173682
 21
114.15201237059371
 31
0.0
100
AcDbText
  0
LINE
  5
F6
330
17
100
AcDbEntity
  8
0_COTAS_METRICAS
100
AcDbLine
 10
23.774829596164636
 20
132.05755258863792
 30
0.0
 11
17.869764505764945
 21
133.12066419056075
 31
0.0
  0
LINE
  5
F7
330
17
100
AcDbEntity
  8
0_COTAS_METRICAS
100
AcDbLine
 10
0.0
 20
0.0
 30
0.0
 11
-5.905065090399691
 21
1.0631116019228144
 31
0.0
  0
LINE
  5
F8
330
17
100
AcDbEntity
  8
0_COTAS_METRICAS
100
AcDbLine
 10
17.869764505764945
 20
133.12066419056075
 30
0.0
 11
-5.905065090399691
 21
1.0631116019228144
 31
0.0
  0
LINE
  5
F9
330
17
100
AcDbEntity
  8
0_COTAS_METRICAS
100
AcDbLine
 10
16.969764505764946
 20
132.22066419056074
 30
0.0
 11
18.769764505764943
 21
134.02066419056075
 31
0.0
  0
LINE
  5
FA
330
17
100
AcDbEntity
  8
0_COTAS_METRICAS
100
AcDbLine
 10
-6.805065090399691
 20
0.16311160192281438
 30
0.0
 11
-5.0050650903996905
 21
1.9631116019228143
 31
0.0
  0
TEXT
  5
FB
330
17
100
AcDbEntity
  8
0_TEXTOS_COTAS
100
AcDbText
 10
7.163362725762564
 20
66.87926557585722
 30
0.0
 40
1.3
  1
OESTE: 133.85 m
 50
79.79414770125962
 11
7.163362725762564
 21
66.87926557585722
 31
0.0
100
AcDbText
  0
LINE
  5
FC
330
17
100
AcDbEntity
  8
0_COTAS_METRICAS
100
AcDbLine
 10
106.62963361176662
 20
115.21466643409804
 30
0.0
 11
105.91196951888666
 21
111.78903390129614
 31
0.0
  0
LINE
  5
FD
330
17
100
AcDbEntity
  8
0_COTAS_METRICAS
100
AcDbLine
 10
43.585476424894296
 20
128.42230836465023
 30
0.0
 11
42.86781233201434
 21
124.99667583184834
 31
0.0
  0
LINE
  5
FE
330
17
100
AcDbEntity
  8
0_COTAS_METRICAS
100
AcDbLine
 10
105.91196951888666
 20
111.78903390129614
 30
0.0
 11
42.86781233201434
 21
124.99667583184834
 31
0.0
  0
LINE
  5
FF
330
17
100
AcDbEntity
  8
0_COTAS_METRICAS
100
AcDbLine
 10
105.01196951888666
 20
110.88903390129613
 30
0.0
 11
106.81196951888667
 21
112.68903390129614
 31
0.0
  0
LINE
  5
100
330
17
100
AcDbEntity
  8
0_COTAS_METRICAS
100
AcDbLine
 10
41.96781233201434
 20
124.09667583184833
 30
0.0
 11
43.76781233201434
 21
125.89667583184834
 31
0.0
  0
TEXT
  5
101
330
17
100
AcDbEntity
  8
0_TEXTOS_COTAS
100
AcDbText
 10
74.14383466503452
 20
117.2183522838973
 30
0.0
 40
1.3
  1
FTE. NORTE: 64.31 m
 50
-11.832243587741516
 11
74.14383466503452
 21
117.2183522838973
 31
0.0
100
AcDbText
  0
LINE
  5
102
330
17
100
AcDbEntity
  8
0_COTAS_METRICAS
100
AcDbLine
 10
28.1829238088103
 20
45.75697053782642
 30
0.0
 11
27.70189039011281
 21
42.290184295483776
 31
0.0
  0
LINE
  5
103
330
17
100
AcDbEntity
  8
0_COTAS_METRICAS
100
AcDbLine
 10
90.07720179914031
 20
37.16883903555572
 30
0.0
 11
89.59616838044282
 21
33.70205279321308
 31
0.0
  0
LINE
  5
104
330
17
100
AcDbEntity
  8
0_COTAS_METRICAS
100
AcDbLine
 10
27.70189039011281
 20
42.290184295483776
 30
0.0
 11
89.59616838044282
 21
33.70205279321308
 31
0.0
  0
LINE
  5
105
330
17
100
AcDbEntity
  8
0_COTAS_METRICAS
100
AcDbLine
 10
26.80189039011281
 20
41.39018429548378
 30
0.0
 11
28.601890390112807
 21
43.190184295483775
 31
0.0
  0
LINE
  5
106
330
17
100
AcDbEntity
  8
0_COTAS_METRICAS
100
AcDbLine
 10
88.69616838044281
 20
32.80205279321308
 30
0.0
 11
90.49616838044282
 21
34.602052793213076
 31
0.0
  0
TEXT
  5
107
330
17
100
AcDbEntity
  8
0_TEXTOS_COTAS
100
AcDbText
 10
58.81395512883124
 20
39.184730970294474
 30
0.0
 40
1.3
  1
FTE. SUR: 62.38 m
 50
-7.899628266081508
 11
58.81395512883124
 21
39.184730970294474
 31
0.0
100
AcDbText
  0
LINE
  5
108
330
17
100
AcDbEntity
  8
0_COTAS_METRICAS
100
AcDbLine
 10
90.07720179914031
 20
37.16883903555572
 30
0.0
 11
93.50104566767888
 21
36.442689489063476
 31
0.0
  0
LINE
  5
109
330
17
100
AcDbEntity
  8
0_COTAS_METRICAS
100
AcDbLine
 10
106.62963361176662
 20
115.21466643409804
 30
0.0
 11
110.05347748030519
 21
114.4885168876058
 31
0.0
  0
LINE
  5
10A
330
17
100
AcDbEntity
  8
0_COTAS_METRICAS
100
AcDbLine
 10
93.50104566767888
 20
36.442689489063476
 30
0.0
 11
110.05347748030519
 21
114.4885168876058
 31
0.0
  0
LINE
  5
10B
330
17
100
AcDbEntity
  8
0_COTAS_METRICAS
100
AcDbLine
 10
92.60104566767887
 20
35.54268948906348
 30
0.0
 11
94.40104566767889
 21
37.342689489063474
 31
0.0
  0
LINE
  5
10C
330
17
100
AcDbEntity
  8
0_COTAS_METRICAS
100
AcDbLine
 10
109.15347748030518
 20
113.58851688760579
 30
0.0
 11
110.9534774803052
 21
115.3885168876058
 31
0.0
  0
TEXT
  5
10D
330
17
100
AcDbEntity
  8
0_TEXTOS_COTAS
100
AcDbText
 10
100.60337224763596
 20
75.71456874713198
 30
0.0
 40
1.3
  1
LAT. ESTE: 79.56 m
 50
78.02579507038938
 11
100.60337224763596
 21
75.71456874713198
 31
0.0
100
AcDbText
  0
LINE
  5
10E
330
17
100
AcDbEntity
  8
0_COTAS_METRICAS
100
AcDbLine
 10
43.585476424894296
 20
128.42230836465023
 30
0.0
 11
37.19545041200805
 21
129.6129248245722
 31
0.0
  0
LINE
  5
10F
330
17
100
AcDbEntity
  8
0_COTAS_METRICAS
100
AcDbLine
 10
28.1829238088103
 20
45.75697053782642
 30
0.0
 11
21.792897795924056
 21
46.94758699774838
 31
0.0
  0
LINE
  5
110
330
17
100
AcDbEntity
  8
0_COTAS_METRICAS
100
AcDbLine
 10
37.19545041200805
 20
129.6129248245722
 30
0.0
 11
21.792897795924056
 21
46.94758699774838
 31
0.0
  0
LINE
  5
111
330
17
100
AcDbEntity
  8
0_COTAS_METRICAS
100
AcDbLine
 10
36.29545041200805
 20
128.71292482457218
 30
0.0
 11
38.09545041200805
 21
130.5129248245722
 31
0.0
  0
LINE
  5
112
330
17
100
AcDbEntity
  8
0_COTAS_METRICAS
100
AcDbLine
 10
20.892897795924057
 20
46.04758699774838
 30
0.0
 11
22.692897795924054
 21
47.84758699774838
 31
0.0
  0
TEXT
  5
113
330
17
100
AcDbEntity
  8
0_TEXTOS_COTAS
100
AcDbText
 10
30.67387121403736
 20
88.06044979548238
 30
0.0
 40
1.3
  1
LAT. OESTE: 83.86 m
 50
79.44543917005666
 11
30.67387121403736
 21
88.06044979548238
 31
0.0
100
AcDbText
  0
LINE
  5
114
330
17
100
AcDbEntity
  8
0_COTAS_METRICAS
100
AcDbLine
 10
43.585476424894296
 20
128.42230836465023
 30
0.0
 11
41.127703346861594
 21
128.87985781213942
 31
0.0
  0
LINE
  5
115
330
17
100
AcDbEntity
  8
0_COTAS_METRICAS
100
AcDbLine
 10
38.455020327703096
 20
100.86354516888969
 30
0.0
 11
35.997247249670394
 21
101.32109461637886
 31
0.0
  0
LINE
  5
116
330
17
100
AcDbEntity
  8
0_COTAS_METRICAS
100
AcDbLine
 10
41.127703346861594
 20
128.87985781213942
 30
0.0
 11
35.997247249670394
 21
101.32109461637886
 31
0.0
  0
LINE
  5
117
330
17
100
AcDbEntity
  8
0_COTAS_METRICAS
100
AcDbLine
 10
40.227703346861595
 20
127.97985781213941
 30
0.0
 11
42.02770334686159
 21
129.77985781213943
 31
0.0
  0
LINE
  5
118
330
17
100
AcDbEntity
  8
0_COTAS_METRICAS
100
AcDbLine
 10
35.097247249670396
 20
100.42109461637885
 30
0.0
 11
36.89724724967039
 21
102.22109461637886
 31
0.0
  0
TEXT
  5
119
330
17
100
AcDbEntity
  8
0_TEXTOS_COTAS
100
AcDbText
 10
39.74220637572169
 20
114.88085247946434
 30
0.0
 40
1.3
  1
C01: 27.95 m
 50
79.45429695593859
 11
39.74220637572169
 21
114.88085247946434
 31
0.0
100
AcDbText
  0
LINE
  5
11A
330
17
100
AcDbEntity
  8
0_COTAS_METRICAS
100
AcDbLine
 10
38.455020327703096
 20
100.86354516888969
 30
0.0
 11
35.99745918538165
 21
101.32223158873632
 31
0.0
  0
LINE
  5
11B
330
17
100
AcDbEntity
  8
0_COTAS_METRICAS
100
AcDbLine
 10
33.31341432163026
 20
73.31572473444976
 30
0.0
 11
30.855853179308816
 21
73.77441115429639
 31
0.0
  0
LINE
  5
11C
330
17
100
AcDbEntity
  8
0_COTAS_METRICAS
100
AcDbLine
 10
35.99745918538165
 20
101.32223158873632
 30
0.0
 11
30.855853179308816
 21
73.77441115429639
 31
0.0
  0
LINE
  5
11D
330
17
100
AcDbEntity
  8
0_COTAS_METRICAS
100
AcDbLine
 10
35.09745918538165
 20
100.42223158873631
 30
0.0
 11
36.89745918538165
 21
102.22223158873632
 31
0.0
  0
LINE
  5
11E
330
17
100
AcDbEntity
  8
0_COTAS_METRICAS
100
AcDbLine
 10
29.955853179308818
 20
72.87441115429638
 30
0.0
 11
31.755853179308815
 21
74.6744111542964
 31
0.0
  0
TEXT
  5
11F
330
17
100
AcDbEntity
  8
0_TEXTOS_COTAS
100
AcDbText
 10
34.60628553065953
 20
87.32815188998997
 30
0.0
 40
1.3
  1
C02: 27.95 m
 50
79.42779063371387
 11
34.60628553065953
 21
87.32815188998997
 31
0.0
100
AcDbText
  0
LINE
  5
120
330
17
100
AcDbEntity
  8
0_COTAS_METRICAS
100
AcDbLine
 10
33.31341432163026
 20
73.31572473444976
 30
0.0
 11
30.855641822735002
 21
73.77327729282328
 31
0.0
  0
LINE
  5
121
330
17
100
AcDbEntity
  8
0_COTAS_METRICAS
100
AcDbLine
 10
28.1829238088103
 20
45.75697053782642
 30
0.0
 11
25.72515130991504
 21
46.21452309619994
 31
0.0
  0
LINE
  5
122
330
17
100
AcDbEntity
  8
0_COTAS_METRICAS
100
AcDbLine
 10
30.855641822735002
 20
73.77327729282328
 30
0.0
 11
25.72515130991504
 21
46.21452309619994
 31
0.0
  0
LINE
  5
123
330
17
100
AcDbEntity
  8
0_COTAS_METRICAS
100
AcDbLine
 10
29.955641822735004
 20
72.87327729282327
 30
0.0
 11
31.755641822735
 21
74.67327729282329
 31
0.0
  0
LINE
  5
124
330
17
100
AcDbEntity
  8
0_COTAS_METRICAS
100
AcDbLine
 10
24.825151309915043
 20
45.31452309619994
 30
0.0
 11
26.62515130991504
 21
47.11452309619994
 31
0.0
  0
TEXT
  5
125
330
17
100
AcDbEntity
  8
0_TEXTOS_COTAS
100
AcDbText
 10
29.470127365794745
 20
59.77427496649232
 30
0.0
 40
1.3
  1
C03: 27.96 m
 50
79.45422443477463
 11
29.470127365794745
 21
59.77427496649232
 31
0.0
100
AcDbText
  0
LINE
  5
126
330
17
100
AcDbEntity
  8
0_COTAS_METRICAS
100
AcDbLine
 10
38.455020327703096
 20
100.86354516888969
 30
0.0
 11
38.82091494333763
 21
102.8297906088716
 31
0.0
  0
LINE
  5
127
330
17
100
AcDbEntity
  8
0_COTAS_METRICAS
100
AcDbLine
 10
101.11578347010072
 20
89.20313117420301
 30
0.0
 11
101.48167808573525
 21
91.16937661418493
 31
0.0
  0
LINE
  5
128
330
17
100
AcDbEntity
  8
0_COTAS_METRICAS
100
AcDbLine
 10
38.82091494333763
 20
102.8297906088716
 30
0.0
 11
101.48167808573525
 21
91.16937661418493
 31
0.0
  0
LINE
  5
129
330
17
100
AcDbEntity
  8
0_COTAS_METRICAS
100
AcDbLine
 10
37.92091494333763
 20
101.9297906088716
 30
0.0
 11
39.720914943337625
 21
103.72979060887161
 31
0.0
  0
LINE
  5
12A
330
17
100
AcDbEntity
  8
0_COTAS_METRICAS
100
AcDbLine
 10
100.58167808573525
 20
90.26937661418492
 30
0.0
 11
102.38167808573526
 21
92.06937661418493
 31
0.0
  0
TEXT
  5
12B
330
17
100
AcDbEntity
  8
0_TEXTOS_COTAS
100
AcDbText
 10
70.37083328391716
 20
98.17933087551741
 30
0.0
 40
1.3
  1
DIVISORIA 1 (C01/C02): 63.13 m
 50
-10.541479439969816
 11
70.37083328391716
 21
98.17933087551741
 31
0.0
100
AcDbText
  0
LINE
  5
12C
330
17
100
AcDbEntity
  8
0_COTAS_METRICAS
100
AcDbLine
 10
33.31341432163026
 20
73.31572473444976
 30
0.0
 11
33.63467703620192
 21
75.28975367755724
 31
0.0
  0
LINE
  5
12D
330
17
100
AcDbEntity
  8
0_COTAS_METRICAS
100
AcDbLine
 10
95.59108440880664
 20
63.18036505836062
 30
0.0
 11
95.9123471233783
 21
65.1543940014681
 31
0.0
  0
LINE
  5
12E
330
17
100
AcDbEntity
  8
0_COTAS_METRICAS
100
AcDbLine
 10
33.63467703620192
 20
75.28975367755724
 30
0.0
 11
95.9123471233783
 21
65.1543940014681
 31
0.0
  0
LINE
  5
12F
330
17
100
AcDbEntity
  8
0_COTAS_METRICAS
100
AcDbLine
 10
32.73467703620192
 20
74.38975367755724
 30
0.0
 11
34.53467703620192
 21
76.18975367755725
 31
0.0
  0
LINE
  5
130
330
17
100
AcDbEntity
  8
0_COTAS_METRICAS
100
AcDbLine
 10
95.01234712337829
 20
64.2543940014681
 30
0.0
 11
96.8123471233783
 21
66.05439400146811
 31
0.0
  0
TEXT
  5
131
330
17
100
AcDbEntity
  8
0_TEXTOS_COTAS
100
AcDbText
 10
64.9662697085331
 20
71.40649120537716
 30
0.0
 40
1.3
  1
DIVISORIA 2 (C02/C03): 62.56 m
 50
-9.243544344196897
 11
64.9662697085331
 21
71.40649120537716
 31
0.0
100
AcDbText
  0
TEXT
  5
132
330
17
100
AcDbEntity
  8
0_TEXTOS_COTAS
100
AcDbText
 10
1.5854764248942956
 20
108.42230836465023
 30
0.0
 40
1.3
  1
PASILLO OESTE: 20.00 m (AV. DE SERVICIO: GANDOLAS + ESTACIONAMIENTO 90° ~35 PUESTOS)
 11
1.5854764248942956
 21
108.42230836465023
 31
0.0
100
AcDbText
  0
TEXT
  5
133
330
17
100
AcDbEntity
  8
0_TEXTOS_COTAS
100
AcDbText
 10
18.1829238088103
 20
33.75697053782642
 30
0.0
 40
1.3
  1
PATIO SUR: 20.00 m (MANIOBRA Y CARGA PESADA REPUESTOS DE ORIENTE)
 11
18.1829238088103
 21
33.75697053782642
 31
0.0
100
AcDbText
  0
TEXT
  5
134
330
17
100
AcDbEntity
  8
0_TEXTOS_COTAS
100
AcDbText
 10
111.62963361176662
 20
95.21466643409804
 30
0.0
 40
1.3
  1
PASILLO ESTE: 23.80 m (TRÁNSITO, RETORNO Y ESTACIONAMIENTO CLIENTES)
 11
111.62963361176662
 21
95.21466643409804
 31
0.0
100
AcDbText
  0
TEXT
  5
135
330
17
100
AcDbEntity
  8
0_TEXTOS_COTAS
100
AcDbText
 10
71.62963361176662
 20
123.21466643409804
 30
0.0
 40
1.3
  1
RETIRO NORTE: 23.86 m (ESTACIONAMIENTO CLIENTES / ACCESO)
 11
71.62963361176662
 21
123.21466643409804
 31
0.0
100
AcDbText
  0
LINE
  5
136
330
17
100
AcDbEntity
  8
0_CIRCULACION_GANDOLAS
370
50
100
AcDbLine
 10
31.585476424894296
 20
118.42230836465023
 30
0.0
 11
16.1829238088103
 21
55.75697053782642
 31
0.0
  0
LINE
  5
137
330
17
100
AcDbEntity
  8
0_CIRCULACION_GANDOLAS
370
50
100
AcDbLine
 10
16.1829238088103
 20
55.75697053782642
 30
0.0
 11
18.183642449537718
 21
58.869385182542935
 31
0.0
  0
LINE
  5
138
330
17
100
AcDbEntity
  8
0_CIRCULACION_GANDOLAS
370
50
100
AcDbLine
 10
16.1829238088103
 20
55.75697053782642
 30
0.0
 11
15.853010404182445
 21
59.44223269206278
 31
0.0
  0
LINE
  5
139
330
17
100
AcDbEntity
  8
0_CIRCULACION_GANDOLAS
370
50
100
AcDbLine
 10
36.1829238088103
 20
37.75697053782642
 30
0.0
 11
80.07720179914031
 21
29.16883903555572
 31
0.0
  0
LINE
  5
13A
330
17
100
AcDbEntity
  8
0_CIRCULACION_GANDOLAS
370
50
100
AcDbLine
 10
80.07720179914031
 20
29.16883903555572
 30
0.0
 11
76.87274632917502
 21
31.018559322790935
 31
0.0
  0
LINE
  5
13B
330
17
100
AcDbEntity
  8
0_CIRCULACION_GANDOLAS
370
50
100
AcDbLine
 10
80.07720179914031
 20
29.16883903555572
 30
0.0
 11
76.41191224157271
 21
28.66321817049394
 31
0.0
  0
LINE
  5
13C
330
17
100
AcDbEntity
  8
0_CIRCULACION_GANDOLAS
370
50
100
AcDbLine
 10
102.07720179914031
 20
47.16883903555572
 30
0.0
 11
118.62963361176662
 21
105.21466643409804
 31
0.0
  0
LINE
  5
13D
330
17
100
AcDbEntity
  8
0_CIRCULACION_GANDOLAS
370
50
100
AcDbLine
 10
118.62963361176662
 20
105.21466643409804
 30
0.0
 11
116.51583302106982
 21
102.17791701032763
 31
0.0
  0
LINE
  5
13E
330
17
100
AcDbEntity
  8
0_CIRCULACION_GANDOLAS
370
50
100
AcDbLine
 10
118.62963361176662
 20
105.21466643409804
 30
0.0
 11
118.82382724027204
 21
101.519766051862
 31
0.0
  0
LINE
  5
13F
330
17
100
AcDbEntity
  8
0_CIRCULACION_GANDOLAS
370
50
100
AcDbLine
 10
114.62963361176662
 20
125.21466643409804
 30
0.0
 11
91.62963361176662
 21
127.21466643409804
 31
0.0
  0
LINE
  5
140
330
17
100
AcDbEntity
  8
0_CIRCULACION_GANDOLAS
370
50
100
AcDbLine
 10
91.62963361176662
 20
127.21466643409804
 30
0.0
 11
95.0125201308137
 21
125.71597407098626
 31
0.0
  0
LINE
  5
141
330
17
100
AcDbEntity
  8
0_CIRCULACION_GANDOLAS
370
50
100
AcDbLine
 10
91.62963361176662
 20
127.21466643409804
 30
0.0
 11
95.22043121008932
 21
128.10695148265592
 31
0.0
  0
LINE
  5
142
330
17
100
AcDbEntity
  8
0_CIRCULACION_GANDOLAS
370
50
100
AcDbLine
 10
91.62963361176662
 20
127.21466643409804
 30
0.0
 11
53.585476424894296
 21
55.585476424894296
 31
0.0
  0
LINE
  5
143
330
17
100
AcDbEntity
  8
0_CIRCULACION_GANDOLAS
370
50
100
AcDbLine
 10
53.585476424894296
 20
55.585476424894296
 30
0.0
 11
56.28701496836636
 21
58.113655512327554
 31
0.0
  0
LINE
  5
144
330
17
100
AcDbEntity
  8
0_CIRCULACION_GANDOLAS
370
50
100
AcDbLine
 10
53.585476424894296
 20
55.585476424894296
 30
0.0
 11
54.167428749254675
 21
59.239423809870104
 31
0.0
  0
TEXT
  5
145
330
17
100
AcDbEntity
  8
0_CUADRO_TECNICO
100
AcDbText
 10
-30.0
 20
-62.88261189707555
 30
0.0
 40
1.4
  1
=========================================================================================
 11
-30.0
 21
-62.88261189707555
 31
0.0
100
AcDbText
  0
TEXT
  5
146
330
17
100
AcDbEntity
  8
0_CUADRO_TECNICO
100
AcDbText
 10
-30.0
 20
-65.48261189707554
 30
0.0
 40
1.4
  1
PROYECTO: CENTRO COMERCIAL MARIO SANCHEZ - PLANO TOPOGRAFICO Y SUBDIVISION
 11
-30.0
 21
-65.48261189707554
 31
0.0
100
AcDbText
  0
TEXT
  5
147
330
17
100
AcDbEntity
  8
0_CUADRO_TECNICO
100
AcDbText
 10
-30.0
 20
-68.08261189707555
 30
0.0
 40
1.4
  1
PLANO: LEVANTAMIENTO TOPOGRAFICO Y SUBDIVISION EN TRES (3) MACRO-LOTES COMERCIALES
 11
-30.0
 21
-68.08261189707555
 31
0.0
100
AcDbText
  0
TEXT
  5
148
330
17
100
AcDbEntity
  8
0_CUADRO_TECNICO
100
AcDbText
 10
-30.0
 20
-70.68261189707555
 30
0.0
 40
1.4
  1
UBICACION: AV. INTERCOMUNAL JORGE RODRIGUEZ / AV. MUNICIPAL, PUERTO LA CRUZ, ANZOATEGUI
 11
-30.0
 21
-70.68261189707555
 31
0.0
100
AcDbText
  0
TEXT
  5
149
330
17
100
AcDbEntity
  8
0_CUADRO_TECNICO
100
AcDbText
 10
-30.0
 20
-73.28261189707555
 30
0.0
 40
1.4
  1
SISTEMA DE COORDENADAS: SISTEMA LOCAL RELATIVO P1 (0,0) - PLANO TOPOGRÁFICO Y SUBDIVISIÓN
 11
-30.0
 21
-73.28261189707555
 31
0.0
100
AcDbText
  0
TEXT
  5
14A
330
17
100
AcDbEntity
  8
0_CUADRO_TECNICO
100
AcDbText
 10
-30.0
 20
-75.88261189707555
 30
0.0
 40
1.4
  1
AREA GENERAL DEL TERRENO: 14.207,00 m2 (1,421 Ha) | PERIMETRO: 480,62 m
 11
-30.0
 21
-75.88261189707555
 31
0.0
100
AcDbText
  0
TEXT
  5
14B
330
17
100
AcDbEntity
  8
0_CUADRO_TECNICO
100
AcDbText
 10
-30.0
 20
-78.48261189707554
 30
0.0
 40
1.4
  1
AREA HUELLA CENTRAL COMERCIAL: 5.189,67 m2 (100%) | PERIMETRO: 290,11 m
 11
-30.0
 21
-78.48261189707554
 31
0.0
100
AcDbText
  0
TEXT
  5
14C
330
17
100
AcDbEntity
  8
0_CUADRO_TECNICO
100
AcDbText
 10
-30.0
 20
-81.08261189707555
 30
0.0
 40
1.4
  1
-----------------------------------------------------------------------------------------
 11
-30.0
 21
-81.08261189707555
 31
0.0
100
AcDbText
  0
TEXT
  5
14D
330
17
100
AcDbEntity
  8
0_CUADRO_TECNICO
100
AcDbText
 10
-30.0
 20
-83.68261189707555
 30
0.0
 40
1.4
  1
CUADRO DE SUBDIVISION DE LA HUELLA CENTRAL:
 11
-30.0
 21
-83.68261189707555
 31
0.0
100
AcDbText
  0
TEXT
  5
14E
330
17
100
AcDbEntity
  8
0_CUADRO_TECNICO
100
AcDbText
 10
-30.0
 20
-86.28261189707555
 30
0.0
 40
1.4
  1
  - LOT-C01 (NORTE):  1.730,00 m2 | FTE. VIAL OESTE: 27.95 m | RETAIL / SHOWROOM
 11
-30.0
 21
-86.28261189707555
 31
0.0
100
AcDbText
  0
TEXT
  5
14F
330
17
100
AcDbEntity
  8
0_CUADRO_TECNICO
100
AcDbText
 10
-30.0
 20
-88.88261189707555
 30
0.0
 40
1.4
  1
  - LOT-C02 (CENTRO): 1.730,00 m2 | FTE. VIAL OESTE: 27.95 m | LOGISTICA Y DISTRIBUCION
 11
-30.0
 21
-88.88261189707555
 31
0.0
100
AcDbText
  0
TEXT
  5
150
330
17
100
AcDbEntity
  8
0_CUADRO_TECNICO
100
AcDbText
 10
-30.0
 20
-91.48261189707554
 30
0.0
 40
1.4
  1
  - LOT-C03 (SUR):    1.730,00 m2 | FTE. VIAL OESTE: 27.96 m | TALLER / PATIO CARGA PESADA
 11
-30.0
 21
-91.48261189707554
 31
0.0
100
AcDbText
  0
TEXT
  5
151
330
17
100
AcDbEntity
  8
0_CUADRO_TECNICO
100
AcDbText
 10
-30.0
 20
-94.08261189707555
 30
0.0
 40
1.4
  1
-----------------------------------------------------------------------------------------
 11
-30.0
 21
-94.08261189707555
 31
0.0
100
AcDbText
  0
TEXT
  5
152
330
17
100
AcDbEntity
  8
0_CUADRO_TECNICO
100
AcDbText
 10
-30.0
 20
-96.68261189707556
 30
0.0
 40
1.4
  1
PARAMETROS DE LOGISTICA Y VIALIDAD:
 11
-30.0
 21
-96.68261189707556
 31
0.0
100
AcDbText
  0
TEXT
  5
153
330
17
100
AcDbEntity
  8
0_CUADRO_TECNICO
100
AcDbText
 10
-30.0
 20
-99.28261189707555
 30
0.0
 40
1.4
  1
  - PASILLO OESTE: 20.00 m LIBRES (AV. SERVICIO GANDOLAS + BATERIA ESTAC. 90° ~35 PUESTOS)
 11
-30.0
 21
-99.28261189707555
 31
0.0
100
AcDbText
  0
TEXT
  5
154
330
17
100
AcDbEntity
  8
0_CUADRO_TECNICO
100
AcDbText
 10
-30.0
 20
-101.88261189707555
 30
0.0
 40
1.4
  1
  - PATIO SUR: 20.00 m LIBRES (MANIOBRA Y DESCARGA REPUESTOS DE ORIENTE)
 11
-30.0
 21
-101.88261189707555
 31
0.0
100
AcDbText
  0
TEXT
  5
155
330
17
100
AcDbEntity
  8
0_CUADRO_TECNICO
100
AcDbText
 10
-30.0
 20
-104.48261189707554
 30
0.0
 40
1.4
  1
  - RETIRO NORTE: 23.86 m (ACCESO & ESTACIONAMIENTO CLIENTES)
 11
-30.0
 21
-104.48261189707554
 31
0.0
100
AcDbText
  0
TEXT
  5
156
330
17
100
AcDbEntity
  8
0_CUADRO_TECNICO
100
AcDbText
 10
-30.0
 20
-107.08261189707555
 30
0.0
 40
1.4
  1
  - PASILLO ESTE: 23.80 m (RETORNO Y TRANSITO PESADO)
 11
-30.0
 21
-107.08261189707555
 31
0.0
100
AcDbText
  0
TEXT
  5
157
330
17
100
AcDbEntity
  8
0_CUADRO_TECNICO
100
AcDbText
 10
-30.0
 20
-109.68261189707556
 30
0.0
 40
1.4
  1
  - SENTIDO DE CIRCULACION: HORARIO OBLIGATORIO PARA GANDOLAS
 11
-30.0
 21
-109.68261189707556
 31
0.0
100
AcDbText
  0
TEXT
  5
158
330
17
100
AcDbEntity
  8
0_CUADRO_TECNICO
100
AcDbText
 10
-30.0
 20
-112.28261189707555
 30
0.0
 40
1.4
  1
FECHA: 04/09/2026 | ESCALA: 1:1.000 | LAMINA: 01/01 | REVISION: R-03 (TRIPLE SUBDIVISION)
 11
-30.0
 21
-112.28261189707555
 31
0.0
100
AcDbText
  0
TEXT
  5
159
330
17
100
AcDbEntity
  8
0_CUADRO_TECNICO
100
AcDbText
 10
-30.0
 20
-114.88261189707555
 30
0.0
 40
1.4
  1
-----------------------------------------------------------------------------------------
 11
-30.0
 21
-114.88261189707555
 31
0.0
100
AcDbText
  0
TEXT
  5
15A
330
17
100
AcDbEntity
  8
0_CUADRO_TECNICO
100
AcDbText
 10
-30.0
 20
-117.48261189707554
 30
0.0
 40
1.4
  1
RESPONSABLE TECNICO:
 11
-30.0
 21
-117.48261189707554
 31
0.0
100
AcDbText
  0
TEXT
  5
15B
330
17
100
AcDbEntity
  8
0_CUADRO_TECNICO
100
AcDbText
 10
-30.0
 20
-120.08261189707555
 30
0.0
 40
1.4
  1
Ing. Freddy Rodriguez Perez
 11
-30.0
 21
-120.08261189707555
 31
0.0
100
AcDbText
  0
TEXT
  5
15C
330
17
100
AcDbEntity
  8
0_CUADRO_TECNICO
100
AcDbText
 10
-30.0
 20
-122.68261189707556
 30
0.0
 40
1.4
  1
Ingenieria de Proyectos & Control
 11
-30.0
 21
-122.68261189707556
 31
0.0
100
AcDbText
  0
TEXT
  5
15D
330
17
100
AcDbEntity
  8
0_CUADRO_TECNICO
100
AcDbText
 10
-30.0
 20
-125.28261189707555
 30
0.0
 40
1.4
  1
=========================================================================================
 11
-30.0
 21
-125.28261189707555
 31
0.0
100
AcDbText
  0
ENDSEC
  0
SECTION
  2
OBJECTS
  0
DICTIONARY
  5
A
330
0
100
AcDbDictionary
281
1
  3
ACAD_COLOR
350
B
  3
ACAD_GROUP
350
C
  3
ACAD_LAYOUT
350
D
  3
ACAD_MATERIAL
350
E
  3
ACAD_MLEADERSTYLE
350
F
  3
ACAD_MLINESTYLE
350
10
  3
ACAD_PLOTSETTINGS
350
11
  3
ACAD_PLOTSTYLENAME
350
12
  3
ACAD_SCALELIST
350
14
  3
ACAD_TABLESTYLE
350
15
  3
ACAD_VISUALSTYLE
350
16
  3
EZDXF_META
350
2D
  0
DICTIONARY
  5
B
330
A
100
AcDbDictionary
281
1
  0
DICTIONARY
  5
C
330
A
100
AcDbDictionary
281
1
  0
DICTIONARY
  5
D
330
A
100
AcDbDictionary
281
1
  3
Model
350
1A
  3
Layout1
350
1E
  0
DICTIONARY
  5
E
330
A
100
AcDbDictionary
281
1
  3
ByBlock
350
1F
  3
ByLayer
350
20
  3
Global
350
21
  0
DICTIONARY
  5
F
330
A
100
AcDbDictionary
281
1
  3
Standard
350
2C
  0
DICTIONARY
  5
10
330
A
100
AcDbDictionary
281
1
  3
Standard
350
22
  0
DICTIONARY
  5
11
330
A
100
AcDbDictionary
281
1
  0
ACDBDICTIONARYWDFLT
  5
12
330
A
100
AcDbDictionary
281
1
  3
Normal
350
13
100
AcDbDictionaryWithDefault
340
13
  0
ACDBPLACEHOLDER
  5
13
330
12
  0
DICTIONARY
  5
14
330
A
100
AcDbDictionary
281
1
  0
DICTIONARY
  5
15
330
A
100
AcDbDictionary
281
1
  0
DICTIONARY
  5
16
330
A
100
AcDbDictionary
281
1
  3
2dWireframe
350
5A
  3
Basic
350
5B
  3
Brighten
350
5C
  3
ColorChange
350
5D
  3
Conceptual
350
5E
  3
Dim
350
5F
  3
EdgeColorOff
350
60
  3
Facepattern
350
61
  3
Flat
350
62
  3
FlatWithEdges
350
63
  3
Gouraud
350
64
  3
GouraudWithEdges
350
65
  3
Hidden
350
66
  3
JitterOff
350
67
  3
Linepattern
350
68
  3
Modeling
350
69
  3
OverhangOff
350
6A
  3
Realistic
350
6B
  3
Shaded
350
6C
  3
Shaded with edges
350
6D
  3
Shades of Gray
350
6E
  3
Sketchy
350
6F
  3
Thicken
350
70
  3
Wireframe
350
71
  3
X-Ray
350
72
  0
LAYOUT
  5
1A
330
D
100
AcDbPlotSettings
  1

  4
A3
  6

 40
7.5
 41
20.0
 42
7.5
 43
20.0
 44
420.0
 45
297.0
 46
0.0
 47
0.0
 48
0.0
 49
0.0
140
0.0
141
0.0
142
1.0
143
1.0
 70
1024
 72
1
 73
0
 74
5
  7

 75
16
 76
0
 77
2
 78
300
147
1.0
148
0.0
149
0.0
100
AcDbLayout
  1
Model
 70
1
 71
0
 10
0.0
 20
0.0
 11
420.0
 21
297.0
 12
0.0
 22
0.0
 32
0.0
 14
1e+20
 24
1e+20
 34
1e+20
 15
-1e+20
 25
-1e+20
 35
-1e+20
146
0.0
 13
0.0
 23
0.0
 33
0.0
 16
1.0
 26
0.0
 36
0.0
 17
0.0
 27
1.0
 37
0.0
 76
1
330
17
  0
LAYOUT
  5
1E
330
D
100
AcDbPlotSettings
  1

  4
A3
  6

 40
7.5
 41
20.0
 42
7.5
 43
20.0
 44
420.0
 45
297.0
 46
0.0
 47
0.0
 48
0.0
 49
0.0
140
0.0
141
0.0
142
1.0
143
1.0
 70
0
 72
1
 73
0
 74
5
  7

 75
16
 76
0
 77
2
 78
300
147
1.0
148
0.0
149
0.0
100
AcDbLayout
  1
Layout1
 70
1
 71
1
 10
0.0
 20
0.0
 11
420.0
 21
297.0
 12
0.0
 22
0.0
 32
0.0
 14
1e+20
 24
1e+20
 34
1e+20
 15
-1e+20
 25
-1e+20
 35
-1e+20
146
0.0
 13
0.0
 23
0.0
 33
0.0
 16
1.0
 26
0.0
 36
0.0
 17
0.0
 27
1.0
 37
0.0
 76
1
330
1B
  0
MATERIAL
  5
1F
102
{ACAD_REACTORS
330
E
102
}
330
E
100
AcDbMaterial
  1
ByBlock
  2

 70
0
 40
1.0
 71
1
 41
1.0
 91
-1023410177
 42
1.0
 72
1
  3

 73
1
 74
1
 75
1
 44
0.5
 73
0
 45
1.0
 46
1.0
 77
1
  4

 78
1
 79
1
170
1
 48
1.0
171
1
  6

172
1
173
1
174
1
140
1.0
141
1.0
175
1
  7

176
1
177
1
178
1
143
1.0
179
1
  8

270
1
271
1
272
1
145
1.0
146
1.0
273
1
  9

274
1
275
1
276
1
 42
1.0
 72
1
  3

 73
1
 74
1
 75
1
 94
63
  0
MATERIAL
  5
20
102
{ACAD_REACTORS
330
E
102
}
330
E
100
AcDbMaterial
  1
ByLayer
  2

 70
0
 40
1.0
 71
1
 41
1.0
 91
-1023410177
 42
1.0
 72
1
  3

 73
1
 74
1
 75
1
 44
0.5
 73
0
 45
1.0
 46
1.0
 77
1
  4

 78
1
 79
1
170
1
 48
1.0
171
1
  6

172
1
173
1
174
1
140
1.0
141
1.0
175
1
  7

176
1
177
1
178
1
143
1.0
179
1
  8

270
1
271
1
272
1
145
1.0
146
1.0
273
1
  9

274
1
275
1
276
1
 42
1.0
 72
1
  3

 73
1
 74
1
 75
1
 94
63
  0
MATERIAL
  5
21
102
{ACAD_REACTORS
330
E
102
}
330
E
100
AcDbMaterial
  1
Global
  2

 70
0
 40
1.0
 71
1
 41
1.0
 91
-1023410177
 42
1.0
 72
1
  3

 73
1
 74
1
 75
1
 44
0.5
 73
0
 45
1.0
 46
1.0
 77
1
  4

 78
1
 79
1
170
1
 48
1.0
171
1
  6

172
1
173
1
174
1
140
1.0
141
1.0
175
1
  7

176
1
177
1
178
1
143
1.0
179
1
  8

270
1
271
1
272
1
145
1.0
146
1.0
273
1
  9

274
1
275
1
276
1
 42
1.0
 72
1
  3

 73
1
 74
1
 75
1
 94
63
  0
MLINESTYLE
  5
22
102
{ACAD_REACTORS
330
10
102
}
330
10
100
AcDbMlineStyle
  2
Standard
 70
0
  3

 62
256
 51
90.0
 52
90.0
 71
2
 49
0.5
 62
256
  6
BYLAYER
 49
-0.5
 62
256
  6
BYLAYER
  0
MLEADERSTYLE
  5
2C
102
{ACAD_REACTORS
330
F
102
}
330
F
100
AcDbMLeaderStyle
179
2
170
2
171
1
172
0
 90
2
 40
0.0
 41
0.0
173
1
 91
-1056964608
 92
-2
290
1
 42
2.0
291
1
 43
8.0
  3
Standard
 44
4.0
300

342
29
174
1
175
1
176
0
178
1
 93
-1056964608
 45
4.0
292
0
297
0
 46
4.0
 94
-1056964608
 47
1.0
 49
1.0
140
1.0
294
1
141
0.0
177
0
142
1.0
295
0
296
0
143
3.75
271
0
272
9
273
9
  0
DICTIONARY
  5
2D
330
A
100
AcDbDictionary
280
1
281
1
  3
CREATED_BY_EZDXF
350
2E
  3
WRITTEN_BY_EZDXF
350
160
  0
DICTIONARYVAR
  5
2E
330
2D
100
DictionaryVariables
280
0
  1
1.4.4 @ 2026-09-05T02:00:56.034542+00:00
  0
VISUALSTYLE
  5
5A
102
{ACAD_REACTORS
330
16
102
}
330
16
100
AcDbVisualStyle
  2
2dWireframe
 70
4
177
3
291
0
 70
58
 90
2
176
1
 90
2
176
1
 90
0
176
1
 90
0
176
1
 40
0.6
176
1
 40
30.0
176
1
 62
7
420
16777215
176
1
 90
1
176
1
 90
4
176
1
 62
7
176
1
 62
257
176
1
 90
1
176
1
 90
1
176
1
 40
1.0
176
1
 90
8
176
1
 62
7
176
1
 40
1.0
176
1
 90
1
176
1
 90
6
176
1
 90
2
176
1
 62
7
176
1
 90
5
176
1
 90
0
176
1
 90
0
176
1
290
0
176
1
 90
1
176
1
 40
0.0
176
1
 90
0
176
1
290
1
176
1
290
1
176
1
290
0
176
1
290
0
176
1
290
0
176
1
290
0
176
1
290
0
176
1
290
0
176
1
290
0
176
1
 90
50
176
1
 40
0.0
176
1
 40
1.0
176
1
 90
0
176
1
 62
18
420
0
176
1
 90
50
176
1
 90
3
176
1
 62
5
420
255
176
1
290
0
176
1
 90
50
176
1
 90
50
176
1
 90
50
176
1
290
0
176
1
 90
50
176
1
 62
256
176
0
 40
1.0
176
0
 90
2
176
1
  1
strokes_ogs.tif
176
1
290
0
176
1
 40
1.0
176
1
 40
1.0
176
1
  0
VISUALSTYLE
  5
5B
102
{ACAD_REACTORS
330
16
102
}
330
16
100
AcDbVisualStyle
  2
Basic
 70
7
177
3
291
1
 70
58
 90
2
176
1
 90
2
176
1
 90
0
176
1
 90
1
176
1
 40
0.6
176
1
 40
30.0
176
1
 62
7
420
16777215
176
1
 90
1
176
1
 90
4
176
1
 62
7
176
1
 62
257
176
1
 90
1
176
1
 90
1
176
1
 40
1.0
176
1
 90
8
176
1
 62
7
176
1
 40
1.0
176
1
 90
1
176
1
 90
6
176
1
 90
2
176
1
 62
7
176
1
 90
5
176
1
 90
0
176
1
 90
0
176
1
290
0
176
1
 90
1
176
1
 40
0.0
176
1
 90
0
176
1
290
0
176
1
290
1
176
1
290
1
176
1
290
0
176
1
290
0
176
1
290
0
176
1
290
0
176
1
290
0
176
1
290
0
176
1
 90
50
176
1
 40
0.0
176
1
 40
1.0
176
1
 90
0
176
1
 62
18
420
0
176
1
 90
50
176
1
 90
3
176
1
 62
5
420
255
176
1
290
0
176
1
 90
50
176
1
 90
50
176
1
 90
50
176
1
290
0
176
1
 90
50
176
1
 62
256
176
0
 40
1.0
176
0
 90
2
176
1
  1
strokes_ogs.tif
176
1
290
0
176
1
 40
1.0
176
1
 40
1.0
176
1
  0
VISUALSTYLE
  5
5C
102
{ACAD_REACTORS
330
16
102
}
330
16
100
AcDbVisualStyle
  2
Brighten
 70
12
177
3
291
1
 70
58
 90
2
176
1
 90
2
176
1
 90
0
176
1
 90
2
176
1
 40
0.6
176
1
 40
30.0
176
1
 62
7
420
16777215
176
1
 90
1
176
1
 90
4
176
1
 62
7
176
1
 62
257
176
1
 90
1
176
1
 90
1
176
1
 40
1.0
176
1
 90
8
176
1
 62
7
176
1
 40
1.0
176
1
 90
1
176
1
 90
6
176
1
 90
2
176
1
 62
7
176
1
 90
5
176
1
 90
0
176
1
 90
0
176
1
290
0
176
1
 90
1
176
1
 40
0.0
176
1
 90
0
176
1
290
0
176
1
290
1
176
1
290
1
176
1
290
0
176
1
290
0
176
1
290
0
176
1
290
0
176
1
290
0
176
1
290
0
176
1
 90
50
176
1
 40
0.0
176
1
 40
1.0
176
1
 90
0
176
1
 62
18
420
0
176
1
 90
50
176
1
 90
3
176
1
 62
5
420
255
176
1
290
0
176
1
 90
50
176
1
 90
50
176
1
 90
50
176
1
290
0
176
1
 90
50
176
1
 62
256
176
0
 40
1.0
176
0
 90
2
176
1
  1
strokes_ogs.tif
176
1
290
0
176
1
 40
1.0
176
1
 40
1.0
176
1
  0
VISUALSTYLE
  5
5D
102
{ACAD_REACTORS
330
16
102
}
330
16
100
AcDbVisualStyle
  2
ColorChange
 70
16
177
3
291
1
 70
58
 90
2
176
1
 90
2
176
1
 90
0
176
1
 90
2
176
1
 40
0.6
176
1
 40
30.0
176
1
 62
7
420
16777215
176
1
 90
1
176
1
 90
4
176
1
 62
7
176
1
 62
257
176
1
 90
1
176
1
 90
1
176
1
 40
1.0
176
1
 90
8
176
1
 62
7
176
1
 40
1.0
176
1
 90
1
176
1
 90
6
176
1
 90
2
176
1
 62
7
176
1
 90
5
176
1
 90
0
176
1
 90
0
176
1
290
0
176
1
 90
1
176
1
 40
0.0
176
1
 90
0
176
1
290
0
176
1
290
1
176
1
290
1
176
1
290
0
176
1
290
0
176
1
290
0
176
1
290
0
176
1
290
0
176
1
290
0
176
1
 90
50
176
1
 40
0.0
176
1
 40
1.0
176
1
 90
0
176
1
 62
18
420
0
176
1
 90
50
176
1
 90
3
176
1
 62
5
420
255
176
1
290
0
176
1
 90
50
176
1
 90
50
176
1
 90
50
176
1
290
0
176
1
 90
50
176
1
 62
256
176
0
 40
1.0
176
0
 90
2
176
1
  1
strokes_ogs.tif
176
1
290
0
176
1
 40
1.0
176
1
 40
1.0
176
1
  0
VISUALSTYLE
  5
5E
102
{ACAD_REACTORS
330
16
102
}
330
16
100
AcDbVisualStyle
  2
Conceptual
 70
9
177
3
291
0
 70
58
 90
2
176
1
 90
2
176
1
 90
0
176
1
 90
3
176
1
 40
0.6
176
1
 40
30.0
176
1
 62
7
420
16777215
176
1
 90
1
176
1
 90
4
176
1
 62
7
176
1
 62
257
176
1
 90
1
176
1
 90
1
176
1
 40
1.0
176
1
 90
8
176
1
 62
7
176
1
 40
1.0
176
1
 90
1
176
1
 90
6
176
1
 90
2
176
1
 62
7
176
1
 90
5
176
1
 90
0
176
1
 90
0
176
1
290
0
176
1
 90
1
176
1
 40
0.0
176
1
 90
0
176
1
290
0
176
1
290
1
176
1
290
1
176
1
290
0
176
1
290
0
176
1
290
0
176
1
290
0
176
1
290
0
176
1
290
0
176
1
 90
50
176
1
 40
0.0
176
1
 40
1.0
176
1
 90
0
176
1
 62
18
420
0
176
1
 90
50
176
1
 90
3
176
1
 62
5
420
255
176
1
290
0
176
1
 90
50
176
1
 90
50
176
1
 90
50
176
1
290
0
176
1
 90
50
176
1
 62
256
176
0
 40
1.0
176
0
 90
2
176
1
  1
strokes_ogs.tif
176
1
290
0
176
1
 40
1.0
176
1
 40
1.0
176
1
  0
VISUALSTYLE
  5
5F
102
{ACAD_REACTORS
330
16
102
}
330
16
100
AcDbVisualStyle
  2
Dim
 70
11
177
3
291
1
 70
58
 90
2
176
1
 90
2
176
1
 90
0
176
1
 90
2
176
1
 40
0.6
176
1
 40
30.0
176
1
 62
7
420
16777215
176
1
 90
1
176
1
 90
4
176
1
 62
7
176
1
 62
257
176
1
 90
1
176
1
 90
1
176
1
 40
1.0
176
1
 90
8
176
1
 62
7
176
1
 40
1.0
176
1
 90
1
176
1
 90
6
176
1
 90
2
176
1
 62
7
176
1
 90
5
176
1
 90
0
176
1
 90
0
176
1
290
0
176
1
 90
1
176
1
 40
0.0
176
1
 90
0
176
1
290
0
176
1
290
1
176
1
290
1
176
1
290
0
176
1
290
0
176
1
290
0
176
1
290
0
176
1
290
0
176
1
290
0
176
1
 90
50
176
1
 40
0.0
176
1
 40
1.0
176
1
 90
0
176
1
 62
18
420
0
176
1
 90
50
176
1
 90
3
176
1
 62
5
420
255
176
1
290
0
176
1
 90
50
176
1
 90
50
176
1
 90
50
176
1
290
0
176
1
 90
50
176
1
 62
256
176
0
 40
1.0
176
0
 90
2
176
1
  1
strokes_ogs.tif
176
1
290
0
176
1
 40
1.0
176
1
 40
1.0
176
1
  0
VISUALSTYLE
  5
60
102
{ACAD_REACTORS
330
16
102
}
330
16
100
AcDbVisualStyle
  2
EdgeColorOff
 70
22
177
3
291
1
 70
58
 90
2
176
1
 90
2
176
1
 90
0
176
1
 90
2
176
1
 40
0.6
176
1
 40
30.0
176
1
 62
7
420
16777215
176
1
 90
1
176
1
 90
4
176
1
 62
7
176
1
 62
257
176
1
 90
1
176
1
 90
1
176
1
 40
1.0
176
1
 90
8
176
1
 62
7
176
1
 40
1.0
176
1
 90
1
176
1
 90
6
176
1
 90
2
176
1
 62
7
176
1
 90
5
176
1
 90
0
176
1
 90
0
176
1
290
0
176
1
 90
1
176
1
 40
0.0
176
1
 90
0
176
1
290
0
176
1
290
1
176
1
290
1
176
1
290
0
176
1
290
0
176
1
290
0
176
1
290
0
176
1
290
0
176
1
290
0
176
1
 90
50
176
1
 40
0.0
176
1
 40
1.0
176
1
 90
0
176
1
 62
18
420
0
176
1
 90
50
176
1
 90
3
176
1
 62
5
420
255
176
1
290
0
176
1
 90
50
176
1
 90
50
176
1
 90
50
176
1
290
0
176
1
 90
50
176
1
 62
256
176
0
 40
1.0
176
0
 90
2
176
1
  1
strokes_ogs.tif
176
1
290
0
176
1
 40
1.0
176
1
 40
1.0
176
1
  0
VISUALSTYLE
  5
61
102
{ACAD_REACTORS
330
16
102
}
330
16
100
AcDbVisualStyle
  2
Facepattern
 70
15
177
3
291
1
 70
58
 90
2
176
1
 90
2
176
1
 90
0
176
1
 90
2
176
1
 40
0.6
176
1
 40
30.0
176
1
 62
7
420
16777215
176
1
 90
1
176
1
 90
4
176
1
 62
7
176
1
 62
257
176
1
 90
1
176
1
 90
1
176
1
 40
1.0
176
1
 90
8
176
1
 62
7
176
1
 40
1.0
176
1
 90
1
176
1
 90
6
176
1
 90
2
176
1
 62
7
176
1
 90
5
176
1
 90
0
176
1
 90
0
176
1
290
0
176
1
 90
1
176
1
 40
0.0
176
1
 90
0
176
1
290
0
176
1
290
1
176
1
290
1
176
1
290
0
176
1
290
0
176
1
290
0
176
1
290
0
176
1
290
0
176
1
290
0
176
1
 90
50
176
1
 40
0.0
176
1
 40
1.0
176
1
 90
0
176
1
 62
18
420
0
176
1
 90
50
176
1
 90
3
176
1
 62
5
420
255
176
1
290
0
176
1
 90
50
176
1
 90
50
176
1
 90
50
176
1
290
0
176
1
 90
50
176
1
 62
256
176
0
 40
1.0
176
0
 90
2
176
1
  1
strokes_ogs.tif
176
1
290
0
176
1
 40
1.0
176
1
 40
1.0
176
1
  0
VISUALSTYLE
  5
62
102
{ACAD_REACTORS
330
16
102
}
330
16
100
AcDbVisualStyle
  2
Flat
 70
0
177
3
291
1
 70
58
 90
2
176
1
 90
2
176
1
 90
0
176
1
 90
2
176
1
 40
0.6
176
1
 40
30.0
176
1
 62
7
420
16777215
176
1
 90
1
176
1
 90
4
176
1
 62
7
176
1
 62
257
176
1
 90
1
176
1
 90
1
176
1
 40
1.0
176
1
 90
8
176
1
 62
7
176
1
 40
1.0
176
1
 90
1
176
1
 90
6
176
1
 90
2
176
1
 62
7
176
1
 90
5
176
1
 90
0
176
1
 90
0
176
1
290
0
176
1
 90
1
176
1
 40
0.0
176
1
 90
0
176
1
290
0
176
1
290
1
176
1
290
1
176
1
290
0
176
1
290
0
176
1
290
0
176
1
290
0
176
1
290
0
176
1
290
0
176
1
 90
50
176
1
 40
0.0
176
1
 40
1.0
176
1
 90
0
176
1
 62
18
420
0
176
1
 90
50
176
1
 90
3
176
1
 62
5
420
255
176
1
290
0
176
1
 90
50
176
1
 90
50
176
1
 90
50
176
1
290
0
176
1
 90
50
176
1
 62
256
176
0
 40
1.0
176
0
 90
2
176
1
  1
strokes_ogs.tif
176
1
290
0
176
1
 40
1.0
176
1
 40
1.0
176
1
  0
VISUALSTYLE
  5
63
102
{ACAD_REACTORS
330
16
102
}
330
16
100
AcDbVisualStyle
  2
FlatWithEdges
 70
1
177
3
291
1
 70
58
 90
2
176
1
 90
2
176
1
 90
0
176
1
 90
2
176
1
 40
0.6
176
1
 40
30.0
176
1
 62
7
420
16777215
176
1
 90
1
176
1
 90
4
176
1
 62
7
176
1
 62
257
176
1
 90
1
176
1
 90
1
176
1
 40
1.0
176
1
 90
8
176
1
 62
7
176
1
 40
1.0
176
1
 90
1
176
1
 90
6
176
1
 90
2
176
1
 62
7
176
1
 90
5
176
1
 90
0
176
1
 90
0
176
1
290
0
176
1
 90
1
176
1
 40
0.0
176
1
 90
0
176
1
290
0
176
1
290
1
176
1
290
1
176
1
290
0
176
1
290
0
176
1
290
0
176
1
290
0
176
1
290
0
176
1
290
0
176
1
 90
50
176
1
 40
0.0
176
1
 40
1.0
176
1
 90
0
176
1
 62
18
420
0
176
1
 90
50
176
1
 90
3
176
1
 62
5
420
255
176
1
290
0
176
1
 90
50
176
1
 90
50
176
1
 90
50
176
1
290
0
176
1
 90
50
176
1
 62
256
176
0
 40
1.0
176
0
 90
2
176
1
  1
strokes_ogs.tif
176
1
290
0
176
1
 40
1.0
176
1
 40
1.0
176
1
  0
VISUALSTYLE
  5
64
102
{ACAD_REACTORS
330
16
102
}
330
16
100
AcDbVisualStyle
  2
Gouraud
 70
2
177
3
291
1
 70
58
 90
2
176
1
 90
2
176
1
 90
0
176
1
 90
2
176
1
 40
0.6
176
1
 40
30.0
176
1
 62
7
420
16777215
176
1
 90
1
176
1
 90
4
176
1
 62
7
176
1
 62
257
176
1
 90
1
176
1
 90
1
176
1
 40
1.0
176
1
 90
8
176
1
 62
7
176
1
 40
1.0
176
1
 90
1
176
1
 90
6
176
1
 90
2
176
1
 62
7
176
1
 90
5
176
1
 90
0
176
1
 90
0
176
1
290
0
176
1
 90
1
176
1
 40
0.0
176
1
 90
0
176
1
290
0
176
1
290
1
176
1
290
1
176
1
290
0
176
1
290
0
176
1
290
0
176
1
290
0
176
1
290
0
176
1
290
0
176
1
 90
50
176
1
 40
0.0
176
1
 40
1.0
176
1
 90
0
176
1
 62
18
420
0
176
1
 90
50
176
1
 90
3
176
1
 62
5
420
255
176
1
290
0
176
1
 90
50
176
1
 90
50
176
1
 90
50
176
1
290
0
176
1
 90
50
176
1
 62
256
176
0
 40
1.0
176
0
 90
2
176
1
  1
strokes_ogs.tif
176
1
290
0
176
1
 40
1.0
176
1
 40
1.0
176
1
  0
VISUALSTYLE
  5
65
102
{ACAD_REACTORS
330
16
102
}
330
16
100
AcDbVisualStyle
  2
GouraudWithEdges
 70
3
177
3
291
1
 70
58
 90
2
176
1
 90
2
176
1
 90
0
176
1
 90
2
176
1
 40
0.6
176
1
 40
30.0
176
1
 62
7
420
16777215
176
1
 90
1
176
1
 90
4
176
1
 62
7
176
1
 62
257
176
1
 90
1
176
1
 90
1
176
1
 40
1.0
176
1
 90
8
176
1
 62
7
176
1
 40
1.0
176
1
 90
1
176
1
 90
6
176
1
 90
2
176
1
 62
7
176
1
 90
5
176
1
 90
0
176
1
 90
0
176
1
290
0
176
1
 90
1
176
1
 40
0.0
176
1
 90
0
176
1
290
0
176
1
290
1
176
1
290
1
176
1
290
0
176
1
290
0
176
1
290
0
176
1
290
0
176
1
290
0
176
1
290
0
176
1
 90
50
176
1
 40
0.0
176
1
 40
1.0
176
1
 90
0
176
1
 62
18
420
0
176
1
 90
50
176
1
 90
3
176
1
 62
5
420
255
176
1
290
0
176
1
 90
50
176
1
 90
50
176
1
 90
50
176
1
290
0
176
1
 90
50
176
1
 62
256
176
0
 40
1.0
176
0
 90
2
176
1
  1
strokes_ogs.tif
176
1
290
0
176
1
 40
1.0
176
1
 40
1.0
176
1
  0
VISUALSTYLE
  5
66
102
{ACAD_REACTORS
330
16
102
}
330
16
100
AcDbVisualStyle
  2
Hidden
 70
6
177
3
291
0
 70
58
 90
2
176
1
 90
2
176
1
 90
0
176
1
 90
1
176
1
 40
0.6
176
1
 40
30.0
176
1
 62
7
420
16777215
176
1
 90
1
176
1
 90
4
176
1
 62
7
176
1
 62
257
176
1
 90
1
176
1
 90
1
176
1
 40
1.0
176
1
 90
8
176
1
 62
7
176
1
 40
1.0
176
1
 90
1
176
1
 90
6
176
1
 90
2
176
1
 62
7
176
1
 90
5
176
1
 90
0
176
1
 90
0
176
1
290
0
176
1
 90
1
176
1
 40
0.0
176
1
 90
0
176
1
290
0
176
1
290
1
176
1
290
1
176
1
290
0
176
1
290
0
176
1
290
0
176
1
290
0
176
1
290
0
176
1
290
0
176
1
 90
50
176
1
 40
0.0
176
1
 40
1.0
176
1
 90
0
176
1
 62
18
420
0
176
1
 90
50
176
1
 90
3
176
1
 62
5
420
255
176
1
290
0
176
1
 90
50
176
1
 90
50
176
1
 90
50
176
1
290
0
176
1
 90
50
176
1
 62
256
176
0
 40
1.0
176
0
 90
2
176
1
  1
strokes_ogs.tif
176
1
290
0
176
1
 40
1.0
176
1
 40
1.0
176
1
  0
VISUALSTYLE
  5
67
102
{ACAD_REACTORS
330
16
102
}
330
16
100
AcDbVisualStyle
  2
JitterOff
 70
20
177
3
291
1
 70
58
 90
2
176
1
 90
2
176
1
 90
0
176
1
 90
2
176
1
 40
0.6
176
1
 40
30.0
176
1
 62
7
420
16777215
176
1
 90
1
176
1
 90
4
176
1
 62
7
176
1
 62
257
176
1
 90
1
176
1
 90
1
176
1
 40
1.0
176
1
 90
8
176
1
 62
7
176
1
 40
1.0
176
1
 90
1
176
1
 90
6
176
1
 90
2
176
1
 62
7
176
1
 90
5
176
1
 90
0
176
1
 90
0
176
1
290
0
176
1
 90
1
176
1
 40
0.0
176
1
 90
0
176
1
290
0
176
1
290
1
176
1
290
1
176
1
290
0
176
1
290
0
176
1
290
0
176
1
290
0
176
1
290
0
176
1
290
0
176
1
 90
50
176
1
 40
0.0
176
1
 40
1.0
176
1
 90
0
176
1
 62
18
420
0
176
1
 90
50
176
1
 90
3
176
1
 62
5
420
255
176
1
290
0
176
1
 90
50
176
1
 90
50
176
1
 90
50
176
1
290
0
176
1
 90
50
176
1
 62
256
176
0
 40
1.0
176
0
 90
2
176
1
  1
strokes_ogs.tif
176
1
290
0
176
1
 40
1.0
176
1
 40
1.0
176
1
  0
VISUALSTYLE
  5
68
102
{ACAD_REACTORS
330
16
102
}
330
16
100
AcDbVisualStyle
  2
Linepattern
 70
14
177
3
291
1
 70
58
 90
2
176
1
 90
2
176
1
 90
0
176
1
 90
2
176
1
 40
0.6
176
1
 40
30.0
176
1
 62
7
420
16777215
176
1
 90
1
176
1
 90
4
176
1
 62
7
176
1
 62
257
176
1
 90
1
176
1
 90
1
176
1
 40
1.0
176
1
 90
8
176
1
 62
7
176
1
 40
1.0
176
1
 90
1
176
1
 90
6
176
1
 90
2
176
1
 62
7
176
1
 90
5
176
1
 90
0
176
1
 90
0
176
1
290
0
176
1
 90
1
176
1
 40
0.0
176
1
 90
0
176
1
290
0
176
1
290
1
176
1
290
1
176
1
290
0
176
1
290
0
176
1
290
0
176
1
290
0
176
1
290
0
176
1
290
0
176
1
 90
50
176
1
 40
0.0
176
1
 40
1.0
176
1
 90
0
176
1
 62
18
420
0
176
1
 90
50
176
1
 90
3
176
1
 62
5
420
255
176
1
290
0
176
1
 90
50
176
1
 90
50
176
1
 90
50
176
1
290
0
176
1
 90
50
176
1
 62
256
176
0
 40
1.0
176
0
 90
2
176
1
  1
strokes_ogs.tif
176
1
290
0
176
1
 40
1.0
176
1
 40
1.0
176
1
  0
VISUALSTYLE
  5
69
102
{ACAD_REACTORS
330
16
102
}
330
16
100
AcDbVisualStyle
  2
Modeling
 70
10
177
3
291
0
 70
58
 90
2
176
1
 90
2
176
1
 90
0
176
1
 90
2
176
1
 40
0.6
176
1
 40
30.0
176
1
 62
7
420
16777215
176
1
 90
1
176
1
 90
4
176
1
 62
7
176
1
 62
257
176
1
 90
1
176
1
 90
1
176
1
 40
1.0
176
1
 90
8
176
1
 62
7
176
1
 40
1.0
176
1
 90
1
176
1
 90
6
176
1
 90
2
176
1
 62
7
176
1
 90
5
176
1
 90
0
176
1
 90
0
176
1
290
0
176
1
 90
1
176
1
 40
0.0
176
1
 90
0
176
1
290
0
176
1
290
1
176
1
290
1
176
1
290
0
176
1
290
0
176
1
290
0
176
1
290
0
176
1
290
0
176
1
290
0
176
1
 90
50
176
1
 40
0.0
176
1
 40
1.0
176
1
 90
0
176
1
 62
18
420
0
176
1
 90
50
176
1
 90
3
176
1
 62
5
420
255
176
1
290
0
176
1
 90
50
176
1
 90
50
176
1
 90
50
176
1
290
0
176
1
 90
50
176
1
 62
256
176
0
 40
1.0
176
0
 90
2
176
1
  1
strokes_ogs.tif
176
1
290
0
176
1
 40
1.0
176
1
 40
1.0
176
1
  0
VISUALSTYLE
  5
6A
102
{ACAD_REACTORS
330
16
102
}
330
16
100
AcDbVisualStyle
  2
OverhangOff
 70
21
177
3
291
1
 70
58
 90
2
176
1
 90
2
176
1
 90
0
176
1
 90
2
176
1
 40
0.6
176
1
 40
30.0
176
1
 62
7
420
16777215
176
1
 90
1
176
1
 90
4
176
1
 62
7
176
1
 62
257
176
1
 90
1
176
1
 90
1
176
1
 40
1.0
176
1
 90
8
176
1
 62
7
176
1
 40
1.0
176
1
 90
1
176
1
 90
6
176
1
 90
2
176
1
 62
7
176
1
 90
5
176
1
 90
0
176
1
 90
0
176
1
290
0
176
1
 90
1
176
1
 40
0.0
176
1
 90
0
176
1
290
0
176
1
290
1
176
1
290
1
176
1
290
0
176
1
290
0
176
1
290
0
176
1
290
0
176
1
290
0
176
1
290
0
176
1
 90
50
176
1
 40
0.0
176
1
 40
1.0
176
1
 90
0
176
1
 62
18
420
0
176
1
 90
50
176
1
 90
3
176
1
 62
5
420
255
176
1
290
0
176
1
 90
50
176
1
 90
50
176
1
 90
50
176
1
290
0
176
1
 90
50
176
1
 62
256
176
0
 40
1.0
176
0
 90
2
176
1
  1
strokes_ogs.tif
176
1
290
0
176
1
 40
1.0
176
1
 40
1.0
176
1
  0
VISUALSTYLE
  5
6B
102
{ACAD_REACTORS
330
16
102
}
330
16
100
AcDbVisualStyle
  2
Realistic
 70
8
177
3
291
0
 70
58
 90
2
176
1
 90
2
176
1
 90
0
176
1
 90
2
176
1
 40
0.6
176
1
 40
30.0
176
1
 62
7
420
16777215
176
1
 90
1
176
1
 90
4
176
1
 62
7
176
1
 62
257
176
1
 90
1
176
1
 90
1
176
1
 40
1.0
176
1
 90
8
176
1
 62
7
176
1
 40
1.0
176
1
 90
1
176
1
 90
6
176
1
 90
2
176
1
 62
7
176
1
 90
5
176
1
 90
0
176
1
 90
0
176
1
290
0
176
1
 90
1
176
1
 40
0.0
176
1
 90
0
176
1
290
0
176
1
290
1
176
1
290
1
176
1
290
0
176
1
290
0
176
1
290
0
176
1
290
0
176
1
290
0
176
1
290
0
176
1
 90
50
176
1
 40
0.0
176
1
 40
1.0
176
1
 90
0
176
1
 62
18
420
0
176
1
 90
50
176
1
 90
3
176
1
 62
5
420
255
176
1
290
0
176
1
 90
50
176
1
 90
50
176
1
 90
50
176
1
290
0
176
1
 90
50
176
1
 62
256
176
0
 40
1.0
176
0
 90
2
176
1
  1
strokes_ogs.tif
176
1
290
0
176
1
 40
1.0
176
1
 40
1.0
176
1
  0
VISUALSTYLE
  5
6C
102
{ACAD_REACTORS
330
16
102
}
330
16
100
AcDbVisualStyle
  2
Shaded
 70
27
177
3
291
0
 70
58
 90
2
176
1
 90
2
176
1
 90
0
176
1
 90
2
176
1
 40
0.6
176
1
 40
30.0
176
1
 62
7
420
16777215
176
1
 90
1
176
1
 90
4
176
1
 62
7
176
1
 62
257
176
1
 90
1
176
1
 90
1
176
1
 40
1.0
176
1
 90
8
176
1
 62
7
176
1
 40
1.0
176
1
 90
1
176
1
 90
6
176
1
 90
2
176
1
 62
7
176
1
 90
5
176
1
 90
0
176
1
 90
0
176
1
290
0
176
1
 90
1
176
1
 40
0.0
176
1
 90
0
176
1
290
0
176
1
290
1
176
1
290
1
176
1
290
0
176
1
290
0
176
1
290
0
176
1
290
0
176
1
290
0
176
1
290
0
176
1
 90
50
176
1
 40
0.0
176
1
 40
1.0
176
1
 90
0
176
1
 62
18
420
0
176
1
 90
50
176
1
 90
3
176
1
 62
5
420
255
176
1
290
0
176
1
 90
50
176
1
 90
50
176
1
 90
50
176
1
290
0
176
1
 90
50
176
1
 62
256
176
0
 40
1.0
176
0
 90
2
176
1
  1
strokes_ogs.tif
176
1
290
0
176
1
 40
1.0
176
1
 40
1.0
176
1
  0
VISUALSTYLE
  5
6D
102
{ACAD_REACTORS
330
16
102
}
330
16
100
AcDbVisualStyle
  2
Shaded with edges
 70
26
177
3
291
0
 70
58
 90
2
176
1
 90
2
176
1
 90
0
176
1
 90
2
176
1
 40
0.6
176
1
 40
30.0
176
1
 62
7
420
16777215
176
1
 90
1
176
1
 90
4
176
1
 62
7
176
1
 62
257
176
1
 90
1
176
1
 90
1
176
1
 40
1.0
176
1
 90
8
176
1
 62
7
176
1
 40
1.0
176
1
 90
1
176
1
 90
6
176
1
 90
2
176
1
 62
7
176
1
 90
5
176
1
 90
0
176
1
 90
0
176
1
290
0
176
1
 90
1
176
1
 40
0.0
176
1
 90
0
176
1
290
0
176
1
290
1
176
1
290
1
176
1
290
0
176
1
290
0
176
1
290
0
176
1
290
0
176
1
290
0
176
1
290
0
176
1
 90
50
176
1
 40
0.0
176
1
 40
1.0
176
1
 90
0
176
1
 62
18
420
0
176
1
 90
50
176
1
 90
3
176
1
 62
5
420
255
176
1
290
0
176
1
 90
50
176
1
 90
50
176
1
 90
50
176
1
290
0
176
1
 90
50
176
1
 62
256
176
0
 40
1.0
176
0
 90
2
176
1
  1
strokes_ogs.tif
176
1
290
0
176
1
 40
1.0
176
1
 40
1.0
176
1
  0
VISUALSTYLE
  5
6E
102
{ACAD_REACTORS
330
16
102
}
330
16
100
AcDbVisualStyle
  2
Shades of Gray
 70
23
177
3
291
0
 70
58
 90
2
176
1
 90
2
176
1
 90
0
176
1
 90
2
176
1
 40
0.6
176
1
 40
30.0
176
1
 62
7
420
16777215
176
1
 90
1
176
1
 90
4
176
1
 62
7
176
1
 62
257
176
1
 90
1
176
1
 90
1
176
1
 40
1.0
176
1
 90
8
176
1
 62
7
176
1
 40
1.0
176
1
 90
1
176
1
 90
6
176
1
 90
2
176
1
 62
7
176
1
 90
5
176
1
 90
0
176
1
 90
0
176
1
290
0
176
1
 90
1
176
1
 40
0.0
176
1
 90
0
176
1
290
0
176
1
290
1
176
1
290
1
176
1
290
0
176
1
290
0
176
1
290
0
176
1
290
0
176
1
290
0
176
1
290
0
176
1
 90
50
176
1
 40
0.0
176
1
 40
1.0
176
1
 90
0
176
1
 62
18
420
0
176
1
 90
50
176
1
 90
3
176
1
 62
5
420
255
176
1
290
0
176
1
 90
50
176
1
 90
50
176
1
 90
50
176
1
290
0
176
1
 90
50
176
1
 62
256
176
0
 40
1.0
176
0
 90
2
176
1
  1
strokes_ogs.tif
176
1
290
0
176
1
 40
1.0
176
1
 40
1.0
176
1
  0
VISUALSTYLE
  5
6F
102
{ACAD_REACTORS
330
16
102
}
330
16
100
AcDbVisualStyle
  2
Sketchy
 70
24
177
3
291
0
 70
58
 90
2
176
1
 90
2
176
1
 90
0
176
1
 90
1
176
1
 40
0.6
176
1
 40
30.0
176
1
 62
7
420
16777215
176
1
 90
1
176
1
 90
4
176
1
 62
7
176
1
 62
257
176
1
 90
1
176
1
 90
1
176
1
 40
1.0
176
1
 90
8
176
1
 62
7
176
1
 40
1.0
176
1
 90
1
176
1
 90
6
176
1
 90
2
176
1
 62
7
176
1
 90
5
176
1
 90
0
176
1
 90
0
176
1
290
0
176
1
 90
1
176
1
 40
0.0
176
1
 90
0
176
1
290
0
176
1
290
1
176
1
290
1
176
1
290
0
176
1
290
0
176
1
290
0
176
1
290
0
176
1
290
0
176
1
290
0
176
1
 90
50
176
1
 40
0.0
176
1
 40
1.0
176
1
 90
0
176
1
 62
18
420
0
176
1
 90
50
176
1
 90
3
176
1
 62
5
420
255
176
1
290
0
176
1
 90
50
176
1
 90
50
176
1
 90
50
176
1
290
0
176
1
 90
50
176
1
 62
256
176
0
 40
1.0
176
0
 90
2
176
1
  1
strokes_ogs.tif
176
1
290
0
176
1
 40
1.0
176
1
 40
1.0
176
1
  0
VISUALSTYLE
  5
70
102
{ACAD_REACTORS
330
16
102
}
330
16
100
AcDbVisualStyle
  2
Thicken
 70
13
177
3
291
1
 70
58
 90
2
176
1
 90
2
176
1
 90
0
176
1
 90
2
176
1
 40
0.6
176
1
 40
30.0
176
1
 62
7
420
16777215
176
1
 90
1
176
1
 90
4
176
1
 62
7
176
1
 62
257
176
1
 90
1
176
1
 90
1
176
1
 40
1.0
176
1
 90
8
176
1
 62
7
176
1
 40
1.0
176
1
 90
1
176
1
 90
6
176
1
 90
2
176
1
 62
7
176
1
 90
5
176
1
 90
0
176
1
 90
0
176
1
290
0
176
1
 90
1
176
1
 40
0.0
176
1
 90
0
176
1
290
0
176
1
290
1
176
1
290
1
176
1
290
0
176
1
290
0
176
1
290
0
176
1
290
0
176
1
290
0
176
1
290
0
176
1
 90
50
176
1
 40
0.0
176
1
 40
1.0
176
1
 90
0
176
1
 62
18
420
0
176
1
 90
50
176
1
 90
3
176
1
 62
5
420
255
176
1
290
0
176
1
 90
50
176
1
 90
50
176
1
 90
50
176
1
290
0
176
1
 90
50
176
1
 62
256
176
0
 40
1.0
176
0
 90
2
176
1
  1
strokes_ogs.tif
176
1
290
0
176
1
 40
1.0
176
1
 40
1.0
176
1
  0
VISUALSTYLE
  5
71
102
{ACAD_REACTORS
330
16
102
}
330
16
100
AcDbVisualStyle
  2
Wireframe
 70
5
177
3
291
0
 70
58
 90
2
176
1
 90
2
176
1
 90
0
176
1
 90
0
176
1
 40
0.6
176
1
 40
30.0
176
1
 62
7
420
16777215
176
1
 90
1
176
1
 90
4
176
1
 62
7
176
1
 62
257
176
1
 90
1
176
1
 90
1
176
1
 40
1.0
176
1
 90
8
176
1
 62
7
176
1
 40
1.0
176
1
 90
1
176
1
 90
6
176
1
 90
2
176
1
 62
7
176
1
 90
5
176
1
 90
0
176
1
 90
0
176
1
290
0
176
1
 90
1
176
1
 40
0.0
176
1
 90
0
176
1
290
0
176
1
290
1
176
1
290
1
176
1
290
0
176
1
290
0
176
1
290
0
176
1
290
0
176
1
290
0
176
1
290
0
176
1
 90
50
176
1
 40
0.0
176
1
 40
1.0
176
1
 90
0
176
1
 62
18
420
0
176
1
 90
50
176
1
 90
3
176
1
 62
5
420
255
176
1
290
0
176
1
 90
50
176
1
 90
50
176
1
 90
50
176
1
290
0
176
1
 90
50
176
1
 62
256
176
0
 40
1.0
176
0
 90
2
176
1
  1
strokes_ogs.tif
176
1
290
0
176
1
 40
1.0
176
1
 40
1.0
176
1
  0
VISUALSTYLE
  5
72
102
{ACAD_REACTORS
330
16
102
}
330
16
100
AcDbVisualStyle
  2
X-Ray
 70
25
177
3
291
0
 70
58
 90
2
176
1
 90
2
176
1
 90
0
176
1
 90
2
176
1
 40
0.5
176
1
 40
30.0
176
1
 62
7
420
16777215
176
1
 90
1
176
1
 90
4
176
1
 62
7
176
1
 62
257
176
1
 90
1
176
1
 90
1
176
1
 40
1.0
176
1
 90
8
176
1
 62
7
176
1
 40
1.0
176
1
 90
1
176
1
 90
6
176
1
 90
2
176
1
 62
7
176
1
 90
5
176
1
 90
0
176
1
 90
0
176
1
290
0
176
1
 90
1
176
1
 40
0.0
176
1
 90
0
176
1
290
0
176
1
290
1
176
1
290
1
176
1
290
0
176
1
290
0
176
1
290
0
176
1
290
0
176
1
290
0
176
1
290
0
176
1
 90
50
176
1
 40
0.0
176
1
 40
1.0
176
1
 90
0
176
1
 62
18
420
0
176
1
 90
50
176
1
 90
3
176
1
 62
5
420
255
176
1
290
0
176
1
 90
50
176
1
 90
50
176
1
 90
50
176
1
290
0
176
1
 90
50
176
1
 62
256
176
0
 40
1.0
176
0
 90
2
176
1
  1
strokes_ogs.tif
176
1
290
0
176
1
 40
1.0
176
1
 40
1.0
176
1
  0
DICTIONARYVAR
  5
160
330
2D
100
DictionaryVariables
280
0
  1
1.4.4 @ 2026-09-05T02:00:56.046398+00:00
  0
ENDSEC
  0
EOF
