  0
SECTION
  2
HEADER
  9
$ACADVER
  1
AC1032
  9
$ACADMAINTVER
 90
4
  9
$DWGCODEPAGE
  3
ANSI_1252
  9
$LASTSAVEDBY
  1
ezdxf
  9
$REQUIREDVERSIONS
160
0
  9
$INSBASE
 10
0.0
 20
0.0
 30
0.0
  9
$EXTMIN
 10
1e+20
 20
1e+20
 30
1e+20
  9
$EXTMAX
 10
-1e+20
 20
-1e+20
 30
-1e+20
  9
$LIMMIN
 10
0.0
 20
0.0
  9
$LIMMAX
 10
420.0
 20
297.0
  9
$ORTHOMODE
 70
0
  9
$REGENMODE
 70
1
  9
$FILLMODE
 70
1
  9
$QTEXTMODE
 70
0
  9
$MIRRTEXT
 70
1
  9
$LTSCALE
 40
1.0
  9
$ATTMODE
 70
1
  9
$TEXTSIZE
 40
2.5
  9
$TRACEWID
 40
1.0
  9
$TEXTSTYLE
  7
OpenSans
  9
$CLAYER
  8
0
  9
$CELTYPE
  6
ByLayer
  9
$CECOLOR
 62
256
  9
$CELTSCALE
 40
1.0
  9
$DISPSILH
 70
0
  9
$DIMSCALE
 40
1.0
  9
$DIMASZ
 40
0.175
  9
$DIMEXO
 40
0.125
  9
$DIMDLI
 40
3.75
  9
$DIMRND
 40
0.0
  9
$DIMDLE
 40
0.0
  9
$DIMEXE
 40
0.375
  9
$DIMTP
 40
0.0
  9
$DIMTM
 40
0.0
  9
$DIMTXT
 40
0.25
  9
$DIMCEN
 40
2.5
  9
$DIMTSZ
 40
0.0
  9
$DIMTOL
 70
0
  9
$DIMLIM
 70
0
  9
$DIMTIH
 70
0
  9
$DIMTOH
 70
0
  9
$DIMSE1
 70
0
  9
$DIMSE2
 70
0
  9
$DIMTAD
 70
1
  9
$DIMZIN
 70
12
  9
$DIMBLK
  1
ARCHTICK
  9
$DIMASO
 70
1
  9
$DIMSHO
 70
1
  9
$DIMPOST
  1

  9
$DIMAPOST
  1

  9
$DIMALT
 70
0
  9
$DIMALTD
 70
3
  9
$DIMALTF
 40
0.03937007874
  9
$DIMLFAC
 40
100.0
  9
$DIMTOFL
 70
1
  9
$DIMTVP
 40
0.0
  9
$DIMTIX
 70
0
  9
$DIMSOXD
 70
0
  9
$DIMSAH
 70
0
  9
$DIMBLK1
  1

  9
$DIMBLK2
  1

  9
$DIMSTYLE
  2
EZDXF
  9
$DIMCLRD
 70
0
  9
$DIMCLRE
 70
0
  9
$DIMCLRT
 70
0
  9
$DIMTFAC
 40
0.5
  9
$DIMGAP
 40
0.1
  9
$DIMJUST
 70
0
  9
$DIMSD1
 70
0
  9
$DIMSD2
 70
0
  9
$DIMTOLJ
 70
0
  9
$DIMTZIN
 70
8
  9
$DIMALTZ
 70
0
  9
$DIMALTTZ
 70
0
  9
$DIMUPT
 70
1
  9
$DIMDEC
 70
2
  9
$DIMTDEC
 70
2
  9
$DIMALTU
 70
2
  9
$DIMALTTD
 70
3
  9
$DIMTXSTY
  7
OpenSansCondensed-Light
  9
$DIMAUNIT
 70
0
  9
$DIMADEC
 70
2
  9
$DIMALTRND
 40
0.0
  9
$DIMAZIN
 70
3
  9
$DIMDSEP
 70
46
  9
$DIMATFIT
 70
3
  9
$DIMFRAC
 70
0
  9
$DIMLDRBLK
  1

  9
$DIMLUNIT
 70
2
  9
$DIMLWD
 70
-2
  9
$DIMLWE
 70
-2
  9
$DIMTMOVE
 70
2
  9
$DIMFXL
 40
1.0
  9
$DIMFXLON
 70
0
  9
$DIMJOGANG
 40
0.785398163397
  9
$DIMTFILL
 70
0
  9
$DIMTFILLCLR
 70
0
  9
$DIMARCSYM
 70
0
  9
$DIMLTYPE
  6

  9
$DIMLTEX1
  6

  9
$DIMLTEX2
  6

  9
$DIMTXTDIRECTION
 70
0
  9
$LUNITS
 70
2
  9
$LUPREC
 70
4
  9
$SKETCHINC
 40
1.0
  9
$FILLETRAD
 40
10.0
  9
$AUNITS
 70
0
  9
$AUPREC
 70
2
  9
$MENU
  1
.
  9
$ELEVATION
 40
0.0
  9
$PELEVATION
 40
0.0
  9
$THICKNESS
 40
0.0
  9
$LIMCHECK
 70
0
  9
$CHAMFERA
 40
0.0
  9
$CHAMFERB
 40
0.0
  9
$CHAMFERC
 40
0.0
  9
$CHAMFERD
 40
0.0
  9
$SKPOLY
 70
0
  9
$TDCREATE
 40
2461288.917303241
  9
$TDUCREATE
 40
2458532.153996898
  9
$TDUPDATE
 40
2461288.917314815
  9
$TDUUPDATE
 40
2458532.1544311
  9
$TDINDWG
 40
0.0
  9
$TDUSRTIMER
 40
0.0
  9
$USRTIMER
 70
1
  9
$ANGBASE
 50
0.0
  9
$ANGDIR
 70
0
  9
$PDMODE
 70
0
  9
$PDSIZE
 40
0.0
  9
$PLINEWID
 40
0.0
  9
$SPLFRAME
 70
0
  9
$SPLINETYPE
 70
6
  9
$SPLINESEGS
 70
8
  9
$HANDSEED
  5
161
  9
$SURFTAB1
 70
6
  9
$SURFTAB2
 70
6
  9
$SURFTYPE
 70
6
  9
$SURFU
 70
6
  9
$SURFV
 70
6
  9
$UCSBASE
  2

  9
$UCSNAME
  2

  9
$UCSORG
 10
0.0
 20
0.0
 30
0.0
  9
$UCSXDIR
 10
1.0
 20
0.0
 30
0.0
  9
$UCSYDIR
 10
0.0
 20
1.0
 30
0.0
  9
$UCSORTHOREF
  2

  9
$UCSORTHOVIEW
 70
0
  9
$UCSORGTOP
 10
0.0
 20
0.0
 30
0.0
  9
$UCSORGBOTTOM
 10
0.0
 20
0.0
 30
0.0
  9
$UCSORGLEFT
 10
0.0
 20
0.0
 30
0.0
  9
$UCSORGRIGHT
 10
0.0
 20
0.0
 30
0.0
  9
$UCSORGFRONT
 10
0.0
 20
0.0
 30
0.0
  9
$UCSORGBACK
 10
0.0
 20
0.0
 30
0.0
  9
$PUCSBASE
  2

  9
$PUCSNAME
  2

  9
$PUCSORG
 10
0.0
 20
0.0
 30
0.0
  9
$PUCSXDIR
 10
1.0
 20
0.0
 30
0.0
  9
$PUCSYDIR
 10
0.0
 20
1.0
 30
0.0
  9
$PUCSORTHOREF
  2

  9
$PUCSORTHOVIEW
 70
0
  9
$PUCSORGTOP
 10
0.0
 20
0.0
 30
0.0
  9
$PUCSORGBOTTOM
 10
0.0
 20
0.0
 30
0.0
  9
$PUCSORGLEFT
 10
0.0
 20
0.0
 30
0.0
  9
$PUCSORGRIGHT
 10
0.0
 20
0.0
 30
0.0
  9
$PUCSORGFRONT
 10
0.0
 20
0.0
 30
0.0
  9
$PUCSORGBACK
 10
0.0
 20
0.0
 30
0.0
  9
$USERI1
 70
0
  9
$USERI2
 70
0
  9
$USERI3
 70
0
  9
$USERI4
 70
0
  9
$USERI5
 70
0
  9
$USERR1
 40
0.0
  9
$USERR2
 40
0.0
  9
$USERR3
 40
0.0
  9
$USERR4
 40
0.0
  9
$USERR5
 40
0.0
  9
$WORLDVIEW
 70
1
  9
$SHADEDGE
 70
3
  9
$SHADEDIF
 70
70
  9
$TILEMODE
 70
1
  9
$MAXACTVP
 70
64
  9
$PINSBASE
 10
0.0
 20
0.0
 30
0.0
  9
$PLIMCHECK
 70
0
  9
$PEXTMIN
 10
1e+20
 20
1e+20
 30
1e+20
  9
$PEXTMAX
 10
-1e+20
 20
-1e+20
 30
-1e+20
  9
$PLIMMIN
 10
0.0
 20
0.0
  9
$PLIMMAX
 10
420.0
 20
297.0
  9
$UNITMODE
 70
0
  9
$VISRETAIN
 70
1
  9
$PLINEGEN
 70
0
  9
$PSLTSCALE
 70
1
  9
$TREEDEPTH
 70
3020
  9
$CMLSTYLE
  2
Standard
  9
$CMLJUST
 70
0
  9
$CMLSCALE
 40
20.0
  9
$PROXYGRAPHICS
 70
1
  9
$MEASUREMENT
 70
1
  9
$CELWEIGHT
370
-1
  9
$ENDCAPS
280
0
  9
$JOINSTYLE
280
0
  9
$LWDISPLAY
290
0
  9
$INSUNITS
 70
6
  9
$HYPERLINKBASE
  1

  9
$STYLESHEET
  1

  9
$XEDIT
290
1
  9
$CEPSNTYPE
380
0
  9
$PSTYLEMODE
290
1
  9
$FINGERPRINTGUID
  2
{AC23CE44-E22A-47BF-9E20-A051C36FEA63}
  9
$VERSIONGUID
  2
{EF2938CF-06F8-4ACB-B616-5B2BD96495D0}
  9
$EXTNAMES
290
1
  9
$PSVPSCALE
 40
0.0
  9
$OLESTARTUP
290
0
  9
$SORTENTS
280
127
  9
$INDEXCTL
280
0
  9
$HIDETEXT
280
1
  9
$XCLIPFRAME
280
1
  9
$HALOGAP
280
0
  9
$OBSCOLOR
 70
257
  9
$OBSLTYPE
280
0
  9
$INTERSECTIONDISPLAY
280
0
  9
$INTERSECTIONCOLOR
 70
257
  9
$DIMASSOC
280
2
  9
$PROJECTNAME
  1

  9
$CAMERADISPLAY
290
0
  9
$LENSLENGTH
 40
50.0
  9
$CAMERAHEIGHT
 40
0.0
  9
$STEPSPERSEC
 40
24.0
  9
$STEPSIZE
 40
100.0
  9
$3DDWFPREC
 40
2.0
  9
$PSOLWIDTH
 40
0.005
  9
$PSOLHEIGHT
 40
0.08
  9
$LOFTANG1
 40
1.570796326795
  9
$LOFTANG2
 40
1.570796326795
  9
$LOFTMAG1
 40
0.0
  9
$LOFTMAG2
 40
0.0
  9
$LOFTPARAM
 70
7
  9
$LOFTNORMALS
280
1
  9
$LATITUDE
 40
37.795
  9
$LONGITUDE
 40
-122.394
  9
$NORTHDIRECTION
 40
0.0
  9
$TIMEZONE
 70
-8000
  9
$LIGHTGLYPHDISPLAY
280
1
  9
$TILEMODELIGHTSYNCH
280
1
  9
$CMATERIAL
347
20
  9
$SOLIDHIST
280
0
  9
$SHOWHIST
280
1
  9
$DWFFRAME
280
2
  9
$DGNFRAME
280
2
  9
$REALWORLDSCALE
290
1
  9
$INTERFERECOLOR
 62
256
  9
$CSHADOW
280
0
  9
$SHADOWPLANELOCATION
 40
0.0
  0
ENDSEC
  0
SECTION
  2
CLASSES
  0
CLASS
  1
ACDBDICTIONARYWDFLT
  2
AcDbDictionaryWithDefault
  3
ObjectDBX Classes
 90
0
 91
0
280
0
281
0
  0
CLASS
  1
SUN
  2
AcDbSun
  3
SCENEOE
 90
1153
 91
0
280
0
281
0
  0
CLASS
  1
VISUALSTYLE
  2
AcDbVisualStyle
  3
ObjectDBX Classes
 90
4095
 91
0
280
0
281
0
  0
CLASS
  1
MATERIAL
  2
AcDbMaterial
  3
ObjectDBX Classes
 90
1153
 91
0
280
0
281
0
  0
CLASS
  1
SCALE
  2
AcDbScale
  3
ObjectDBX Classes
 90
1153
 91
0
280
0
281
0
  0
CLASS
  1
TABLESTYLE
  2
AcDbTableStyle
  3
ObjectDBX Classes
 90
4095
 91
0
280
0
281
0
  0
CLASS
  1
MLEADERSTYLE
  2
AcDbMLeaderStyle
  3
ACDB_MLEADERSTYLE_CLASS
 90
4095
 91
0
280
0
281
0
  0
CLASS
  1
DICTIONARYVAR
  2
AcDbDictionaryVar
  3
ObjectDBX Classes
 90
0
 91
0
280
0
281
0
  0
CLASS
  1
CELLSTYLEMAP
  2
AcDbCellStyleMap
  3
ObjectDBX Classes
 90
1152
 91
0
280
0
281
0
  0
CLASS
  1
MENTALRAYRENDERSETTINGS
  2
AcDbMentalRayRenderSettings
  3
SCENEOE
 90
1024
 91
0
280
0
281
0
  0
CLASS
  1
ACDBDETAILVIEWSTYLE
  2
AcDbDetailViewStyle
  3
ObjectDBX Classes
 90
1025
 91
0
280
0
281
0
  0
CLASS
  1
ACDBSECTIONVIEWSTYLE
  2
AcDbSectionViewStyle
  3
ObjectDBX Classes
 90
1025
 91
0
280
0
281
0
  0
CLASS
  1
RASTERVARIABLES
  2
AcDbRasterVariables
  3
ISM
 90
0
 91
0
280
0
281
0
  0
CLASS
  1
LAYOUT
  2
AcDbLayout
  3
ObjectDBX Classes
 90
0
 91
0
280
0
281
0
  0
CLASS
  1
ACDBPLACEHOLDER
  2
AcDbPlaceHolder
  3
ObjectDBX Classes
 90
0
 91
0
280
0
281
0
  0
ENDSEC
  0
SECTION
  2
TABLES
  0
TABLE
  2
VPORT
  5
8
330
0
100
AcDbSymbolTable
 70
1
  0
VPORT
  5
23
330
8
100
AcDbSymbolTableRecord
100
AcDbViewportTableRecord
  2
*Active
 70
0
 10
0.0
 20
0.0
 11
1.0
 21
1.0
 12
0.0
 22
0.0
 13
0.0
 23
0.0
 14
0.5
 24
0.5
 15
0.5
 25
0.5
 16
0.0
 26
0.0
 36
1.0
 17
0.0
 27
0.0
 37
0.0
 40
1000.0
 41
1.34
 42
50.0
 43
0.0
 44
0.0
 50
0.0
 51
0.0
 71
0
 72
1000
 73
1
 74
3
 75
0
 76
0
 77
0
 78
0
281
0
 65
0
146
0.0
  0
ENDTAB
  0
TABLE
  2
LTYPE
  5
2
330
0
100
AcDbSymbolTable
 70
21
  0
LTYPE
  5
24
330
2
100
AcDbSymbolTableRecord
100
AcDbLinetypeTableRecord
  2
ByBlock
 70
0
  3

 72
65
 73
0
 40
0.0
  0
LTYPE
  5
25
330
2
100
AcDbSymbolTableRecord
100
AcDbLinetypeTableRecord
  2
ByLayer
 70
0
  3

 72
65
 73
0
 40
0.0
  0
LTYPE
  5
26
330
2
100
AcDbSymbolTableRecord
100
AcDbLinetypeTableRecord
  2
Continuous
 70
0
  3

 72
65
 73
0
 40
0.0
  0
LTYPE
  5
2F
330
2
100
AcDbSymbolTableRecord
100
AcDbLinetypeTableRecord
  2
CENTER
 70
0
  3
Center ____ _ ____ _ ____ _ ____ _ ____ _ ____
 72
65
 73
4
 40
5.08
 49
3.175
 74
0
 49
-0.635
 74
0
 49
0.635
 74
0
 49
-0.635
 74
0
  0
LTYPE
  5
30
330
2
100
AcDbSymbolTableRecord
100
AcDbLinetypeTableRecord
  2
CENTERX2
 70
0
  3
Center (2x) ________  __  ________  __  ________
 72
65
 73
4
 40
8.89
 49
6.35
 74
0
 49
-0.635
 74
0
 49
1.27
 74
0
 49
-0.635
 74
0
  0
LTYPE
  5
31
330
2
100
AcDbSymbolTableRecord
100
AcDbLinetypeTableRecord
  2
CENTER2
 70
0
  3
Center (.5x) ____ _ ____ _ ____ _ ____ _ ____
 72
65
 73
4
 40
2.54
 49
1.587
 74
0
 49
-0.318
 74
0
 49
0.318
 74
0
 49
-0.318
 74
0
  0
LTYPE
  5
32
330
2
100
AcDbSymbolTableRecord
100
AcDbLinetypeTableRecord
  2
DASHED
 70
0
  3
Dashed __ __ __ __ __ __ __ __ __ __ __ __ __ _
 72
65
 73
2
 40
1.524
 49
1.27
 74
0
 49
-0.254
 74
0
  0
LTYPE
  5
33
330
2
100
AcDbSymbolTableRecord
100
AcDbLinetypeTableRecord
  2
DASHEDX2
 70
0
  3
Dashed (2x) ____  ____  ____  ____  ____  ____
 72
65
 73
2
 40
3.048
 49
2.54
 74
0
 49
-0.508
 74
0
  0
LTYPE
  5
34
330
2
100
AcDbSymbolTableRecord
100
AcDbLinetypeTableRecord
  2
DASHED2
 70
0
  3
Dashed (.5x) _ _ _ _ _ _ _ _ _ _ _ _ _ _
 72
65
 73
2
 40
0.762
 49
0.635
 74
0
 49
-0.127
 74
0
  0
LTYPE
  5
35
330
2
100
AcDbSymbolTableRecord
100
AcDbLinetypeTableRecord
  2
PHANTOM
 70
0
  3
Phantom ______  __  __  ______  __  __  ______
 72
65
 73
6
 40
6.35
 49
3.175
 74
0
 49
-0.635
 74
0
 49
0.635
 74
0
 49
-0.635
 74
0
 49
0.635
 74
0
 49
-0.635
 74
0
  0
LTYPE
  5
36
330
2
100
AcDbSymbolTableRecord
100
AcDbLinetypeTableRecord
  2
PHANTOMX2
 70
0
  3
Phantom (2x)____________    ____    ____    ____________
 72
65
 73
6
 40
10.795
 49
6.35
 74
0
 49
-0.635
 74
0
 49
1.27
 74
0
 49
-0.635
 74
0
 49
1.27
 74
0
 49
-0.635
 74
0
  0
LTYPE
  5
37
330
2
100
AcDbSymbolTableRecord
100
AcDbLinetypeTableRecord
  2
PHANTOM2
 70
0
  3
Phantom (.5x) ___ _ _ ___ _ _ ___ _ _ ___ _ _ ___
 72
65
 73
6
 40
3.175
 49
1.587
 74
0
 49
-0.318
 74
0
 49
0.318
 74
0
 49
-0.318
 74
0
 49
0.318
 74
0
 49
-0.318
 74
0
  0
LTYPE
  5
38
330
2
100
AcDbSymbolTableRecord
100
AcDbLinetypeTableRecord
  2
DASHDOT
 70
0
  3
Dash dot __ . __ . __ . __ . __ . __ . __ . __
 72
65
 73
4
 40
3.556
 49
2.54
 74
0
 49
-0.508
 74
0
 49
0.0
 74
0
 49
-0.508
 74
0
  0
LTYPE
  5
39
330
2
100
AcDbSymbolTableRecord
100
AcDbLinetypeTableRecord
  2
DASHDOTX2
 70
0
  3
Dash dot (2x) ____  .  ____  .  ____  .  ____
 72
65
 73
4
 40
6.096
 49
5.08
 74
0
 49
-0.508
 74
0
 49
0.0
 74
0
 49
-0.508
 74
0
  0
LTYPE
  5
3A
330
2
100
AcDbSymbolTableRecord
100
AcDbLinetypeTableRecord
  2
DASHDOT2
 70
0
  3
Dash dot (.5x) _ . _ . _ . _ . _ . _ . _ . _
 72
65
 73
4
 40
1.778
 49
1.27
 74
0
 49
-0.254
 74
0
 49
0.0
 74
0
 49
-0.254
 74
0
  0
LTYPE
  5
3B
330
2
100
AcDbSymbolTableRecord
100
AcDbLinetypeTableRecord
  2
DOT
 70
0
  3
Dot .  .  .  .  .  .  .  .  .  .  .  .  .  .  .  .
 72
65
 73
2
 40
0.508
 49
0.0
 74
0
 49
-0.508
 74
0
  0
LTYPE
  5
3C
330
2
100
AcDbSymbolTableRecord
100
AcDbLinetypeTableRecord
  2
DOTX2
 70
0
  3
Dot (2x) .    .    .    .    .    .    .    . 
 72
65
 73
2
 40
1.016
 49
0.0
 74
0
 49
-1.016
 74
0
  0
LTYPE
  5
3D
330
2
100
AcDbSymbolTableRecord
100
AcDbLinetypeTableRecord
  2
DOT2
 70
0
  3
Dot (.5) . . . . . . . . . . . . . . . . . . . 
 72
65
 73
2
 40
0.254
 49
0.0
 74
0
 49
-0.254
 74
0
  0
LTYPE
  5
3E
330
2
100
AcDbSymbolTableRecord
100
AcDbLinetypeTableRecord
  2
DIVIDE
 70
0
  3
Divide __ . . __ . . __ . . __ . . __ . . __
 72
65
 73
6
 40
4.064
 49
2.54
 74
0
 49
-0.508
 74
0
 49
0.0
 74
0
 49
-0.508
 74
0
 49
0.0
 74
0
 49
-0.508
 74
0
  0
LTYPE
  5
3F
330
2
100
AcDbSymbolTableRecord
100
AcDbLinetypeTableRecord
  2
DIVIDEX2
 70
0
  3
Divide (2x) ____  . .  ____  . .  ____  . .  ____
 72
65
 73
6
 40
6.604
 49
5.08
 74
0
 49
-0.508
 74
0
 49
0.0
 74
0
 49
-0.508
 74
0
 49
0.0
 74
0
 49
-0.508
 74
0
  0
LTYPE
  5
40
330
2
100
AcDbSymbolTableRecord
100
AcDbLinetypeTableRecord
  2
DIVIDE2
 70
0
  3
Divide(.5x) _ . _ . _ . _ . _ . _ . _ . _
 72
65
 73
6
 40
2.032
 49
1.27
 74
0
 49
-0.254
 74
0
 49
0.0
 74
0
 49
-0.254
 74
0
 49
0.0
 74
0
 49
-0.254
 74
0
  0
ENDTAB
  0
TABLE
  2
LAYER
  5
1
330
0
100
AcDbSymbolTable
 70
15
  0
LAYER
  5
27
330
1
100
AcDbSymbolTableRecord
100
AcDbLayerTableRecord
  2
0
 70
0
 62
7
  6
Continuous
370
-3
390
13
347
21
  0
LAYER
  5
28
330
1
100
AcDbSymbolTableRecord
100
AcDbLayerTableRecord
  2
Defpoints
 70
0
 62
7
  6
Continuous
290
0
370
-3
390
13
347
21
  0
LAYER
  5
8A
330
1
100
AcDbSymbolTableRecord
100
AcDbLayerTableRecord
  2
0_POLIGONO_GENERAL
 70
0
 62
4
  6
Continuous
370
50
390
13
347
21
  0
LAYER
  5
8B
330
1
100
AcDbSymbolTableRecord
100
AcDbLayerTableRecord
  2
0_HUELLA_CENTRAL
 70
0
 62
2
  6
Continuous
370
40
390
13
347
21
  0
LAYER
  5
8C
330
1
100
AcDbSymbolTableRecord
100
AcDbLayerTableRecord
  2
SUBDIVISION_LOT_C01
 70
0
 62
30
  6
Continuous
370
35
390
13
347
21
  0
LAYER
  5
8D
330
1
100
AcDbSymbolTableRecord
100
AcDbLayerTableRecord
  2
SUBDIVISION_LOT_C02
 70
0
 62
140
  6
Continuous
370
35
390
13
347
21
  0
LAYER
  5
8E
330
1
100
AcDbSymbolTableRecord
100
AcDbLayerTableRecord
  2
SUBDIVISION_LOT_C03
 70
0
 62
210
  6
Continuous
370
35
390
13
347
21
  0
LAYER
  5
8F
330
1
100
AcDbSymbolTableRecord
100
AcDbLayerTableRecord
  2
0_DIVISORIAS_INTERNAS
 70
0
 62
1
  6
Continuous
370
35
390
13
347
21
  0
LAYER
  5
90
330
1
100
AcDbSymbolTableRecord
100
AcDbLayerTableRecord
  2
0_COTAS_METRICAS
 70
0
 62
1
  6
Continuous
370
18
390
13
347
21
  0
LAYER
  5
91
330
1
100
AcDbSymbolTableRecord
100
AcDbLayerTableRecord
  2
0_ESTACIONAMIENTOS
 70
0
 62
3
  6
Continuous
370
25
390
13
347
21
  0
LAYER
  5
92
330
1
100
AcDbSymbolTableRecord
100
AcDbLayerTableRecord
  2
0_ACCESO_VIAL
 70
0
 62
6
  6
Continuous
370
30
390
13
347
21
  0
LAYER
  5
93
330
1
100
AcDbSymbolTableRecord
100
AcDbLayerTableRecord
  2
0_CIRCULACION_GANDOLAS
 70
0
 62
3
  6
Continuous
370
50
390
13
347
21
  0
LAYER
  5
94
330
1
100
AcDbSymbolTableRecord
100
AcDbLayerTableRecord
  2
0_TEXTOS_COTAS
 70
0
 62
7
  6
Continuous
370
25
390
13
347
21
  0
LAYER
  5
95
330
1
100
AcDbSymbolTableRecord
100
AcDbLayerTableRecord
  2
0_CUADRO_TECNICO
 70
0
 62
7
  6
Continuous
370
30
390
13
347
21
  0
LAYER
  5
96
330
1
100
AcDbSymbolTableRecord
100
AcDbLayerTableRecord
  2
0_GRILLA_UTM
 70
0
 62
8
  6
Continuous
370
13
390
13
347
21
  0
ENDTAB
  0
TABLE
  2
STYLE
  5
5
330
0
100
AcDbSymbolTable
 70
26
  0
STYLE
  5
29
330
5
100
AcDbSymbolTableRecord
100
AcDbTextStyleTableRecord
  2
Standard
 70
0
 40
0.0
 41
1.0
 50
0.0
 71
0
 42
2.5
  3
txt
  4

  0
STYLE
  5
41
330
5
100
AcDbSymbolTableRecord
100
AcDbTextStyleTableRecord
  2
OpenSans-Light
 70
0
 40
0.0
 41
1.0
 50
0.0
 71
0
 42
2.5
  3
OpenSans-Light.ttf
  4

  0
STYLE
  5
42
330
5
100
AcDbSymbolTableRecord
100
AcDbTextStyleTableRecord
  2
OpenSans-Light-Italic
 70
0
 40
0.0
 41
1.0
 50
0.0
 71
0
 42
2.5
  3
OpenSans-LightItalic.ttf
  4

  0
STYLE
  5
43
330
5
100
AcDbSymbolTableRecord
100
AcDbTextStyleTableRecord
  2
OpenSans
 70
0
 40
0.0
 41
1.0
 50
0.0
 71
0
 42
2.5
  3
OpenSans-Regular.ttf
  4

  0
STYLE
  5
44
330
5
100
AcDbSymbolTableRecord
100
AcDbTextStyleTableRecord
  2
OpenSans-Italic
 70
0
 40
0.0
 41
1.0
 50
0.0
 71
0
 42
2.5
  3
OpenSans-Italic.ttf
  4

  0
STYLE
  5
45
330
5
100
AcDbSymbolTableRecord
100
AcDbTextStyleTableRecord
  2
OpenSans-SemiBold
 70
0
 40
0.0
 41
1.0
 50
0.0
 71
0
 42
2.5
  3
OpenSans-SemiBold.ttf
  4

  0
STYLE
  5
46
330
5
100
AcDbSymbolTableRecord
100
AcDbTextStyleTableRecord
  2
OpenSans-SemiBoldItalic
 70
0
 40
0.0
 41
1.0
 50
0.0
 71
0
 42
2.5
  3
OpenSans-SemiBoldItalic.ttf
  4

  0
STYLE
  5
47
330
5
100
AcDbSymbolTableRecord
100
AcDbTextStyleTableRecord
  2
OpenSans-Bold
 70
0
 40
0.0
 41
1.0
 50
0.0
 71
0
 42
2.5
  3
OpenSans-Bold.ttf
  4

  0
STYLE
  5
48
330
5
100
AcDbSymbolTableRecord
100
AcDbTextStyleTableRecord
  2
OpenSans-BoldItalic
 70
0
 40
0.0
 41
1.0
 50
0.0
 71
0
 42
2.5
  3
OpenSans-BoldItalic.ttf
  4

  0
STYLE
  5
49
330
5
100
AcDbSymbolTableRecord
100
AcDbTextStyleTableRecord
  2
OpenSans-ExtraBold
 70
0
 40
0.0
 41
1.0
 50
0.0
 71
0
 42
2.5
  3
OpenSans-ExtraBold.ttf
  4

  0
STYLE
  5
4A
330
5
100
AcDbSymbolTableRecord
100
AcDbTextStyleTableRecord
  2
OpenSans-ExtraBoldItalic
 70
0
 40
0.0
 41
1.0
 50
0.0
 71
0
 42
2.5
  3
OpenSans-ExtraBoldItalic.ttf
  4

  0
STYLE
  5
4B
330
5
100
AcDbSymbolTableRecord
100
AcDbTextStyleTableRecord
  2
OpenSansCondensed-Bold
 70
0
 40
0.0
 41
1.0
 50
0.0
 71
0
 42
2.5
  3
OpenSansCondensed-Bold.ttf
  4

  0
STYLE
  5
4C
330
5
100
AcDbSymbolTableRecord
100
AcDbTextStyleTableRecord
  2
OpenSansCondensed-Light
 70
0
 40
0.0
 41
1.0
 50
0.0
 71
0
 42
2.5
  3
OpenSansCondensed-Light.ttf
  4

  0
STYLE
  5
4D
330
5
100
AcDbSymbolTableRecord
100
AcDbTextStyleTableRecord
  2
OpenSansCondensed-Italic
 70
0
 40
0.0
 41
1.0
 50
0.0
 71
0
 42
2.5
  3
OpenSansCondensed-LightItalic.ttf
  4

  0
STYLE
  5
4E
330
5
100
AcDbSymbolTableRecord
100
AcDbTextStyleTableRecord
  2
LiberationSans
 70
0
 40
0.0
 41
1.0
 50
0.0
 71
0
 42
2.5
  3
LiberationSans-Regular.ttf
  4

  0
STYLE
  5
4F
330
5
100
AcDbSymbolTableRecord
100
AcDbTextStyleTableRecord
  2
LiberationSans-Bold
 70
0
 40
0.0
 41
1.0
 50
0.0
 71
0
 42
2.5
  3
LiberationSans-Bold.ttf
  4

  0
STYLE
  5
50
330
5
100
AcDbSymbolTableRecord
100
AcDbTextStyleTableRecord
  2
LiberationSans-BoldItalic
 70
0
 40
0.0
 41
1.0
 50
0.0
 71
0
 42
2.5
  3
LiberationSans-BoldItalic.ttf
  4

  0
STYLE
  5
51
330
5
100
AcDbSymbolTableRecord
100
AcDbTextStyleTableRecord
  2
LiberationSans-Italic
 70
0
 40
0.0
 41
1.0
 50
0.0
 71
0
 42
2.5
  3
LiberationSans-Italic.ttf
  4

  0
STYLE
  5
52
330
5
100
AcDbSymbolTableRecord
100
AcDbTextStyleTableRecord
  2
LiberationSerif
 70
0
 40
0.0
 41
1.0
 50
0.0
 71
0
 42
2.5
  3
LiberationSerif-Regular.ttf
  4

  0
STYLE
  5
53
330
5
100
AcDbSymbolTableRecord
100
AcDbTextStyleTableRecord
  2
LiberationSerif-Bold
 70
0
 40
0.0
 41
1.0
 50
0.0
 71
0
 42
2.5
  3
LiberationSerif-Bold.ttf
  4

  0
STYLE
  5
54
330
5
100
AcDbSymbolTableRecord
100
AcDbTextStyleTableRecord
  2
LiberationSerif-BoldItalic
 70
0
 40
0.0
 41
1.0
 50
0.0
 71
0
 42
2.5
  3
LiberationSerif-BoldItalic.ttf
  4

  0
STYLE
  5
55
330
5
100
AcDbSymbolTableRecord
100
AcDbTextStyleTableRecord
  2
LiberationSerif-Italic
 70
0
 40
0.0
 41
1.0
 50
0.0
 71
0
 42
2.5
  3
LiberationSerif-Italic.ttf
  4

  0
STYLE
  5
56
330
5
100
AcDbSymbolTableRecord
100
AcDbTextStyleTableRecord
  2
LiberationMono
 70
0
 40
0.0
 41
1.0
 50
0.0
 71
0
 42
2.5
  3
LiberationMono-Regular.ttf
  4

  0
STYLE
  5
57
330
5
100
AcDbSymbolTableRecord
100
AcDbTextStyleTableRecord
  2
LiberationMono-Bold
 70
0
 40
0.0
 41
1.0
 50
0.0
 71
0
 42
2.5
  3
LiberationMono-Bold.ttf
  4

  0
STYLE
  5
58
330
5
100
AcDbSymbolTableRecord
100
AcDbTextStyleTableRecord
  2
LiberationMono-BoldItalic
 70
0
 40
0.0
 41
1.0
 50
0.0
 71
0
 42
2.5
  3
LiberationMono-BoldItalic.ttf
  4

  0
STYLE
  5
59
330
5
100
AcDbSymbolTableRecord
100
AcDbTextStyleTableRecord
  2
LiberationMono-Italic
 70
0
 40
0.0
 41
1.0
 50
0.0
 71
0
 42
2.5
  3
LiberationMono-Italic.ttf
  4

  0
ENDTAB
  0
TABLE
  2
VIEW
  5
7
330
0
100
AcDbSymbolTable
 70
0
  0
ENDTAB
  0
TABLE
  2
UCS
  5
6
330
0
100
AcDbSymbolTable
 70
0
  0
ENDTAB
  0
TABLE
  2
APPID
  5
3
330
0
100
AcDbSymbolTable
 70
3
  0
APPID
  5
2A
330
3
100
AcDbSymbolTableRecord
100
AcDbRegAppTableRecord
  2
ACAD
 70
0
  0
APPID
  5
15E
330
3
100
AcDbSymbolTableRecord
100
AcDbRegAppTableRecord
  2
HATCHBACKGROUNDCOLOR
 70
0
  0
APPID
  5
15F
330
3
100
AcDbSymbolTableRecord
100
AcDbRegAppTableRecord
  2
EZDXF
 70
0
  0
ENDTAB
  0
TABLE
  2
DIMSTYLE
  5
4
330
0
100
AcDbSymbolTable
 70
12
100
AcDbDimStyleTable
  0
DIMSTYLE
105
2B
330
4
100
AcDbSymbolTableRecord
100
AcDbDimStyleTableRecord
  2
Standard
 70
0
 40
1.0
 41
2.5
 42
0.625
 43
3.75
 44
1.25
 45
0.0
 46
0.0
 47
0.0
 48
0.0
 49
2.5
140
2.5
141
2.5
142
0.0
143
0.03937007874
144
1.0
145
0.0
146
1.0
147
0.625
148
0.0
 69
0
 70
0
 71
0
 72
0
 73
0
 74
0
 75
0
 76
0
 77
1
 78
8
 79
3
170
0
171
3
172
1
173
0
174
0
175
0
176
0
177
0
178
0
179
2
271
2
272
2
273
2
274
3
275
0
276
0
277
2
278
44
279
0
280
0
281
0
282
0
283
0
284
8
285
0
286
0
288
0
289
3
290
0
371
-2
372
-2
  0
DIMSTYLE
105
73
330
4
100
AcDbSymbolTableRecord
100
AcDbDimStyleTableRecord
  2
EZDXF
 70
0
 40
1.0
 41
0.175
 42
0.125
 43
3.75
 44
0.375
 45
0.0
 46
0.0
 47
0.0
 48
0.0
 49
2.5
140
0.25
141
2.5
142
0.0
143
0.03937007874
144
100.0
145
0.0
146
0.5
147
0.1
148
0.0
 69
0
 70
0
 71
0
 72
0
 73
0
 74
0
 75
0
 76
0
 77
1
 78
12
 79
3
170
0
171
3
172
1
173
0
174
0
175
0
176
0
177
0
178
0
179
2
271
2
272
2
273
2
274
3
275
0
276
0
277
2
278
46
279
2
280
0
281
0
282
0
283
0
284
8
285
0
286
0
288
1
289
3
290
0
340
4C
342
74
371
-2
372
-2
  0
DIMSTYLE
105
7C
330
4
100
AcDbSymbolTableRecord
100
AcDbDimStyleTableRecord
  2
EZ_M_100_H25_CM
 70
0
 40
1.0
 41
0.25
 42
0.125
 43
3.75
 44
0.375
 45
0.0
 46
0.0
 47
0.0
 48
0.0
 49
2.5
140
0.25
141
2.5
142
0.125
143
0.03937007874
144
100.0
145
0.0
146
0.5
147
0.1
148
0.0
 69
0
 70
0
 71
0
 72
0
 73
0
 74
0
 75
0
 76
0
 77
1
 78
12
 79
3
170
0
171
3
172
1
173
0
174
0
175
0
176
0
177
0
178
0
179
2
271
2
272
2
273
2
274
3
275
0
276
0
277
2
278
46
279
2
280
0
281
0
282
0
283
0
284
8
285
0
286
0
288
1
289
3
290
0
340
4C
371
-2
372
-2
  0
DIMSTYLE
105
7D
330
4
100
AcDbSymbolTableRecord
100
AcDbDimStyleTableRecord
  2
EZ_M_50_H25_CM
 70
0
 40
1.0
 41
0.125
 42
0.0625
 43
3.75
 44
0.1875
 45
0.0
 46
0.0
 47
0.0
 48
0.0
 49
2.5
140
0.125
141
2.5
142
0.0625
143
0.03937007874
144
100.0
145
0.0
146
0.5
147
0.05
148
0.0
 69
0
 70
0
 71
0
 72
0
 73
0
 74
0
 75
0
 76
0
 77
1
 78
12
 79
3
170
0
171
3
172
1
173
0
174
0
175
0
176
0
177
0
178
0
179
2
271
2
272
2
273
2
274
3
275
0
276
0
277
2
278
46
279
2
280
0
281
0
282
0
283
0
284
8
285
0
286
0
288
1
289
3
290
0
340
4C
371
-2
372
-2
  0
DIMSTYLE
105
7E
330
4
100
AcDbSymbolTableRecord
100
AcDbDimStyleTableRecord
  2
EZ_M_25_H25_CM
 70
0
 40
1.0
 41
0.0625
 42
0.03125
 43
3.75
 44
0.09375
 45
0.0
 46
0.0
 47
0.0
 48
0.0
 49
2.5
140
0.0625
141
2.5
142
0.03125
143
0.03937007874
144
100.0
145
0.0
146
0.5
147
0.025
148
0.0
 69
0
 70
0
 71
0
 72
0
 73
0
 74
0
 75
0
 76
0
 77
1
 78
12
 79
3
170
0
171
3
172
1
173
0
174
0
175
0
176
0
177
0
178
0
179
2
271
2
272
2
273
2
274
3
275
0
276
0
277
2
278
46
279
2
280
0
281
0
282
0
283
0
284
8
285
0
286
0
288
1
289
3
290
0
340
4C
371
-2
372
-2
  0
DIMSTYLE
105
7F
330
4
100
AcDbSymbolTableRecord
100
AcDbDimStyleTableRecord
  2
EZ_M_20_H25_CM
 70
0
 40
1.0
 41
0.05
 42
0.025
 43
3.75
 44
0.07500000000000001
 45
0.0
 46
0.0
 47
0.0
 48
0.0
 49
2.5
140
0.05
141
2.5
142
0.025
143
0.03937007874
144
100.0
145
0.0
146
0.5
147
0.020000000000000004
148
0.0
 69
0
 70
0
 71
0
 72
0
 73
0
 74
0
 75
0
 76
0
 77
1
 78
12
 79
3
170
0
171
3
172
1
173
0
174
0
175
0
176
0
177
0
178
0
179
2
271
2
272
2
273
2
274
3
275
0
276
0
277
2
278
46
279
2
280
0
281
0
282
0
283
0
284
8
285
0
286
0
288
1
289
3
290
0
340
4C
371
-2
372
-2
  0
DIMSTYLE
105
80
330
4
100
AcDbSymbolTableRecord
100
AcDbDimStyleTableRecord
  2
EZ_M_10_H25_CM
 70
0
 40
1.0
 41
0.025
 42
0.0125
 43
3.75
 44
0.037500000000000006
 45
0.0
 46
0.0
 47
0.0
 48
0.0
 49
2.5
140
0.025
141
2.5
142
0.0125
143
0.03937007874
144
100.0
145
0.0
146
0.5
147
0.010000000000000002
148
0.0
 69
0
 70
0
 71
0
 72
0
 73
0
 74
0
 75
0
 76
0
 77
1
 78
12
 79
3
170
0
171
3
172
1
173
0
174
0
175
0
176
0
177
0
178
0
179
2
271
2
272
2
273
2
274
3
275
0
276
0
277
2
278
46
279
2
280
0
281
0
282
0
283
0
284
8
285
0
286
0
288
1
289
3
290
0
340
4C
371
-2
372
-2
  0
DIMSTYLE
105
81
330
4
100
AcDbSymbolTableRecord
100
AcDbDimStyleTableRecord
  2
EZ_M_5_H25_CM
 70
0
 40
1.0
 41
0.0125
 42
0.00625
 43
3.75
 44
0.018750000000000003
 45
0.0
 46
0.0
 47
0.0
 48
0.0
 49
2.5
140
0.0125
141
2.5
142
0.00625
143
0.03937007874
144
100.0
145
0.0
146
0.5
147
0.005000000000000001
148
0.0
 69
0
 70
0
 71
0
 72
0
 73
0
 74
0
 75
0
 76
0
 77
1
 78
12
 79
3
170
0
171
3
172
1
173
0
174
0
175
0
176
0
177
0
178
0
179
2
271
2
272
2
273
2
274
3
275
0
276
0
277
2
278
46
279
2
280
0
281
0
282
0
283
0
284
8
285
0
286
0
288
1
289
3
290
0
340
4C
371
-2
372
-2
  0
DIMSTYLE
105
82
330
4
100
AcDbSymbolTableRecord
100
AcDbDimStyleTableRecord
  2
EZ_M_1_H25_CM
 70
0
 40
1.0
 41
0.0025
 42
0.00125
 43
3.75
 44
0.00375
 45
0.0
 46
0.0
 47
0.0
 48
0.0
 49
2.5
140
0.0025
141
2.5
142
0.00125
143
0.03937007874
144
100.0
145
0.0
146
0.5
147
0.001
148
0.0
 69
0
 70
0
 71
0
 72
0
 73
0
 74
0
 75
0
 76
0
 77
1
 78
12
 79
3
170
0
171
3
172
1
173
0
174
0
175
0
176
0
177
0
178
0
179
2
271
2
272
2
273
2
274
3
275
0
276
0
277
2
278
46
279
2
280
0
281
0
282
0
283
0
284
8
285
0
286
0
288
1
289
3
290
0
340
4C
371
-2
372
-2
  0
DIMSTYLE
105
83
330
4
100
AcDbSymbolTableRecord
100
AcDbDimStyleTableRecord
  2
EZ_RADIUS
 70
0
 40
1.0
 41
0.25
 42
0.125
 43
3.75
 44
0.375
 45
0.0
 46
0.0
 47
0.0
 48
0.0
 49
2.5
140
0.25
141
0.0
142
0.0
143
0.03937007874
144
100.0
145
0.0
146
0.5
147
0.1
148
0.0
 69
0
 70
0
 71
0
 72
0
 73
0
 74
0
 75
0
 76
0
 77
1
 78
12
 79
3
170
0
171
3
172
0
173
0
174
0
175
0
176
0
177
0
178
0
179
2
271
2
272
2
273
2
274
3
275
0
276
0
277
2
278
46
279
1
280
0
281
0
282
0
283
0
284
8
285
0
286
0
288
1
289
3
290
0
340
4C
342
84
371
-2
372
-2
  0
DIMSTYLE
105
88
330
4
100
AcDbSymbolTableRecord
100
AcDbDimStyleTableRecord
  2
EZ_RADIUS_INSIDE
 70
0
 40
1.0
 41
0.25
 42
0.125
 43
3.75
 44
0.375
 45
0.0
 46
0.0
 47
0.0
 48
0.0
 49
2.5
140
0.25
141
0.0
142
0.0
143
0.03937007874
144
100.0
145
0.0
146
0.5
147
0.1
148
0.0
 69
0
 70
0
 71
0
 72
0
 73
0
 74
0
 75
0
 76
0
 77
0
 78
12
 79
3
170
0
171
3
172
0
173
0
174
1
175
0
176
0
177
0
178
0
179
2
271
2
272
2
273
2
274
3
275
0
276
0
277
2
278
46
279
0
280
0
281
0
282
0
283
0
284
8
285
0
286
0
288
1
289
0
290
0
340
4C
342
84
371
-2
372
-2
  0
DIMSTYLE
105
89
330
4
100
AcDbSymbolTableRecord
100
AcDbDimStyleTableRecord
  2
EZ_CURVED
 70
0
 40
1.0
 41
0.25
 42
0.125
 43
3.75
 44
0.375
 45
0.0
 46
0.0
 47
0.0
 48
0.0
 49
2.5
140
0.25
141
2.5
142
0.0
143
0.03937007874
144
100.0
145
0.0
146
0.5
147
0.1
148
0.0
 69
0
 70
0
 71
0
 72
0
 73
0
 74
0
 75
0
 76
0
 77
1
 78
12
 79
2
 90
2
170
0
171
3
172
1
173
0
174
0
175
0
176
0
177
0
178
0
179
2
271
2
272
2
273
2
274
3
275
0
276
0
277
2
278
46
279
2
280
0
281
0
282
0
283
0
284
8
285
0
286
0
288
1
289
3
290
0
340
4C
371
-2
372
-2
  0
ENDTAB
  0
TABLE
  2
BLOCK_RECORD
  5
9
330
0
100
AcDbSymbolTable
 70
5
  0
BLOCK_RECORD
  5
17
330
9
100
AcDbSymbolTableRecord
100
AcDbBlockTableRecord
  2
*Model_Space
340
1A
 70
0
280
1
281
0
  0
BLOCK_RECORD
  5
1B
330
9
100
AcDbSymbolTableRecord
100
AcDbBlockTableRecord
  2
*Paper_Space
340
1E
 70
0
280
1
281
0
  0
BLOCK_RECORD
  5
74
330
9
100
AcDbSymbolTableRecord
100
AcDbBlockTableRecord
  2
_ARCHTICK
340
0
 70
0
280
1
281
0
  0
BLOCK_RECORD
  5
78
330
9
100
AcDbSymbolTableRecord
100
AcDbBlockTableRecord
  2
_CLOSEDFILLED
340
0
 70
0
280
1
281
0
  0
BLOCK_RECORD
  5
84
330
9
100
AcDbSymbolTableRecord
100
AcDbBlockTableRecord
  2
_CLOSEDBLANK
340
0
 70
0
280
1
281
0
  0
ENDTAB
  0
ENDSEC
  0
SECTION
  2
BLOCKS
  0
BLOCK
  5
18
330
17
100
AcDbEntity
  8
0
100
AcDbBlockBegin
  2
*Model_Space
 70
0
 10
0.0
 20
0.0
 30
0.0
  3
*Model_Space
  1

  0
ENDBLK
  5
19
330
17
100
AcDbEntity
  8
0
100
AcDbBlockEnd
  0
BLOCK
  5
1C
330
1B
100
AcDbEntity
  8
0
100
AcDbBlockBegin
  2
*Paper_Space
 70
0
 10
0.0
 20
0.0
 30
0.0
  3
*Paper_Space
  1

  0
ENDBLK
  5
1D
330
1B
100
AcDbEntity
  8
0
100
AcDbBlockEnd
  0
BLOCK
  5
75
330
74
100
AcDbEntity
  8
0
100
AcDbBlockBegin
  2
_ARCHTICK
 70
0
 10
0.0
 20
0.0
 30
0.0
  3
_ARCHTICK
  1

  0
LWPOLYLINE
  5
77
330
74
100
AcDbEntity
  8
0
  6
BYBLOCK
 62
0
100
AcDbPolyline
 90
2
 70
0
 43
0.15
 10
-0.5
 20
-0.5
 10
0.5
 20
0.5
  0
ENDBLK
  5
76
330
74
100
AcDbEntity
  8
0
100
AcDbBlockEnd
  0
BLOCK
  5
79
330
78
100
AcDbEntity
  8
0
100
AcDbBlockBegin
  2
_CLOSEDFILLED
 70
0
 10
0.0
 20
0.0
 30
0.0
  3
_CLOSEDFILLED
  1

  0
SOLID
  5
7B
330
78
100
AcDbEntity
  8
0
  6
BYBLOCK
 62
0
100
AcDbTrace
 10
-1.0
 20
0.16439898372402537
 30
0.0
 11
0.0
 21
0.0
 31
0.0
 12
-1.0
 22
-0.16439898372402537
 32
0.0
 13
-1.0
 23
-0.16439898372402537
 33
0.0
  0
ENDBLK
  5
7A
330
78
100
AcDbEntity
  8
0
100
AcDbBlockEnd
  0
BLOCK
  5
85
330
84
100
AcDbEntity
  8
0
100
AcDbBlockBegin
  2
_CLOSEDBLANK
 70
0
 10
0.0
 20
0.0
 30
0.0
  3
_CLOSEDBLANK
  1

  0
LWPOLYLINE
  5
87
330
84
100
AcDbEntity
  8
0
  6
BYBLOCK
 62
0
100
AcDbPolyline
 90
3
 70
1
 10
-1.0
 20
0.16439898372402537
 10
0.0
 20
0.0
 10
-1.0
 20
-0.16439898372402537
  0
ENDBLK
  5
86
330
84
100
AcDbEntity
  8
0
100
AcDbBlockEnd
  0
ENDSEC
  0
SECTION
  2
ENTITIES
  0
LWPOLYLINE
  5
97
330
17
100
AcDbEntity
  8
0_POLIGONO_GENERAL
100
AcDbPolyline
 90
4
 70
1
 10
978685.2305062715
 20
1131217.6714780338
 10
978784.7652216947
 20
1131194.7888661367
 10
978815.5539882217
 20
1131328.0282654667
 10
978709.0053358676
 20
1131349.7290306224
  0
CIRCLE
  5
98
330
17
100
AcDbEntity
  8
0_POLIGONO_GENERAL
100
AcDbCircle
 10
978685.2305062715
 20
1131217.6714780338
 30
0.0
 40
0.8
  0
TEXT
  5
99
330
17
100
AcDbEntity
  8
0_TEXTOS_COTAS
100
AcDbText
 10
978686.7305062715
 20
1131219.1714780338
 30
0.0
 40
1.2
  1
P1 (SW): X=978685.23, Y=1131217.67
 11
978686.7305062715
 21
1131219.1714780338
 31
0.0
100
AcDbText
  0
CIRCLE
  5
9A
330
17
100
AcDbEntity
  8
0_POLIGONO_GENERAL
100
AcDbCircle
 10
978784.7652216947
 20
1131194.7888661367
 30
0.0
 40
0.8
  0
TEXT
  5
9B
330
17
100
AcDbEntity
  8
0_TEXTOS_COTAS
100
AcDbText
 10
978786.2652216947
 20
1131196.2888661367
 30
0.0
 40
1.2
  1
P2 (SE): X=978784.77, Y=1131194.79
 11
978786.2652216947
 21
1131196.2888661367
 31
0.0
100
AcDbText
  0
CIRCLE
  5
9C
330
17
100
AcDbEntity
  8
0_POLIGONO_GENERAL
100
AcDbCircle
 10
978815.5539882217
 20
1131328.0282654667
 30
0.0
 40
0.8
  0
TEXT
  5
9D
330
17
100
AcDbEntity
  8
0_TEXTOS_COTAS
100
AcDbText
 10
978817.0539882217
 20
1131329.5282654667
 30
0.0
 40
1.2
  1
P3 (NE): X=978815.55, Y=1131328.03
 11
978817.0539882217
 21
1131329.5282654667
 31
0.0
100
AcDbText
  0
CIRCLE
  5
9E
330
17
100
AcDbEntity
  8
0_POLIGONO_GENERAL
100
AcDbCircle
 10
978709.0053358676
 20
1131349.7290306224
 30
0.0
 40
0.8
  0
TEXT
  5
9F
330
17
100
AcDbEntity
  8
0_TEXTOS_COTAS
100
AcDbText
 10
978710.5053358676
 20
1131351.2290306224
 30
0.0
 40
1.2
  1
P4 (NW): X=978709.01, Y=1131349.73
 11
978710.5053358676
 21
1131351.2290306224
 31
0.0
100
AcDbText
  0
LWPOLYLINE
  5
A0
330
17
100
AcDbEntity
  8
0_HUELLA_CENTRAL
100
AcDbPolyline
 90
4
 70
1
 10
978728.8159826964
 20
1131346.0937863984
 10
978713.4134300803
 20
1131263.4284485716
 10
978775.3077080706
 20
1131254.8403170693
 10
978791.8601398832
 20
1131332.8861444679
  0
LWPOLYLINE
  5
A1
330
17
100
AcDbEntity
  8
SUBDIVISION_LOT_C01
100
AcDbPolyline
 90
4
 70
1
 10
978728.8159826964
 20
1131346.0937863984
 10
978723.6855265992
 20
1131318.5350232027
 10
978786.3462897416
 20
1131306.874609208
 10
978791.8601398832
 20
1131332.8861444679
  0
LWPOLYLINE
  5
A2
330
17
100
AcDbEntity
  8
SUBDIVISION_LOT_C02
100
AcDbPolyline
 90
4
 70
1
 10
978723.6855265992
 20
1131318.5350232027
 10
978718.5439205931
 20
1131290.9872027682
 10
978780.8215906803
 20
1131280.8518430921
 10
978786.3462897416
 20
1131306.874609208
  0
LWPOLYLINE
  5
A3
330
17
100
AcDbEntity
  8
SUBDIVISION_LOT_C03
100
AcDbPolyline
 90
4
 70
1
 10
978718.5439205931
 20
1131290.9872027682
 10
978713.4134300803
 20
1131263.4284485716
 10
978775.3077080706
 20
1131254.8403170693
 10
978780.8215906803
 20
1131280.8518430921
  0
LINE
  5
A4
330
17
100
AcDbEntity
  8
0_DIVISORIAS_INTERNAS
  6
DASHED
100
AcDbLine
 10
978723.6855265992
 20
1131318.5350232027
 30
0.0
 11
978786.3462897416
 21
1131306.874609208
 31
0.0
  0
LINE
  5
A5
330
17
100
AcDbEntity
  8
0_DIVISORIAS_INTERNAS
  6
DASHED
100
AcDbLine
 10
978718.5439205931
 20
1131290.9872027682
 30
0.0
 11
978780.8215906803
 21
1131280.8518430921
 31
0.0
  0
CIRCLE
  5
A6
330
17
100
AcDbEntity
  8
0_DIVISORIAS_INTERNAS
100
AcDbCircle
 10
978723.6855265992
 20
1131318.5350232027
 30
0.0
 40
0.45
  0
CIRCLE
  5
A7
330
17
100
AcDbEntity
  8
0_DIVISORIAS_INTERNAS
100
AcDbCircle
 10
978786.3462897416
 20
1131306.874609208
 30
0.0
 40
0.45
  0
CIRCLE
  5
A8
330
17
100
AcDbEntity
  8
0_DIVISORIAS_INTERNAS
100
AcDbCircle
 10
978718.5439205931
 20
1131290.9872027682
 30
0.0
 40
0.45
  0
CIRCLE
  5
A9
330
17
100
AcDbEntity
  8
0_DIVISORIAS_INTERNAS
100
AcDbCircle
 10
978780.8215906803
 20
1131280.8518430921
 30
0.0
 40
0.45
  0
TEXT
  5
AA
330
17
100
AcDbEntity
  8
SUBDIVISION_LOT_C01
100
AcDbText
 10
978743.6769847301
 20
1131327.2973908193
 30
0.0
 40
1.8
  1
LOT-C01 (NORTE) - 1.730 m2
 11
978743.6769847301
 21
1131327.2973908193
 31
0.0
100
AcDbText
  0
TEXT
  5
AB
330
17
100
AcDbEntity
  8
0_TEXTOS_COTAS
100
AcDbText
 10
978739.6769847301
 20
1131324.6973908194
 30
0.0
 40
1.0
  1
FTE. VIAL OESTE: 27.95 m | SHOWROOM / RETAIL
 11
978739.6769847301
 21
1131324.6973908194
 31
0.0
100
AcDbText
  0
TEXT
  5
AC
330
17
100
AcDbEntity
  8
SUBDIVISION_LOT_C02
100
AcDbText
 10
978738.3493319035
 20
1131300.5121695676
 30
0.0
 40
1.8
  1
LOT-C02 (CENTRO) - 1.730 m2
 11
978738.3493319035
 21
1131300.5121695676
 31
0.0
100
AcDbText
  0
TEXT
  5
AD
330
17
100
AcDbEntity
  8
0_TEXTOS_COTAS
100
AcDbText
 10
978734.3493319035
 20
1131297.9121695678
 30
0.0
 40
1.0
  1
FTE. VIAL OESTE: 27.95 m | LOGISTICA Y DISTRIBUCION
 11
978734.3493319035
 21
1131297.9121695678
 31
0.0
100
AcDbText
  0
TEXT
  5
AE
330
17
100
AcDbEntity
  8
SUBDIVISION_LOT_C03
100
AcDbText
 10
978733.0216623561
 20
1131273.7269528753
 30
0.0
 40
1.8
  1
LOT-C03 (SUR) - 1.730 m2
 11
978733.0216623561
 21
1131273.7269528753
 31
0.0
100
AcDbText
  0
TEXT
  5
AF
330
17
100
AcDbEntity
  8
0_TEXTOS_COTAS
100
AcDbText
 10
978729.0216623561
 20
1131271.1269528754
 30
0.0
 40
1.0
  1
FTE. VIAL OESTE: 27.96 m | TALLER / PATIO CARGA
 11
978729.0216623561
 21
1131271.1269528754
 31
0.0
100
AcDbText
  0
CIRCLE
  5
B0
330
17
100
AcDbEntity
  8
0_HUELLA_CENTRAL
100
AcDbCircle
 10
978728.8159826964
 20
1131346.0937863984
 30
0.0
 40
0.6
  0
TEXT
  5
B1
330
17
100
AcDbEntity
  8
0_TEXTOS_COTAS
100
AcDbText
 10
978729.8159826964
 20
1131343.5937863984
 30
0.0
 40
1.0
  1
Q1 (NW): X=978728.82, Y=1131346.09
 11
978729.8159826964
 21
1131343.5937863984
 31
0.0
100
AcDbText
  0
CIRCLE
  5
B2
330
17
100
AcDbEntity
  8
0_HUELLA_CENTRAL
100
AcDbCircle
 10
978713.4134300803
 20
1131263.4284485716
 30
0.0
 40
0.6
  0
TEXT
  5
B3
330
17
100
AcDbEntity
  8
0_TEXTOS_COTAS
100
AcDbText
 10
978714.4134300803
 20
1131260.9284485716
 30
0.0
 40
1.0
  1
Q2 (SW): X=978713.41, Y=1131263.43
 11
978714.4134300803
 21
1131260.9284485716
 31
0.0
100
AcDbText
  0
CIRCLE
  5
B4
330
17
100
AcDbEntity
  8
0_HUELLA_CENTRAL
100
AcDbCircle
 10
978775.3077080706
 20
1131254.8403170693
 30
0.0
 40
0.6
  0
TEXT
  5
B5
330
17
100
AcDbEntity
  8
0_TEXTOS_COTAS
100
AcDbText
 10
978776.3077080706
 20
1131252.3403170693
 30
0.0
 40
1.0
  1
Q3 (SE): X=978775.31, Y=1131254.84
 11
978776.3077080706
 21
1131252.3403170693
 31
0.0
100
AcDbText
  0
CIRCLE
  5
B6
330
17
100
AcDbEntity
  8
0_HUELLA_CENTRAL
100
AcDbCircle
 10
978791.8601398832
 20
1131332.8861444679
 30
0.0
 40
0.6
  0
TEXT
  5
B7
330
17
100
AcDbEntity
  8
0_TEXTOS_COTAS
100
AcDbText
 10
978792.8601398832
 20
1131330.3861444679
 30
0.0
 40
1.0
  1
Q4 (NE): X=978791.86, Y=1131332.89
 11
978792.8601398832
 21
1131330.3861444679
 31
0.0
100
AcDbText
  0
LINE
  5
B8
330
17
100
AcDbEntity
  8
0_ACCESO_VIAL
  6
CENTER
100
AcDbLine
 10
978640.5625526557
 20
1131386.0616828997
 30
0.0
 11
978709.0492665854
 21
1131349.729625005
 31
0.0
  0
LINE
  5
B9
330
17
100
AcDbEntity
  8
0_ACCESO_VIAL
100
AcDbLine
 10
978637.8678899909
 20
1131380.98218557
 30
0.0
 11
978643.2572153205
 21
1131391.1411802294
 31
0.0
  0
LINE
  5
BA
330
17
100
AcDbEntity
  8
0_ACCESO_VIAL
100
AcDbLine
 10
978706.3546039206
 20
1131344.6501276754
 30
0.0
 11
978711.7439292502
 21
1131354.8091223347
 31
0.0
  0
LINE
  5
BB
330
17
100
AcDbEntity
  8
0_ACCESO_VIAL
100
AcDbLine
 10
978637.8678899909
 20
1131380.98218557
 30
0.0
 11
978706.3546039206
 21
1131344.6501276754
 31
0.0
  0
LINE
  5
BC
330
17
100
AcDbEntity
  8
0_ACCESO_VIAL
100
AcDbLine
 10
978643.2572153205
 20
1131391.1411802294
 30
0.0
 11
978711.7439292502
 21
1131354.8091223347
 31
0.0
  0
TEXT
  5
BD
330
17
100
AcDbEntity
  8
0_TEXTOS_COTAS
100
AcDbText
 10
978615.5625526557
 20
1131391.0616828997
 30
0.0
 40
1.3
  1
BOCA DE ACCESO AV. MUNICIPAL (11.50 m)
 11
978615.5625526557
 21
1131391.0616828997
 31
0.0
100
AcDbText
  0
TEXT
  5
BE
330
17
100
AcDbEntity
  8
0_TEXTOS_COTAS
100
AcDbText
 10
978659.8059096206
 20
1131371.8956539524
 30
0.0
 40
1.2
  1
EJE ACCESO: 77.53 m (Nominal 76.00 m)
 11
978659.8059096206
 21
1131371.8956539524
 31
0.0
100
AcDbText
  0
LINE
  5
BF
330
17
100
AcDbEntity
  8
0_ESTACIONAMIENTOS
  6
DASHED
100
AcDbLine
 10
978748.4776011975
 20
1131342.4303511372
 30
0.0
 11
978733.0750485815
 21
1131259.7650133104
 31
0.0
  0
LINE
  5
C0
330
17
100
AcDbEntity
  8
0_ESTACIONAMIENTOS
100
AcDbLine
 10
978728.8159826964
 20
1131346.0937863984
 30
0.0
 11
978733.7313873217
 21
1131345.177927583
 31
0.0
  0
LINE
  5
C1
330
17
100
AcDbEntity
  8
0_ESTACIONAMIENTOS
100
AcDbLine
 10
978728.362966443
 20
1131343.662452933
 30
0.0
 11
978733.2783710683
 21
1131342.7465941175
 31
0.0
  0
LINE
  5
C2
330
17
100
AcDbEntity
  8
0_ESTACIONAMIENTOS
100
AcDbLine
 10
978727.9099501895
 20
1131341.2311194674
 30
0.0
 11
978732.8253548149
 21
1131340.315260652
 31
0.0
  0
LINE
  5
C3
330
17
100
AcDbEntity
  8
0_ESTACIONAMIENTOS
100
AcDbLine
 10
978727.4569339361
 20
1131338.799786002
 30
0.0
 11
978732.3723385615
 21
1131337.8839271865
 31
0.0
  0
LINE
  5
C4
330
17
100
AcDbEntity
  8
0_ESTACIONAMIENTOS
100
AcDbLine
 10
978727.0039176827
 20
1131336.3684525364
 30
0.0
 11
978731.919322308
 21
1131335.452593721
 31
0.0
  0
LINE
  5
C5
330
17
100
AcDbEntity
  8
0_ESTACIONAMIENTOS
100
AcDbLine
 10
978726.5509014293
 20
1131333.937119071
 30
0.0
 11
978731.4663060546
 21
1131333.0212602555
 31
0.0
  0
LINE
  5
C6
330
17
100
AcDbEntity
  8
0_ESTACIONAMIENTOS
100
AcDbLine
 10
978726.0978851758
 20
1131331.5057856054
 30
0.0
 11
978731.0132898012
 21
1131330.58992679
 31
0.0
  0
LINE
  5
C7
330
17
100
AcDbEntity
  8
0_ESTACIONAMIENTOS
100
AcDbLine
 10
978725.6448689224
 20
1131329.07445214
 30
0.0
 11
978730.5602735478
 21
1131328.1585933245
 31
0.0
  0
LINE
  5
C8
330
17
100
AcDbEntity
  8
0_ESTACIONAMIENTOS
100
AcDbLine
 10
978725.191852669
 20
1131326.6431186744
 30
0.0
 11
978730.1072572944
 21
1131325.727259859
 31
0.0
  0
LINE
  5
C9
330
17
100
AcDbEntity
  8
0_ESTACIONAMIENTOS
100
AcDbLine
 10
978724.7388364157
 20
1131324.211785209
 30
0.0
 11
978729.654241041
 21
1131323.2959263935
 31
0.0
  0
LINE
  5
CA
330
17
100
AcDbEntity
  8
0_ESTACIONAMIENTOS
100
AcDbLine
 10
978724.2858201623
 20
1131321.7804517434
 30
0.0
 11
978729.2012247876
 21
1131320.864592928
 31
0.0
  0
LINE
  5
CB
330
17
100
AcDbEntity
  8
0_ESTACIONAMIENTOS
100
AcDbLine
 10
978723.8328039089
 20
1131319.349118278
 30
0.0
 11
978728.7482085342
 21
1131318.4332594625
 31
0.0
  0
LINE
  5
CC
330
17
100
AcDbEntity
  8
0_ESTACIONAMIENTOS
100
AcDbLine
 10
978723.3797876554
 20
1131316.9177848124
 30
0.0
 11
978728.2951922808
 21
1131316.001925997
 31
0.0
  0
LINE
  5
CD
330
17
100
AcDbEntity
  8
0_ESTACIONAMIENTOS
100
AcDbLine
 10
978722.926771402
 20
1131314.486451347
 30
0.0
 11
978727.8421760274
 21
1131313.5705925315
 31
0.0
  0
LINE
  5
CE
330
17
100
AcDbEntity
  8
0_ESTACIONAMIENTOS
100
AcDbLine
 10
978722.4737551486
 20
1131312.0551178814
 30
0.0
 11
978727.389159774
 21
1131311.139259066
 31
0.0
  0
LINE
  5
CF
330
17
100
AcDbEntity
  8
0_ESTACIONAMIENTOS
100
AcDbLine
 10
978722.0207388952
 20
1131309.623784416
 30
0.0
 11
978726.9361435205
 21
1131308.7079256005
 31
0.0
  0
LINE
  5
D0
330
17
100
AcDbEntity
  8
0_ESTACIONAMIENTOS
100
AcDbLine
 10
978721.5677226417
 20
1131307.1924509504
 30
0.0
 11
978726.4831272671
 21
1131306.276592135
 31
0.0
  0
LINE
  5
D1
330
17
100
AcDbEntity
  8
0_ESTACIONAMIENTOS
100
AcDbLine
 10
978721.1147063883
 20
1131304.761117485
 30
0.0
 11
978726.0301110137
 21
1131303.8452586695
 31
0.0
  0
LINE
  5
D2
330
17
100
AcDbEntity
  8
0_ESTACIONAMIENTOS
100
AcDbLine
 10
978720.6616901349
 20
1131302.3297840196
 30
0.0
 11
978725.5770947603
 21
1131301.4139252042
 31
0.0
  0
LINE
  5
D3
330
17
100
AcDbEntity
  8
0_ESTACIONAMIENTOS
100
AcDbLine
 10
978720.2086738815
 20
1131299.898450554
 30
0.0
 11
978725.1240785068
 21
1131298.9825917387
 31
0.0
  0
LINE
  5
D4
330
17
100
AcDbEntity
  8
0_ESTACIONAMIENTOS
100
AcDbLine
 10
978719.7556576281
 20
1131297.4671170886
 30
0.0
 11
978724.6710622534
 21
1131296.5512582732
 31
0.0
  0
LINE
  5
D5
330
17
100
AcDbEntity
  8
0_ESTACIONAMIENTOS
100
AcDbLine
 10
978719.3026413746
 20
1131295.035783623
 30
0.0
 11
978724.218046
 21
1131294.1199248077
 31
0.0
  0
LINE
  5
D6
330
17
100
AcDbEntity
  8
0_ESTACIONAMIENTOS
100
AcDbLine
 10
978718.8496251212
 20
1131292.6044501576
 30
0.0
 11
978723.7650297466
 21
1131291.6885913422
 31
0.0
  0
LINE
  5
D7
330
17
100
AcDbEntity
  8
0_ESTACIONAMIENTOS
100
AcDbLine
 10
978718.3966088678
 20
1131290.173116692
 30
0.0
 11
978723.3120134932
 21
1131289.2572578767
 31
0.0
  0
LINE
  5
D8
330
17
100
AcDbEntity
  8
0_ESTACIONAMIENTOS
100
AcDbLine
 10
978717.9435926144
 20
1131287.7417832266
 30
0.0
 11
978722.8589972397
 21
1131286.8259244112
 31
0.0
  0
LINE
  5
D9
330
17
100
AcDbEntity
  8
0_ESTACIONAMIENTOS
100
AcDbLine
 10
978717.490576361
 20
1131285.310449761
 30
0.0
 11
978722.4059809863
 21
1131284.3945909457
 31
0.0
  0
LINE
  5
DA
330
17
100
AcDbEntity
  8
0_ESTACIONAMIENTOS
100
AcDbLine
 10
978717.0375601077
 20
1131282.8791162956
 30
0.0
 11
978721.952964733
 21
1131281.9632574802
 31
0.0
  0
LINE
  5
DB
330
17
100
AcDbEntity
  8
0_ESTACIONAMIENTOS
100
AcDbLine
 10
978716.5845438542
 20
1131280.44778283
 30
0.0
 11
978721.4999484796
 21
1131279.5319240147
 31
0.0
  0
LINE
  5
DC
330
17
100
AcDbEntity
  8
0_ESTACIONAMIENTOS
100
AcDbLine
 10
978716.1315276008
 20
1131278.0164493646
 30
0.0
 11
978721.0469322262
 21
1131277.1005905492
 31
0.0
  0
LINE
  5
DD
330
17
100
AcDbEntity
  8
0_ESTACIONAMIENTOS
100
AcDbLine
 10
978715.6785113474
 20
1131275.585115899
 30
0.0
 11
978720.5939159727
 21
1131274.6692570837
 31
0.0
  0
LINE
  5
DE
330
17
100
AcDbEntity
  8
0_ESTACIONAMIENTOS
100
AcDbLine
 10
978715.225495094
 20
1131273.1537824336
 30
0.0
 11
978720.1408997193
 21
1131272.2379236182
 31
0.0
  0
LINE
  5
DF
330
17
100
AcDbEntity
  8
0_ESTACIONAMIENTOS
100
AcDbLine
 10
978714.7724788405
 20
1131270.722448968
 30
0.0
 11
978719.6878834659
 21
1131269.8065901527
 31
0.0
  0
LINE
  5
E0
330
17
100
AcDbEntity
  8
0_ESTACIONAMIENTOS
100
AcDbLine
 10
978714.3194625871
 20
1131268.2911155026
 30
0.0
 11
978719.2348672125
 21
1131267.3752566872
 31
0.0
  0
LINE
  5
E1
330
17
100
AcDbEntity
  8
0_ESTACIONAMIENTOS
100
AcDbLine
 10
978713.8664463337
 20
1131265.859782037
 30
0.0
 11
978718.781850959
 21
1131264.9439232217
 31
0.0
  0
LINE
  5
E2
330
17
100
AcDbEntity
  8
0_ESTACIONAMIENTOS
100
AcDbLine
 10
978713.4134300803
 20
1131263.4284485716
 30
0.0
 11
978718.3288347056
 21
1131262.5125897562
 31
0.0
  0
LINE
  5
E3
330
17
100
AcDbEntity
  8
0_ESTACIONAMIENTOS
  6
DASHED
100
AcDbLine
 10
978733.7313873217
 20
1131345.177927583
 30
0.0
 11
978718.3288347056
 21
1131262.5125897562
 31
0.0
  0
LINE
  5
E4
330
17
100
AcDbEntity
  8
0_COTAS_METRICAS
100
AcDbLine
 10
978685.2305062715
 20
1131217.6714780338
 30
0.0
 11
978683.8861988767
 21
1131211.8240138288
 31
0.0
  0
LINE
  5
E5
330
17
100
AcDbEntity
  8
0_COTAS_METRICAS
100
AcDbLine
 10
978784.7652216947
 20
1131194.7888661367
 30
0.0
 11
978783.4209142999
 21
1131188.9414019317
 31
0.0
  0
LINE
  5
E6
330
17
100
AcDbEntity
  8
0_COTAS_METRICAS
100
AcDbLine
 10
978683.8861988767
 20
1131211.8240138288
 30
0.0
 11
978783.4209142999
 21
1131188.9414019317
 31
0.0
  0
LINE
  5
E7
330
17
100
AcDbEntity
  8
0_COTAS_METRICAS
100
AcDbLine
 10
978682.9861988766
 20
1131210.9240138289
 30
0.0
 11
978684.7861988767
 21
1131212.7240138287
 31
0.0
  0
LINE
  5
E8
330
17
100
AcDbEntity
  8
0_COTAS_METRICAS
100
AcDbLine
 10
978782.5209142999
 20
1131188.0414019318
 30
0.0
 11
978784.3209142999
 21
1131189.8414019316
 31
0.0
  0
TEXT
  5
E9
330
17
100
AcDbEntity
  8
0_TEXTOS_COTAS
100
AcDbText
 10
978733.9224180673
 20
1131201.5522007213
 30
0.0
 40
1.3
  1
SUR: 101.88 m
 50
-12.947093501613928
 11
978733.9224180673
 21
1131201.5522007213
 31
0.0
100
AcDbText
  0
LINE
  5
EA
330
17
100
AcDbEntity
  8
0_COTAS_METRICAS
100
AcDbLine
 10
978784.7652216947
 20
1131194.7888661367
 30
0.0
 11
978778.9192709591
 21
1131196.1397399264
 31
0.0
  0
LINE
  5
EB
330
17
100
AcDbEntity
  8
0_COTAS_METRICAS
100
AcDbLine
 10
978815.5539882217
 20
1131328.0282654667
 30
0.0
 11
978809.7080374861
 21
1131329.3791392564
 31
0.0
  0
LINE
  5
EC
330
17
100
AcDbEntity
  8
0_COTAS_METRICAS
100
AcDbLine
 10
978778.9192709591
 20
1131196.1397399264
 30
0.0
 11
978809.7080374861
 21
1131329.3791392564
 31
0.0
  0
LINE
  5
ED
330
17
100
AcDbEntity
  8
0_COTAS_METRICAS
100
AcDbLine
 10
978778.0192709591
 20
1131195.2397399265
 30
0.0
 11
978779.8192709591
 21
1131197.0397399263
 31
0.0
  0
LINE
  5
EE
330
17
100
AcDbEntity
  8
0_COTAS_METRICAS
100
AcDbLine
 10
978808.808037486
 20
1131328.4791392565
 30
0.0
 11
978810.6080374861
 21
1131330.2791392563
 31
0.0
  0
TEXT
  5
EF
330
17
100
AcDbEntity
  8
0_TEXTOS_COTAS
100
AcDbText
 10
978793.1444640754
 20
1131263.0296143494
 30
0.0
 40
1.3
  1
ESTE: 136.42 m
 50
76.98855802807408
 11
978793.1444640754
 21
1131263.0296143494
 31
0.0
100
AcDbText
  0
LINE
  5
F0
330
17
100
AcDbEntity
  8
0_COTAS_METRICAS
100
AcDbLine
 10
978815.5539882217
 20
1131328.0282654667
 30
0.0
 11
978814.3565515288
 21
1131322.1489674333
 31
0.0
  0
LINE
  5
F1
330
17
100
AcDbEntity
  8
0_COTAS_METRICAS
100
AcDbLine
 10
978709.0053358676
 20
1131349.7290306224
 30
0.0
 11
978707.8078991747
 21
1131343.849732589
 31
0.0
  0
LINE
  5
F2
330
17
100
AcDbEntity
  8
0_COTAS_METRICAS
100
AcDbLine
 10
978814.3565515288
 20
1131322.1489674333
 30
0.0
 11
978707.8078991747
 21
1131343.849732589
 31
0.0
  0
LINE
  5
F3
330
17
100
AcDbEntity
  8
0_COTAS_METRICAS
100
AcDbLine
 10
978813.4565515288
 20
1131321.2489674333
 30
0.0
 11
978815.2565515288
 21
1131323.0489674332
 31
0.0
  0
LINE
  5
F4
330
17
100
AcDbEntity
  8
0_COTAS_METRICAS
100
AcDbLine
 10
978706.9078991747
 20
1131342.949732589
 30
0.0
 11
978708.7078991748
 21
1131344.7497325889
 31
0.0
  0
TEXT
  5
F5
330
17
100
AcDbEntity
  8
0_TEXTOS_COTAS
100
AcDbText
 10
978760.8427380132
 20
1131331.8234904045
 30
0.0
 40
1.3
  1
NORTE: 108.47 m
 50
-11.511977614125612
 11
978760.8427380132
 21
1131331.8234904045
 31
0.0
100
AcDbText
  0
LINE
  5
F6
330
17
100
AcDbEntity
  8
0_COTAS_METRICAS
100
AcDbLine
 10
978709.0053358676
 20
1131349.7290306224
 30
0.0
 11
978703.1002707772
 21
1131350.7921422243
 31
0.0
  0
LINE
  5
F7
330
17
100
AcDbEntity
  8
0_COTAS_METRICAS
100
AcDbLine
 10
978685.2305062715
 20
1131217.6714780338
 30
0.0
 11
978679.3254411811
 21
1131218.7345896356
 31
0.0
  0
LINE
  5
F8
330
17
100
AcDbEntity
  8
0_COTAS_METRICAS
100
AcDbLine
 10
978703.1002707772
 20
1131350.7921422243
 30
0.0
 11
978679.3254411811
 21
1131218.7345896356
 31
0.0
  0
LINE
  5
F9
330
17
100
AcDbEntity
  8
0_COTAS_METRICAS
100
AcDbLine
 10
978702.2002707772
 20
1131349.8921422244
 30
0.0
 11
978704.0002707773
 21
1131351.6921422242
 31
0.0
  0
LINE
  5
FA
330
17
100
AcDbEntity
  8
0_COTAS_METRICAS
100
AcDbLine
 10
978678.425441181
 20
1131217.8345896357
 30
0.0
 11
978680.2254411811
 21
1131219.6345896355
 31
0.0
  0
TEXT
  5
FB
330
17
100
AcDbEntity
  8
0_TEXTOS_COTAS
100
AcDbText
 10
978692.3938689972
 20
1131284.5507436097
 30
0.0
 40
1.3
  1
OESTE: 133.85 m
 50
79.79414770125962
 11
978692.3938689972
 21
1131284.5507436097
 31
0.0
100
AcDbText
  0
LINE
  5
FC
330
17
100
AcDbEntity
  8
0_COTAS_METRICAS
100
AcDbLine
 10
978791.8601398832
 20
1131332.8861444679
 30
0.0
 11
978791.1424757903
 21
1131329.4605119352
 31
0.0
  0
LINE
  5
FD
330
17
100
AcDbEntity
  8
0_COTAS_METRICAS
100
AcDbLine
 10
978728.8159826964
 20
1131346.0937863984
 30
0.0
 11
978728.0983186035
 21
1131342.6681538657
 31
0.0
  0
LINE
  5
FE
330
17
100
AcDbEntity
  8
0_COTAS_METRICAS
100
AcDbLine
 10
978791.1424757903
 20
1131329.4605119352
 30
0.0
 11
978728.0983186035
 21
1131342.6681538657
 31
0.0
  0
LINE
  5
FF
330
17
100
AcDbEntity
  8
0_COTAS_METRICAS
100
AcDbLine
 10
978790.2424757903
 20
1131328.5605119353
 30
0.0
 11
978792.0424757904
 21
1131330.360511935
 31
0.0
  0
LINE
  5
100
330
17
100
AcDbEntity
  8
0_COTAS_METRICAS
100
AcDbLine
 10
978727.1983186034
 20
1131341.7681538658
 30
0.0
 11
978728.9983186035
 21
1131343.5681538656
 31
0.0
  0
TEXT
  5
101
330
17
100
AcDbEntity
  8
0_TEXTOS_COTAS
100
AcDbText
 10
978759.3743409364
 20
1131334.8898303178
 30
0.0
 40
1.3
  1
FTE. NORTE: 64.31 m
 50
-11.832243587741516
 11
978759.3743409364
 21
1131334.8898303178
 31
0.0
100
AcDbText
  0
LINE
  5
102
330
17
100
AcDbEntity
  8
0_COTAS_METRICAS
100
AcDbLine
 10
978713.4134300803
 20
1131263.4284485716
 30
0.0
 11
978712.9323966616
 21
1131259.9616623293
 31
0.0
  0
LINE
  5
103
330
17
100
AcDbEntity
  8
0_COTAS_METRICAS
100
AcDbLine
 10
978775.3077080706
 20
1131254.8403170693
 30
0.0
 11
978774.8266746519
 21
1131251.373530827
 31
0.0
  0
LINE
  5
104
330
17
100
AcDbEntity
  8
0_COTAS_METRICAS
100
AcDbLine
 10
978712.9323966616
 20
1131259.9616623293
 30
0.0
 11
978774.8266746519
 21
1131251.373530827
 31
0.0
  0
LINE
  5
105
330
17
100
AcDbEntity
  8
0_COTAS_METRICAS
100
AcDbLine
 10
978712.0323966616
 20
1131259.0616623294
 30
0.0
 11
978713.8323966616
 21
1131260.8616623292
 31
0.0
  0
LINE
  5
106
330
17
100
AcDbEntity
  8
0_COTAS_METRICAS
100
AcDbLine
 10
978773.9266746519
 20
1131250.473530827
 30
0.0
 11
978775.726674652
 21
1131252.273530827
 31
0.0
  0
TEXT
  5
107
330
17
100
AcDbEntity
  8
0_TEXTOS_COTAS
100
AcDbText
 10
978744.0444614004
 20
1131256.856209004
 30
0.0
 40
1.3
  1
FTE. SUR: 62.38 m
 50
-7.899628266081508
 11
978744.0444614004
 21
1131256.856209004
 31
0.0
100
AcDbText
  0
LINE
  5
108
330
17
100
AcDbEntity
  8
0_COTAS_METRICAS
100
AcDbLine
 10
978775.3077080706
 20
1131254.8403170693
 30
0.0
 11
978778.7315519392
 21
1131254.1141675229
 31
0.0
  0
LINE
  5
109
330
17
100
AcDbEntity
  8
0_COTAS_METRICAS
100
AcDbLine
 10
978791.8601398832
 20
1131332.8861444679
 30
0.0
 11
978795.2839837518
 21
1131332.1599949214
 31
0.0
  0
LINE
  5
10A
330
17
100
AcDbEntity
  8
0_COTAS_METRICAS
100
AcDbLine
 10
978778.7315519392
 20
1131254.1141675229
 30
0.0
 11
978795.2839837518
 21
1131332.1599949214
 31
0.0
  0
LINE
  5
10B
330
17
100
AcDbEntity
  8
0_COTAS_METRICAS
100
AcDbLine
 10
978777.8315519391
 20
1131253.214167523
 30
0.0
 11
978779.6315519392
 21
1131255.0141675228
 31
0.0
  0
LINE
  5
10C
330
17
100
AcDbEntity
  8
0_COTAS_METRICAS
100
AcDbLine
 10
978794.3839837518
 20
1131331.2599949215
 30
0.0
 11
978796.1839837518
 21
1131333.0599949213
 31
0.0
  0
TEXT
  5
10D
330
17
100
AcDbEntity
  8
0_TEXTOS_COTAS
100
AcDbText
 10
978785.833878519
 20
1131293.386046781
 30
0.0
 40
1.3
  1
LAT. ESTE: 79.56 m
 50
78.02579507038938
 11
978785.833878519
 21
1131293.386046781
 31
0.0
100
AcDbText
  0
LINE
  5
10E
330
17
100
AcDbEntity
  8
0_COTAS_METRICAS
100
AcDbLine
 10
978728.8159826964
 20
1131346.0937863984
 30
0.0
 11
978722.4259566835
 21
1131347.2844028582
 31
0.0
  0
LINE
  5
10F
330
17
100
AcDbEntity
  8
0_COTAS_METRICAS
100
AcDbLine
 10
978713.4134300803
 20
1131263.4284485716
 30
0.0
 11
978707.0234040674
 21
1131264.6190650314
 31
0.0
  0
LINE
  5
110
330
17
100
AcDbEntity
  8
0_COTAS_METRICAS
100
AcDbLine
 10
978722.4259566835
 20
1131347.2844028582
 30
0.0
 11
978707.0234040674
 21
1131264.6190650314
 31
0.0
  0
LINE
  5
111
330
17
100
AcDbEntity
  8
0_COTAS_METRICAS
100
AcDbLine
 10
978721.5259566834
 20
1131346.3844028583
 30
0.0
 11
978723.3259566835
 21
1131348.1844028581
 31
0.0
  0
LINE
  5
112
330
17
100
AcDbEntity
  8
0_COTAS_METRICAS
100
AcDbLine
 10
978706.1234040674
 20
1131263.7190650315
 30
0.0
 11
978707.9234040674
 21
1131265.5190650313
 31
0.0
  0
TEXT
  5
113
330
17
100
AcDbEntity
  8
0_TEXTOS_COTAS
100
AcDbText
 10
978715.9043774855
 20
1131305.7319278293
 30
0.0
 40
1.3
  1
LAT. OESTE: 83.86 m
 50
79.44543917005666
 11
978715.9043774855
 21
1131305.7319278293
 31
0.0
100
AcDbText
  0
LINE
  5
114
330
17
100
AcDbEntity
  8
0_COTAS_METRICAS
100
AcDbLine
 10
978728.8159826964
 20
1131346.0937863984
 30
0.0
 11
978726.3582096184
 21
1131346.5513358458
 31
0.0
  0
LINE
  5
115
330
17
100
AcDbEntity
  8
0_COTAS_METRICAS
100
AcDbLine
 10
978723.6855265992
 20
1131318.5350232027
 30
0.0
 11
978721.2277535212
 21
1131318.99257265
 31
0.0
  0
LINE
  5
116
330
17
100
AcDbEntity
  8
0_COTAS_METRICAS
100
AcDbLine
 10
978726.3582096184
 20
1131346.5513358458
 30
0.0
 11
978721.2277535212
 21
1131318.99257265
 31
0.0
  0
LINE
  5
117
330
17
100
AcDbEntity
  8
0_COTAS_METRICAS
100
AcDbLine
 10
978725.4582096183
 20
1131345.651335846
 30
0.0
 11
978727.2582096184
 21
1131347.4513358457
 31
0.0
  0
LINE
  5
118
330
17
100
AcDbEntity
  8
0_COTAS_METRICAS
100
AcDbLine
 10
978720.3277535212
 20
1131318.0925726502
 30
0.0
 11
978722.1277535212
 21
1131319.89257265
 31
0.0
  0
TEXT
  5
119
330
17
100
AcDbEntity
  8
0_TEXTOS_COTAS
100
AcDbText
 10
978724.9727126472
 20
1131332.5523305133
 30
0.0
 40
1.3
  1
C01: 27.95 m
 50
79.45429695593859
 11
978724.9727126472
 21
1131332.5523305133
 31
0.0
100
AcDbText
  0
LINE
  5
11A
330
17
100
AcDbEntity
  8
0_COTAS_METRICAS
100
AcDbLine
 10
978723.6855265992
 20
1131318.5350232027
 30
0.0
 11
978721.2279654569
 21
1131318.9937096224
 31
0.0
  0
LINE
  5
11B
330
17
100
AcDbEntity
  8
0_COTAS_METRICAS
100
AcDbLine
 10
978718.5439205931
 20
1131290.9872027682
 30
0.0
 11
978716.0863594508
 21
1131291.445889188
 31
0.0
  0
LINE
  5
11C
330
17
100
AcDbEntity
  8
0_COTAS_METRICAS
100
AcDbLine
 10
978721.2279654569
 20
1131318.9937096224
 30
0.0
 11
978716.0863594508
 21
1131291.445889188
 31
0.0
  0
LINE
  5
11D
330
17
100
AcDbEntity
  8
0_COTAS_METRICAS
100
AcDbLine
 10
978720.3279654569
 20
1131318.0937096225
 30
0.0
 11
978722.1279654569
 21
1131319.8937096223
 31
0.0
  0
LINE
  5
11E
330
17
100
AcDbEntity
  8
0_COTAS_METRICAS
100
AcDbLine
 10
978715.1863594508
 20
1131290.545889188
 30
0.0
 11
978716.9863594508
 21
1131292.345889188
 31
0.0
  0
TEXT
  5
11F
330
17
100
AcDbEntity
  8
0_TEXTOS_COTAS
100
AcDbText
 10
978719.8367918022
 20
1131304.9996299236
 30
0.0
 40
1.3
  1
C02: 27.95 m
 50
79.42779063371387
 11
978719.8367918022
 21
1131304.9996299236
 31
0.0
100
AcDbText
  0
LINE
  5
120
330
17
100
AcDbEntity
  8
0_COTAS_METRICAS
100
AcDbLine
 10
978718.5439205931
 20
1131290.9872027682
 30
0.0
 11
978716.0861480942
 21
1131291.4447553265
 31
0.0
  0
LINE
  5
121
330
17
100
AcDbEntity
  8
0_COTAS_METRICAS
100
AcDbLine
 10
978713.4134300803
 20
1131263.4284485716
 30
0.0
 11
978710.9556575813
 21
1131263.8860011299
 31
0.0
  0
LINE
  5
122
330
17
100
AcDbEntity
  8
0_COTAS_METRICAS
100
AcDbLine
 10
978716.0861480942
 20
1131291.4447553265
 30
0.0
 11
978710.9556575813
 21
1131263.8860011299
 31
0.0
  0
LINE
  5
123
330
17
100
AcDbEntity
  8
0_COTAS_METRICAS
100
AcDbLine
 10
978715.1861480941
 20
1131290.5447553266
 30
0.0
 11
978716.9861480942
 21
1131292.3447553264
 31
0.0
  0
LINE
  5
124
330
17
100
AcDbEntity
  8
0_COTAS_METRICAS
100
AcDbLine
 10
978710.0556575813
 20
1131262.98600113
 30
0.0
 11
978711.8556575814
 21
1131264.7860011298
 31
0.0
  0
TEXT
  5
125
330
17
100
AcDbEntity
  8
0_TEXTOS_COTAS
100
AcDbText
 10
978714.7006336373
 20
1131277.4457530002
 30
0.0
 40
1.3
  1
C03: 27.96 m
 50
79.45422443477463
 11
978714.7006336373
 21
1131277.4457530002
 31
0.0
100
AcDbText
  0
LINE
  5
126
330
17
100
AcDbEntity
  8
0_COTAS_METRICAS
100
AcDbLine
 10
978723.6855265992
 20
1131318.5350232027
 30
0.0
 11
978724.0514212148
 21
1131320.5012686427
 31
0.0
  0
LINE
  5
127
330
17
100
AcDbEntity
  8
0_COTAS_METRICAS
100
AcDbLine
 10
978786.3462897416
 20
1131306.874609208
 30
0.0
 11
978786.7121843572
 21
1131308.840854648
 31
0.0
  0
LINE
  5
128
330
17
100
AcDbEntity
  8
0_COTAS_METRICAS
100
AcDbLine
 10
978724.0514212148
 20
1131320.5012686427
 30
0.0
 11
978786.7121843572
 21
1131308.840854648
 31
0.0
  0
LINE
  5
129
330
17
100
AcDbEntity
  8
0_COTAS_METRICAS
100
AcDbLine
 10
978723.1514212148
 20
1131319.6012686428
 30
0.0
 11
978724.9514212148
 21
1131321.4012686426
 31
0.0
  0
LINE
  5
12A
330
17
100
AcDbEntity
  8
0_COTAS_METRICAS
100
AcDbLine
 10
978785.8121843572
 20
1131307.9408546481
 30
0.0
 11
978787.6121843572
 21
1131309.740854648
 31
0.0
  0
TEXT
  5
12B
330
17
100
AcDbEntity
  8
0_TEXTOS_COTAS
100
AcDbText
 10
978755.6013395555
 20
1131315.8508089092
 30
0.0
 40
1.3
  1
DIVISORIA 1 (C01/C02): 63.13 m
 50
-10.541479439969816
 11
978755.6013395555
 21
1131315.8508089092
 31
0.0
100
AcDbText
  0
LINE
  5
12C
330
17
100
AcDbEntity
  8
0_COTAS_METRICAS
100
AcDbLine
 10
978718.5439205931
 20
1131290.9872027682
 30
0.0
 11
978718.8651833077
 21
1131292.9612317113
 31
0.0
  0
LINE
  5
12D
330
17
100
AcDbEntity
  8
0_COTAS_METRICAS
100
AcDbLine
 10
978780.8215906803
 20
1131280.8518430921
 30
0.0
 11
978781.1428533948
 21
1131282.8258720352
 31
0.0
  0
LINE
  5
12E
330
17
100
AcDbEntity
  8
0_COTAS_METRICAS
100
AcDbLine
 10
978718.8651833077
 20
1131292.9612317113
 30
0.0
 11
978781.1428533948
 21
1131282.8258720352
 31
0.0
  0
LINE
  5
12F
330
17
100
AcDbEntity
  8
0_COTAS_METRICAS
100
AcDbLine
 10
978717.9651833076
 20
1131292.0612317114
 30
0.0
 11
978719.7651833077
 21
1131293.8612317112
 31
0.0
  0
LINE
  5
130
330
17
100
AcDbEntity
  8
0_COTAS_METRICAS
100
AcDbLine
 10
978780.2428533948
 20
1131281.9258720353
 30
0.0
 11
978782.0428533949
 21
1131283.7258720351
 31
0.0
  0
TEXT
  5
131
330
17
100
AcDbEntity
  8
0_TEXTOS_COTAS
100
AcDbText
 10
978750.19677598
 20
1131289.077969239
 30
0.0
 40
1.3
  1
DIVISORIA 2 (C02/C03): 62.56 m
 50
-9.243544344196897
 11
978750.19677598
 21
1131289.077969239
 31
0.0
100
AcDbText
  0
TEXT
  5
132
330
17
100
AcDbEntity
  8
0_TEXTOS_COTAS
100
AcDbText
 10
978686.8159826964
 20
1131326.0937863984
 30
0.0
 40
1.3
  1
PASILLO OESTE: 20.00 m (AV. DE SERVICIO: GANDOLAS + ESTACIONAMIENTO 90° ~35 PUESTOS)
 11
978686.8159826964
 21
1131326.0937863984
 31
0.0
100
AcDbText
  0
TEXT
  5
133
330
17
100
AcDbEntity
  8
0_TEXTOS_COTAS
100
AcDbText
 10
978703.4134300803
 20
1131251.4284485716
 30
0.0
 40
1.3
  1
PATIO SUR: 20.00 m (MANIOBRA Y CARGA PESADA REPUESTOS DE ORIENTE)
 11
978703.4134300803
 21
1131251.4284485716
 31
0.0
100
AcDbText
  0
TEXT
  5
134
330
17
100
AcDbEntity
  8
0_TEXTOS_COTAS
100
AcDbText
 10
978796.8601398832
 20
1131312.8861444679
 30
0.0
 40
1.3
  1
PASILLO ESTE: 23.80 m (TRÁNSITO, RETORNO Y ESTACIONAMIENTO CLIENTES)
 11
978796.8601398832
 21
1131312.8861444679
 31
0.0
100
AcDbText
  0
TEXT
  5
135
330
17
100
AcDbEntity
  8
0_TEXTOS_COTAS
100
AcDbText
 10
978756.8601398832
 20
1131340.8861444679
 30
0.0
 40
1.3
  1
RETIRO NORTE: 23.86 m (ESTACIONAMIENTO CLIENTES / ACCESO)
 11
978756.8601398832
 21
1131340.8861444679
 31
0.0
100
AcDbText
  0
LINE
  5
136
330
17
100
AcDbEntity
  8
0_CIRCULACION_GANDOLAS
370
50
100
AcDbLine
 10
978716.8159826964
 20
1131336.0937863984
 30
0.0
 11
978701.4134300803
 21
1131273.4284485716
 31
0.0
  0
LINE
  5
137
330
17
100
AcDbEntity
  8
0_CIRCULACION_GANDOLAS
370
50
100
AcDbLine
 10
978701.4134300803
 20
1131273.4284485716
 30
0.0
 11
978703.414148721
 21
1131276.5408632164
 31
0.0
  0
LINE
  5
138
330
17
100
AcDbEntity
  8
0_CIRCULACION_GANDOLAS
370
50
100
AcDbLine
 10
978701.4134300803
 20
1131273.4284485716
 30
0.0
 11
978701.0835166756
 21
1131277.1137107257
 31
0.0
  0
LINE
  5
139
330
17
100
AcDbEntity
  8
0_CIRCULACION_GANDOLAS
370
50
100
AcDbLine
 10
978721.4134300803
 20
1131255.4284485716
 30
0.0
 11
978765.3077080706
 21
1131246.8403170693
 31
0.0
  0
LINE
  5
13A
330
17
100
AcDbEntity
  8
0_CIRCULACION_GANDOLAS
370
50
100
AcDbLine
 10
978765.3077080706
 20
1131246.8403170693
 30
0.0
 11
978762.1032526006
 21
1131248.6900373565
 31
0.0
  0
LINE
  5
13B
330
17
100
AcDbEntity
  8
0_CIRCULACION_GANDOLAS
370
50
100
AcDbLine
 10
978765.3077080706
 20
1131246.8403170693
 30
0.0
 11
978761.6424185131
 21
1131246.3346962042
 31
0.0
  0
LINE
  5
13C
330
17
100
AcDbEntity
  8
0_CIRCULACION_GANDOLAS
370
50
100
AcDbLine
 10
978787.3077080706
 20
1131264.8403170693
 30
0.0
 11
978803.8601398832
 21
1131322.8861444679
 31
0.0
  0
LINE
  5
13D
330
17
100
AcDbEntity
  8
0_CIRCULACION_GANDOLAS
370
50
100
AcDbLine
 10
978803.8601398832
 20
1131322.8861444679
 30
0.0
 11
978801.7463392925
 21
1131319.8493950441
 31
0.0
  0
LINE
  5
13E
330
17
100
AcDbEntity
  8
0_CIRCULACION_GANDOLAS
370
50
100
AcDbLine
 10
978803.8601398832
 20
1131322.8861444679
 30
0.0
 11
978804.0543335117
 21
1131319.1912440858
 31
0.0
  0
LINE
  5
13F
330
17
100
AcDbEntity
  8
0_CIRCULACION_GANDOLAS
370
50
100
AcDbLine
 10
978799.8601398832
 20
1131342.8861444679
 30
0.0
 11
978776.8601398832
 21
1131344.8861444679
 31
0.0
  0
LINE
  5
140
330
17
100
AcDbEntity
  8
0_CIRCULACION_GANDOLAS
370
50
100
AcDbLine
 10
978776.8601398832
 20
1131344.8861444679
 30
0.0
 11
978780.2430264023
 21
1131343.3874521048
 31
0.0
  0
LINE
  5
141
330
17
100
AcDbEntity
  8
0_CIRCULACION_GANDOLAS
370
50
100
AcDbLine
 10
978776.8601398832
 20
1131344.8861444679
 30
0.0
 11
978780.4509374816
 21
1131345.7784295164
 31
0.0
  0
LINE
  5
142
330
17
100
AcDbEntity
  8
0_CIRCULACION_GANDOLAS
370
50
100
AcDbLine
 10
978776.8601398832
 20
1131344.8861444679
 30
0.0
 11
978738.8159826964
 21
978740.8159826964
 31
0.0
  0
LINE
  5
143
330
17
100
AcDbEntity
  8
0_CIRCULACION_GANDOLAS
370
50
100
AcDbLine
 10
978738.8159826964
 20
978740.8159826964
 30
0.0
 11
978740.0168552082
 21
978744.315683428
 31
0.0
  0
LINE
  5
144
330
17
100
AcDbEntity
  8
0_CIRCULACION_GANDOLAS
370
50
100
AcDbLine
 10
978738.8159826964
 20
978740.8159826964
 30
0.0
 11
978737.6168552828
 21
978744.3162817473
 31
0.0
  0
TEXT
  5
145
330
17
100
AcDbEntity
  8
0_CUADRO_TECNICO
100
AcDbText
 10
978655.2305062715
 20
1131154.7888661367
 30
0.0
 40
1.4
  1
=========================================================================================
 11
978655.2305062715
 21
1131154.7888661367
 31
0.0
100
AcDbText
  0
TEXT
  5
146
330
17
100
AcDbEntity
  8
0_CUADRO_TECNICO
100
AcDbText
 10
978655.2305062715
 20
1131152.1888661366
 30
0.0
 40
1.4
  1
PROYECTO: CENTRO COMERCIAL MARIO SANCHEZ - PLANO TOPOGRAFICO Y SUBDIVISION
 11
978655.2305062715
 21
1131152.1888661366
 31
0.0
100
AcDbText
  0
TEXT
  5
147
330
17
100
AcDbEntity
  8
0_CUADRO_TECNICO
100
AcDbText
 10
978655.2305062715
 20
1131149.5888661367
 30
0.0
 40
1.4
  1
PLANO: LEVANTAMIENTO TOPOGRAFICO Y SUBDIVISION EN TRES (3) MACRO-LOTES COMERCIALES
 11
978655.2305062715
 21
1131149.5888661367
 31
0.0
100
AcDbText
  0
TEXT
  5
148
330
17
100
AcDbEntity
  8
0_CUADRO_TECNICO
100
AcDbText
 10
978655.2305062715
 20
1131146.9888661366
 30
0.0
 40
1.4
  1
UBICACION: AV. INTERCOMUNAL JORGE RODRIGUEZ / AV. MUNICIPAL, PUERTO LA CRUZ, ANZOATEGUI
 11
978655.2305062715
 21
1131146.9888661366
 31
0.0
100
AcDbText
  0
TEXT
  5
149
330
17
100
AcDbEntity
  8
0_CUADRO_TECNICO
100
AcDbText
 10
978655.2305062715
 20
1131144.3888661368
 30
0.0
 40
1.4
  1
SISTEMA DE COORDENADAS: SISTEMA REGVEN / UTM HUSO 19N (EPSG:32619) - DATUM WGS84
 11
978655.2305062715
 21
1131144.3888661368
 31
0.0
100
AcDbText
  0
TEXT
  5
14A
330
17
100
AcDbEntity
  8
0_CUADRO_TECNICO
100
AcDbText
 10
978655.2305062715
 20
1131141.7888661367
 30
0.0
 40
1.4
  1
AREA GENERAL DEL TERRENO: 14.207,00 m2 (1,421 Ha) | PERIMETRO: 480,62 m
 11
978655.2305062715
 21
1131141.7888661367
 31
0.0
100
AcDbText
  0
TEXT
  5
14B
330
17
100
AcDbEntity
  8
0_CUADRO_TECNICO
100
AcDbText
 10
978655.2305062715
 20
1131139.1888661366
 30
0.0
 40
1.4
  1
AREA HUELLA CENTRAL COMERCIAL: 5.189,67 m2 (100%) | PERIMETRO: 290,11 m
 11
978655.2305062715
 21
1131139.1888661366
 31
0.0
100
AcDbText
  0
TEXT
  5
14C
330
17
100
AcDbEntity
  8
0_CUADRO_TECNICO
100
AcDbText
 10
978655.2305062715
 20
1131136.5888661367
 30
0.0
 40
1.4
  1
-----------------------------------------------------------------------------------------
 11
978655.2305062715
 21
1131136.5888661367
 31
0.0
100
AcDbText
  0
TEXT
  5
14D
330
17
100
AcDbEntity
  8
0_CUADRO_TECNICO
100
AcDbText
 10
978655.2305062715
 20
1131133.9888661366
 30
0.0
 40
1.4
  1
CUADRO DE SUBDIVISION DE LA HUELLA CENTRAL:
 11
978655.2305062715
 21
1131133.9888661366
 31
0.0
100
AcDbText
  0
TEXT
  5
14E
330
17
100
AcDbEntity
  8
0_CUADRO_TECNICO
100
AcDbText
 10
978655.2305062715
 20
1131131.3888661368
 30
0.0
 40
1.4
  1
  - LOT-C01 (NORTE):  1.730,00 m2 | FTE. VIAL OESTE: 27.95 m | RETAIL / SHOWROOM
 11
978655.2305062715
 21
1131131.3888661368
 31
0.0
100
AcDbText
  0
TEXT
  5
14F
330
17
100
AcDbEntity
  8
0_CUADRO_TECNICO
100
AcDbText
 10
978655.2305062715
 20
1131128.7888661367
 30
0.0
 40
1.4
  1
  - LOT-C02 (CENTRO): 1.730,00 m2 | FTE. VIAL OESTE: 27.95 m | LOGISTICA Y DISTRIBUCION
 11
978655.2305062715
 21
1131128.7888661367
 31
0.0
100
AcDbText
  0
TEXT
  5
150
330
17
100
AcDbEntity
  8
0_CUADRO_TECNICO
100
AcDbText
 10
978655.2305062715
 20
1131126.1888661366
 30
0.0
 40
1.4
  1
  - LOT-C03 (SUR):    1.730,00 m2 | FTE. VIAL OESTE: 27.96 m | TALLER / PATIO CARGA PESADA
 11
978655.2305062715
 21
1131126.1888661366
 31
0.0
100
AcDbText
  0
TEXT
  5
151
330
17
100
AcDbEntity
  8
0_CUADRO_TECNICO
100
AcDbText
 10
978655.2305062715
 20
1131123.5888661367
 30
0.0
 40
1.4
  1
-----------------------------------------------------------------------------------------
 11
978655.2305062715
 21
1131123.5888661367
 31
0.0
100
AcDbText
  0
TEXT
  5
152
330
17
100
AcDbEntity
  8
0_CUADRO_TECNICO
100
AcDbText
 10
978655.2305062715
 20
1131120.9888661366
 30
0.0
 40
1.4
  1
PARAMETROS DE LOGISTICA Y VIALIDAD:
 11
978655.2305062715
 21
1131120.9888661366
 31
0.0
100
AcDbText
  0
TEXT
  5
153
330
17
100
AcDbEntity
  8
0_CUADRO_TECNICO
100
AcDbText
 10
978655.2305062715
 20
1131118.3888661368
 30
0.0
 40
1.4
  1
  - PASILLO OESTE: 20.00 m LIBRES (AV. SERVICIO GANDOLAS + BATERIA ESTAC. 90° ~35 PUESTOS)
 11
978655.2305062715
 21
1131118.3888661368
 31
0.0
100
AcDbText
  0
TEXT
  5
154
330
17
100
AcDbEntity
  8
0_CUADRO_TECNICO
100
AcDbText
 10
978655.2305062715
 20
1131115.7888661367
 30
0.0
 40
1.4
  1
  - PATIO SUR: 20.00 m LIBRES (MANIOBRA Y DESCARGA REPUESTOS DE ORIENTE)
 11
978655.2305062715
 21
1131115.7888661367
 31
0.0
100
AcDbText
  0
TEXT
  5
155
330
17
100
AcDbEntity
  8
0_CUADRO_TECNICO
100
AcDbText
 10
978655.2305062715
 20
1131113.1888661366
 30
0.0
 40
1.4
  1
  - RETIRO NORTE: 23.86 m (ACCESO & ESTACIONAMIENTO CLIENTES)
 11
978655.2305062715
 21
1131113.1888661366
 31
0.0
100
AcDbText
  0
TEXT
  5
156
330
17
100
AcDbEntity
  8
0_CUADRO_TECNICO
100
AcDbText
 10
978655.2305062715
 20
1131110.5888661367
 30
0.0
 40
1.4
  1
  - PASILLO ESTE: 23.80 m (RETORNO Y TRANSITO PESADO)
 11
978655.2305062715
 21
1131110.5888661367
 31
0.0
100
AcDbText
  0
TEXT
  5
157
330
17
100
AcDbEntity
  8
0_CUADRO_TECNICO
100
AcDbText
 10
978655.2305062715
 20
1131107.9888661366
 30
0.0
 40
1.4
  1
  - SENTIDO DE CIRCULACION: HORARIO OBLIGATORIO PARA GANDOLAS
 11
978655.2305062715
 21
1131107.9888661366
 31
0.0
100
AcDbText
  0
TEXT
  5
158
330
17
100
AcDbEntity
  8
0_CUADRO_TECNICO
100
AcDbText
 10
978655.2305062715
 20
1131105.3888661368
 30
0.0
 40
1.4
  1
FECHA: 04/09/2026 | ESCALA: 1:1.000 | LAMINA: 01/01 | REVISION: R-03 (TRIPLE SUBDIVISION)
 11
978655.2305062715
 21
1131105.3888661368
 31
0.0
100
AcDbText
  0
TEXT
  5
159
330
17
100
AcDbEntity
  8
0_CUADRO_TECNICO
100
AcDbText
 10
978655.2305062715
 20
1131102.7888661367
 30
0.0
 40
1.4
  1
-----------------------------------------------------------------------------------------
 11
978655.2305062715
 21
1131102.7888661367
 31
0.0
100
AcDbText
  0
TEXT
  5
15A
330
17
100
AcDbEntity
  8
0_CUADRO_TECNICO
100
AcDbText
 10
978655.2305062715
 20
1131100.1888661366
 30
0.0
 40
1.4
  1
RESPONSABLE TECNICO:
 11
978655.2305062715
 21
1131100.1888661366
 31
0.0
100
AcDbText
  0
TEXT
  5
15B
330
17
100
AcDbEntity
  8
0_CUADRO_TECNICO
100
AcDbText
 10
978655.2305062715
 20
1131097.5888661367
 30
0.0
 40
1.4
  1
Ing. Freddy Rodriguez Perez
 11
978655.2305062715
 21
1131097.5888661367
 31
0.0
100
AcDbText
  0
TEXT
  5
15C
330
17
100
AcDbEntity
  8
0_CUADRO_TECNICO
100
AcDbText
 10
978655.2305062715
 20
1131094.9888661366
 30
0.0
 40
1.4
  1
Ingenieria de Proyectos & Control
 11
978655.2305062715
 21
1131094.9888661366
 31
0.0
100
AcDbText
  0
TEXT
  5
15D
330
17
100
AcDbEntity
  8
0_CUADRO_TECNICO
100
AcDbText
 10
978655.2305062715
 20
1131092.3888661368
 30
0.0
 40
1.4
  1
=========================================================================================
 11
978655.2305062715
 21
1131092.3888661368
 31
0.0
100
AcDbText
  0
ENDSEC
  0
SECTION
  2
OBJECTS
  0
DICTIONARY
  5
A
330
0
100
AcDbDictionary
281
1
  3
ACAD_COLOR
350
B
  3
ACAD_GROUP
350
C
  3
ACAD_LAYOUT
350
D
  3
ACAD_MATERIAL
350
E
  3
ACAD_MLEADERSTYLE
350
F
  3
ACAD_MLINESTYLE
350
10
  3
ACAD_PLOTSETTINGS
350
11
  3
ACAD_PLOTSTYLENAME
350
12
  3
ACAD_SCALELIST
350
14
  3
ACAD_TABLESTYLE
350
15
  3
ACAD_VISUALSTYLE
350
16
  3
EZDXF_META
350
2D
  0
DICTIONARY
  5
B
330
A
100
AcDbDictionary
281
1
  0
DICTIONARY
  5
C
330
A
100
AcDbDictionary
281
1
  0
DICTIONARY
  5
D
330
A
100
AcDbDictionary
281
1
  3
Model
350
1A
  3
Layout1
350
1E
  0
DICTIONARY
  5
E
330
A
100
AcDbDictionary
281
1
  3
ByBlock
350
1F
  3
ByLayer
350
20
  3
Global
350
21
  0
DICTIONARY
  5
F
330
A
100
AcDbDictionary
281
1
  3
Standard
350
2C
  0
DICTIONARY
  5
10
330
A
100
AcDbDictionary
281
1
  3
Standard
350
22
  0
DICTIONARY
  5
11
330
A
100
AcDbDictionary
281
1
  0
ACDBDICTIONARYWDFLT
  5
12
330
A
100
AcDbDictionary
281
1
  3
Normal
350
13
100
AcDbDictionaryWithDefault
340
13
  0
ACDBPLACEHOLDER
  5
13
330
12
  0
DICTIONARY
  5
14
330
A
100
AcDbDictionary
281
1
  0
DICTIONARY
  5
15
330
A
100
AcDbDictionary
281
1
  0
DICTIONARY
  5
16
330
A
100
AcDbDictionary
281
1
  3
2dWireframe
350
5A
  3
Basic
350
5B
  3
Brighten
350
5C
  3
ColorChange
350
5D
  3
Conceptual
350
5E
  3
Dim
350
5F
  3
EdgeColorOff
350
60
  3
Facepattern
350
61
  3
Flat
350
62
  3
FlatWithEdges
350
63
  3
Gouraud
350
64
  3
GouraudWithEdges
350
65
  3
Hidden
350
66
  3
JitterOff
350
67
  3
Linepattern
350
68
  3
Modeling
350
69
  3
OverhangOff
350
6A
  3
Realistic
350
6B
  3
Shaded
350
6C
  3
Shaded with edges
350
6D
  3
Shades of Gray
350
6E
  3
Sketchy
350
6F
  3
Thicken
350
70
  3
Wireframe
350
71
  3
X-Ray
350
72
  0
LAYOUT
  5
1A
330
D
100
AcDbPlotSettings
  1

  4
A3
  6

 40
7.5
 41
20.0
 42
7.5
 43
20.0
 44
420.0
 45
297.0
 46
0.0
 47
0.0
 48
0.0
 49
0.0
140
0.0
141
0.0
142
1.0
143
1.0
 70
1024
 72
1
 73
0
 74
5
  7

 75
16
 76
0
 77
2
 78
300
147
1.0
148
0.0
149
0.0
100
AcDbLayout
  1
Model
 70
1
 71
0
 10
0.0
 20
0.0
 11
420.0
 21
297.0
 12
0.0
 22
0.0
 32
0.0
 14
1e+20
 24
1e+20
 34
1e+20
 15
-1e+20
 25
-1e+20
 35
-1e+20
146
0.0
 13
0.0
 23
0.0
 33
0.0
 16
1.0
 26
0.0
 36
0.0
 17
0.0
 27
1.0
 37
0.0
 76
1
330
17
  0
LAYOUT
  5
1E
330
D
100
AcDbPlotSettings
  1

  4
A3
  6

 40
7.5
 41
20.0
 42
7.5
 43
20.0
 44
420.0
 45
297.0
 46
0.0
 47
0.0
 48
0.0
 49
0.0
140
0.0
141
0.0
142
1.0
143
1.0
 70
0
 72
1
 73
0
 74
5
  7

 75
16
 76
0
 77
2
 78
300
147
1.0
148
0.0
149
0.0
100
AcDbLayout
  1
Layout1
 70
1
 71
1
 10
0.0
 20
0.0
 11
420.0
 21
297.0
 12
0.0
 22
0.0
 32
0.0
 14
1e+20
 24
1e+20
 34
1e+20
 15
-1e+20
 25
-1e+20
 35
-1e+20
146
0.0
 13
0.0
 23
0.0
 33
0.0
 16
1.0
 26
0.0
 36
0.0
 17
0.0
 27
1.0
 37
0.0
 76
1
330
1B
  0
MATERIAL
  5
1F
102
{ACAD_REACTORS
330
E
102
}
330
E
100
AcDbMaterial
  1
ByBlock
  2

 70
0
 40
1.0
 71
1
 41
1.0
 91
-1023410177
 42
1.0
 72
1
  3

 73
1
 74
1
 75
1
 44
0.5
 73
0
 45
1.0
 46
1.0
 77
1
  4

 78
1
 79
1
170
1
 48
1.0
171
1
  6

172
1
173
1
174
1
140
1.0
141
1.0
175
1
  7

176
1
177
1
178
1
143
1.0
179
1
  8

270
1
271
1
272
1
145
1.0
146
1.0
273
1
  9

274
1
275
1
276
1
 42
1.0
 72
1
  3

 73
1
 74
1
 75
1
 94
63
  0
MATERIAL
  5
20
102
{ACAD_REACTORS
330
E
102
}
330
E
100
AcDbMaterial
  1
ByLayer
  2

 70
0
 40
1.0
 71
1
 41
1.0
 91
-1023410177
 42
1.0
 72
1
  3

 73
1
 74
1
 75
1
 44
0.5
 73
0
 45
1.0
 46
1.0
 77
1
  4

 78
1
 79
1
170
1
 48
1.0
171
1
  6

172
1
173
1
174
1
140
1.0
141
1.0
175
1
  7

176
1
177
1
178
1
143
1.0
179
1
  8

270
1
271
1
272
1
145
1.0
146
1.0
273
1
  9

274
1
275
1
276
1
 42
1.0
 72
1
  3

 73
1
 74
1
 75
1
 94
63
  0
MATERIAL
  5
21
102
{ACAD_REACTORS
330
E
102
}
330
E
100
AcDbMaterial
  1
Global
  2

 70
0
 40
1.0
 71
1
 41
1.0
 91
-1023410177
 42
1.0
 72
1
  3

 73
1
 74
1
 75
1
 44
0.5
 73
0
 45
1.0
 46
1.0
 77
1
  4

 78
1
 79
1
170
1
 48
1.0
171
1
  6

172
1
173
1
174
1
140
1.0
141
1.0
175
1
  7

176
1
177
1
178
1
143
1.0
179
1
  8

270
1
271
1
272
1
145
1.0
146
1.0
273
1
  9

274
1
275
1
276
1
 42
1.0
 72
1
  3

 73
1
 74
1
 75
1
 94
63
  0
MLINESTYLE
  5
22
102
{ACAD_REACTORS
330
10
102
}
330
10
100
AcDbMlineStyle
  2
Standard
 70
0
  3

 62
256
 51
90.0
 52
90.0
 71
2
 49
0.5
 62
256
  6
BYLAYER
 49
-0.5
 62
256
  6
BYLAYER
  0
MLEADERSTYLE
  5
2C
102
{ACAD_REACTORS
330
F
102
}
330
F
100
AcDbMLeaderStyle
179
2
170
2
171
1
172
0
 90
2
 40
0.0
 41
0.0
173
1
 91
-1056964608
 92
-2
290
1
 42
2.0
291
1
 43
8.0
  3
Standard
 44
4.0
300

342
29
174
1
175
1
176
0
178
1
 93
-1056964608
 45
4.0
292
0
297
0
 46
4.0
 94
-1056964608
 47
1.0
 49
1.0
140
1.0
294
1
141
0.0
177
0
142
1.0
295
0
296
0
143
3.75
271
0
272
9
273
9
  0
DICTIONARY
  5
2D
330
A
100
AcDbDictionary
280
1
281
1
  3
CREATED_BY_EZDXF
350
2E
  3
WRITTEN_BY_EZDXF
350
160
  0
DICTIONARYVAR
  5
2E
330
2D
100
DictionaryVariables
280
0
  1
1.4.4 @ 2026-09-05T02:00:55.986885+00:00
  0
VISUALSTYLE
  5
5A
102
{ACAD_REACTORS
330
16
102
}
330
16
100
AcDbVisualStyle
  2
2dWireframe
 70
4
177
3
291
0
 70
58
 90
2
176
1
 90
2
176
1
 90
0
176
1
 90
0
176
1
 40
0.6
176
1
 40
30.0
176
1
 62
7
420
16777215
176
1
 90
1
176
1
 90
4
176
1
 62
7
176
1
 62
257
176
1
 90
1
176
1
 90
1
176
1
 40
1.0
176
1
 90
8
176
1
 62
7
176
1
 40
1.0
176
1
 90
1
176
1
 90
6
176
1
 90
2
176
1
 62
7
176
1
 90
5
176
1
 90
0
176
1
 90
0
176
1
290
0
176
1
 90
1
176
1
 40
0.0
176
1
 90
0
176
1
290
1
176
1
290
1
176
1
290
0
176
1
290
0
176
1
290
0
176
1
290
0
176
1
290
0
176
1
290
0
176
1
290
0
176
1
 90
50
176
1
 40
0.0
176
1
 40
1.0
176
1
 90
0
176
1
 62
18
420
0
176
1
 90
50
176
1
 90
3
176
1
 62
5
420
255
176
1
290
0
176
1
 90
50
176
1
 90
50
176
1
 90
50
176
1
290
0
176
1
 90
50
176
1
 62
256
176
0
 40
1.0
176
0
 90
2
176
1
  1
strokes_ogs.tif
176
1
290
0
176
1
 40
1.0
176
1
 40
1.0
176
1
  0
VISUALSTYLE
  5
5B
102
{ACAD_REACTORS
330
16
102
}
330
16
100
AcDbVisualStyle
  2
Basic
 70
7
177
3
291
1
 70
58
 90
2
176
1
 90
2
176
1
 90
0
176
1
 90
1
176
1
 40
0.6
176
1
 40
30.0
176
1
 62
7
420
16777215
176
1
 90
1
176
1
 90
4
176
1
 62
7
176
1
 62
257
176
1
 90
1
176
1
 90
1
176
1
 40
1.0
176
1
 90
8
176
1
 62
7
176
1
 40
1.0
176
1
 90
1
176
1
 90
6
176
1
 90
2
176
1
 62
7
176
1
 90
5
176
1
 90
0
176
1
 90
0
176
1
290
0
176
1
 90
1
176
1
 40
0.0
176
1
 90
0
176
1
290
0
176
1
290
1
176
1
290
1
176
1
290
0
176
1
290
0
176
1
290
0
176
1
290
0
176
1
290
0
176
1
290
0
176
1
 90
50
176
1
 40
0.0
176
1
 40
1.0
176
1
 90
0
176
1
 62
18
420
0
176
1
 90
50
176
1
 90
3
176
1
 62
5
420
255
176
1
290
0
176
1
 90
50
176
1
 90
50
176
1
 90
50
176
1
290
0
176
1
 90
50
176
1
 62
256
176
0
 40
1.0
176
0
 90
2
176
1
  1
strokes_ogs.tif
176
1
290
0
176
1
 40
1.0
176
1
 40
1.0
176
1
  0
VISUALSTYLE
  5
5C
102
{ACAD_REACTORS
330
16
102
}
330
16
100
AcDbVisualStyle
  2
Brighten
 70
12
177
3
291
1
 70
58
 90
2
176
1
 90
2
176
1
 90
0
176
1
 90
2
176
1
 40
0.6
176
1
 40
30.0
176
1
 62
7
420
16777215
176
1
 90
1
176
1
 90
4
176
1
 62
7
176
1
 62
257
176
1
 90
1
176
1
 90
1
176
1
 40
1.0
176
1
 90
8
176
1
 62
7
176
1
 40
1.0
176
1
 90
1
176
1
 90
6
176
1
 90
2
176
1
 62
7
176
1
 90
5
176
1
 90
0
176
1
 90
0
176
1
290
0
176
1
 90
1
176
1
 40
0.0
176
1
 90
0
176
1
290
0
176
1
290
1
176
1
290
1
176
1
290
0
176
1
290
0
176
1
290
0
176
1
290
0
176
1
290
0
176
1
290
0
176
1
 90
50
176
1
 40
0.0
176
1
 40
1.0
176
1
 90
0
176
1
 62
18
420
0
176
1
 90
50
176
1
 90
3
176
1
 62
5
420
255
176
1
290
0
176
1
 90
50
176
1
 90
50
176
1
 90
50
176
1
290
0
176
1
 90
50
176
1
 62
256
176
0
 40
1.0
176
0
 90
2
176
1
  1
strokes_ogs.tif
176
1
290
0
176
1
 40
1.0
176
1
 40
1.0
176
1
  0
VISUALSTYLE
  5
5D
102
{ACAD_REACTORS
330
16
102
}
330
16
100
AcDbVisualStyle
  2
ColorChange
 70
16
177
3
291
1
 70
58
 90
2
176
1
 90
2
176
1
 90
0
176
1
 90
2
176
1
 40
0.6
176
1
 40
30.0
176
1
 62
7
420
16777215
176
1
 90
1
176
1
 90
4
176
1
 62
7
176
1
 62
257
176
1
 90
1
176
1
 90
1
176
1
 40
1.0
176
1
 90
8
176
1
 62
7
176
1
 40
1.0
176
1
 90
1
176
1
 90
6
176
1
 90
2
176
1
 62
7
176
1
 90
5
176
1
 90
0
176
1
 90
0
176
1
290
0
176
1
 90
1
176
1
 40
0.0
176
1
 90
0
176
1
290
0
176
1
290
1
176
1
290
1
176
1
290
0
176
1
290
0
176
1
290
0
176
1
290
0
176
1
290
0
176
1
290
0
176
1
 90
50
176
1
 40
0.0
176
1
 40
1.0
176
1
 90
0
176
1
 62
18
420
0
176
1
 90
50
176
1
 90
3
176
1
 62
5
420
255
176
1
290
0
176
1
 90
50
176
1
 90
50
176
1
 90
50
176
1
290
0
176
1
 90
50
176
1
 62
256
176
0
 40
1.0
176
0
 90
2
176
1
  1
strokes_ogs.tif
176
1
290
0
176
1
 40
1.0
176
1
 40
1.0
176
1
  0
VISUALSTYLE
  5
5E
102
{ACAD_REACTORS
330
16
102
}
330
16
100
AcDbVisualStyle
  2
Conceptual
 70
9
177
3
291
0
 70
58
 90
2
176
1
 90
2
176
1
 90
0
176
1
 90
3
176
1
 40
0.6
176
1
 40
30.0
176
1
 62
7
420
16777215
176
1
 90
1
176
1
 90
4
176
1
 62
7
176
1
 62
257
176
1
 90
1
176
1
 90
1
176
1
 40
1.0
176
1
 90
8
176
1
 62
7
176
1
 40
1.0
176
1
 90
1
176
1
 90
6
176
1
 90
2
176
1
 62
7
176
1
 90
5
176
1
 90
0
176
1
 90
0
176
1
290
0
176
1
 90
1
176
1
 40
0.0
176
1
 90
0
176
1
290
0
176
1
290
1
176
1
290
1
176
1
290
0
176
1
290
0
176
1
290
0
176
1
290
0
176
1
290
0
176
1
290
0
176
1
 90
50
176
1
 40
0.0
176
1
 40
1.0
176
1
 90
0
176
1
 62
18
420
0
176
1
 90
50
176
1
 90
3
176
1
 62
5
420
255
176
1
290
0
176
1
 90
50
176
1
 90
50
176
1
 90
50
176
1
290
0
176
1
 90
50
176
1
 62
256
176
0
 40
1.0
176
0
 90
2
176
1
  1
strokes_ogs.tif
176
1
290
0
176
1
 40
1.0
176
1
 40
1.0
176
1
  0
VISUALSTYLE
  5
5F
102
{ACAD_REACTORS
330
16
102
}
330
16
100
AcDbVisualStyle
  2
Dim
 70
11
177
3
291
1
 70
58
 90
2
176
1
 90
2
176
1
 90
0
176
1
 90
2
176
1
 40
0.6
176
1
 40
30.0
176
1
 62
7
420
16777215
176
1
 90
1
176
1
 90
4
176
1
 62
7
176
1
 62
257
176
1
 90
1
176
1
 90
1
176
1
 40
1.0
176
1
 90
8
176
1
 62
7
176
1
 40
1.0
176
1
 90
1
176
1
 90
6
176
1
 90
2
176
1
 62
7
176
1
 90
5
176
1
 90
0
176
1
 90
0
176
1
290
0
176
1
 90
1
176
1
 40
0.0
176
1
 90
0
176
1
290
0
176
1
290
1
176
1
290
1
176
1
290
0
176
1
290
0
176
1
290
0
176
1
290
0
176
1
290
0
176
1
290
0
176
1
 90
50
176
1
 40
0.0
176
1
 40
1.0
176
1
 90
0
176
1
 62
18
420
0
176
1
 90
50
176
1
 90
3
176
1
 62
5
420
255
176
1
290
0
176
1
 90
50
176
1
 90
50
176
1
 90
50
176
1
290
0
176
1
 90
50
176
1
 62
256
176
0
 40
1.0
176
0
 90
2
176
1
  1
strokes_ogs.tif
176
1
290
0
176
1
 40
1.0
176
1
 40
1.0
176
1
  0
VISUALSTYLE
  5
60
102
{ACAD_REACTORS
330
16
102
}
330
16
100
AcDbVisualStyle
  2
EdgeColorOff
 70
22
177
3
291
1
 70
58
 90
2
176
1
 90
2
176
1
 90
0
176
1
 90
2
176
1
 40
0.6
176
1
 40
30.0
176
1
 62
7
420
16777215
176
1
 90
1
176
1
 90
4
176
1
 62
7
176
1
 62
257
176
1
 90
1
176
1
 90
1
176
1
 40
1.0
176
1
 90
8
176
1
 62
7
176
1
 40
1.0
176
1
 90
1
176
1
 90
6
176
1
 90
2
176
1
 62
7
176
1
 90
5
176
1
 90
0
176
1
 90
0
176
1
290
0
176
1
 90
1
176
1
 40
0.0
176
1
 90
0
176
1
290
0
176
1
290
1
176
1
290
1
176
1
290
0
176
1
290
0
176
1
290
0
176
1
290
0
176
1
290
0
176
1
290
0
176
1
 90
50
176
1
 40
0.0
176
1
 40
1.0
176
1
 90
0
176
1
 62
18
420
0
176
1
 90
50
176
1
 90
3
176
1
 62
5
420
255
176
1
290
0
176
1
 90
50
176
1
 90
50
176
1
 90
50
176
1
290
0
176
1
 90
50
176
1
 62
256
176
0
 40
1.0
176
0
 90
2
176
1
  1
strokes_ogs.tif
176
1
290
0
176
1
 40
1.0
176
1
 40
1.0
176
1
  0
VISUALSTYLE
  5
61
102
{ACAD_REACTORS
330
16
102
}
330
16
100
AcDbVisualStyle
  2
Facepattern
 70
15
177
3
291
1
 70
58
 90
2
176
1
 90
2
176
1
 90
0
176
1
 90
2
176
1
 40
0.6
176
1
 40
30.0
176
1
 62
7
420
16777215
176
1
 90
1
176
1
 90
4
176
1
 62
7
176
1
 62
257
176
1
 90
1
176
1
 90
1
176
1
 40
1.0
176
1
 90
8
176
1
 62
7
176
1
 40
1.0
176
1
 90
1
176
1
 90
6
176
1
 90
2
176
1
 62
7
176
1
 90
5
176
1
 90
0
176
1
 90
0
176
1
290
0
176
1
 90
1
176
1
 40
0.0
176
1
 90
0
176
1
290
0
176
1
290
1
176
1
290
1
176
1
290
0
176
1
290
0
176
1
290
0
176
1
290
0
176
1
290
0
176
1
290
0
176
1
 90
50
176
1
 40
0.0
176
1
 40
1.0
176
1
 90
0
176
1
 62
18
420
0
176
1
 90
50
176
1
 90
3
176
1
 62
5
420
255
176
1
290
0
176
1
 90
50
176
1
 90
50
176
1
 90
50
176
1
290
0
176
1
 90
50
176
1
 62
256
176
0
 40
1.0
176
0
 90
2
176
1
  1
strokes_ogs.tif
176
1
290
0
176
1
 40
1.0
176
1
 40
1.0
176
1
  0
VISUALSTYLE
  5
62
102
{ACAD_REACTORS
330
16
102
}
330
16
100
AcDbVisualStyle
  2
Flat
 70
0
177
3
291
1
 70
58
 90
2
176
1
 90
2
176
1
 90
0
176
1
 90
2
176
1
 40
0.6
176
1
 40
30.0
176
1
 62
7
420
16777215
176
1
 90
1
176
1
 90
4
176
1
 62
7
176
1
 62
257
176
1
 90
1
176
1
 90
1
176
1
 40
1.0
176
1
 90
8
176
1
 62
7
176
1
 40
1.0
176
1
 90
1
176
1
 90
6
176
1
 90
2
176
1
 62
7
176
1
 90
5
176
1
 90
0
176
1
 90
0
176
1
290
0
176
1
 90
1
176
1
 40
0.0
176
1
 90
0
176
1
290
0
176
1
290
1
176
1
290
1
176
1
290
0
176
1
290
0
176
1
290
0
176
1
290
0
176
1
290
0
176
1
290
0
176
1
 90
50
176
1
 40
0.0
176
1
 40
1.0
176
1
 90
0
176
1
 62
18
420
0
176
1
 90
50
176
1
 90
3
176
1
 62
5
420
255
176
1
290
0
176
1
 90
50
176
1
 90
50
176
1
 90
50
176
1
290
0
176
1
 90
50
176
1
 62
256
176
0
 40
1.0
176
0
 90
2
176
1
  1
strokes_ogs.tif
176
1
290
0
176
1
 40
1.0
176
1
 40
1.0
176
1
  0
VISUALSTYLE
  5
63
102
{ACAD_REACTORS
330
16
102
}
330
16
100
AcDbVisualStyle
  2
FlatWithEdges
 70
1
177
3
291
1
 70
58
 90
2
176
1
 90
2
176
1
 90
0
176
1
 90
2
176
1
 40
0.6
176
1
 40
30.0
176
1
 62
7
420
16777215
176
1
 90
1
176
1
 90
4
176
1
 62
7
176
1
 62
257
176
1
 90
1
176
1
 90
1
176
1
 40
1.0
176
1
 90
8
176
1
 62
7
176
1
 40
1.0
176
1
 90
1
176
1
 90
6
176
1
 90
2
176
1
 62
7
176
1
 90
5
176
1
 90
0
176
1
 90
0
176
1
290
0
176
1
 90
1
176
1
 40
0.0
176
1
 90
0
176
1
290
0
176
1
290
1
176
1
290
1
176
1
290
0
176
1
290
0
176
1
290
0
176
1
290
0
176
1
290
0
176
1
290
0
176
1
 90
50
176
1
 40
0.0
176
1
 40
1.0
176
1
 90
0
176
1
 62
18
420
0
176
1
 90
50
176
1
 90
3
176
1
 62
5
420
255
176
1
290
0
176
1
 90
50
176
1
 90
50
176
1
 90
50
176
1
290
0
176
1
 90
50
176
1
 62
256
176
0
 40
1.0
176
0
 90
2
176
1
  1
strokes_ogs.tif
176
1
290
0
176
1
 40
1.0
176
1
 40
1.0
176
1
  0
VISUALSTYLE
  5
64
102
{ACAD_REACTORS
330
16
102
}
330
16
100
AcDbVisualStyle
  2
Gouraud
 70
2
177
3
291
1
 70
58
 90
2
176
1
 90
2
176
1
 90
0
176
1
 90
2
176
1
 40
0.6
176
1
 40
30.0
176
1
 62
7
420
16777215
176
1
 90
1
176
1
 90
4
176
1
 62
7
176
1
 62
257
176
1
 90
1
176
1
 90
1
176
1
 40
1.0
176
1
 90
8
176
1
 62
7
176
1
 40
1.0
176
1
 90
1
176
1
 90
6
176
1
 90
2
176
1
 62
7
176
1
 90
5
176
1
 90
0
176
1
 90
0
176
1
290
0
176
1
 90
1
176
1
 40
0.0
176
1
 90
0
176
1
290
0
176
1
290
1
176
1
290
1
176
1
290
0
176
1
290
0
176
1
290
0
176
1
290
0
176
1
290
0
176
1
290
0
176
1
 90
50
176
1
 40
0.0
176
1
 40
1.0
176
1
 90
0
176
1
 62
18
420
0
176
1
 90
50
176
1
 90
3
176
1
 62
5
420
255
176
1
290
0
176
1
 90
50
176
1
 90
50
176
1
 90
50
176
1
290
0
176
1
 90
50
176
1
 62
256
176
0
 40
1.0
176
0
 90
2
176
1
  1
strokes_ogs.tif
176
1
290
0
176
1
 40
1.0
176
1
 40
1.0
176
1
  0
VISUALSTYLE
  5
65
102
{ACAD_REACTORS
330
16
102
}
330
16
100
AcDbVisualStyle
  2
GouraudWithEdges
 70
3
177
3
291
1
 70
58
 90
2
176
1
 90
2
176
1
 90
0
176
1
 90
2
176
1
 40
0.6
176
1
 40
30.0
176
1
 62
7
420
16777215
176
1
 90
1
176
1
 90
4
176
1
 62
7
176
1
 62
257
176
1
 90
1
176
1
 90
1
176
1
 40
1.0
176
1
 90
8
176
1
 62
7
176
1
 40
1.0
176
1
 90
1
176
1
 90
6
176
1
 90
2
176
1
 62
7
176
1
 90
5
176
1
 90
0
176
1
 90
0
176
1
290
0
176
1
 90
1
176
1
 40
0.0
176
1
 90
0
176
1
290
0
176
1
290
1
176
1
290
1
176
1
290
0
176
1
290
0
176
1
290
0
176
1
290
0
176
1
290
0
176
1
290
0
176
1
 90
50
176
1
 40
0.0
176
1
 40
1.0
176
1
 90
0
176
1
 62
18
420
0
176
1
 90
50
176
1
 90
3
176
1
 62
5
420
255
176
1
290
0
176
1
 90
50
176
1
 90
50
176
1
 90
50
176
1
290
0
176
1
 90
50
176
1
 62
256
176
0
 40
1.0
176
0
 90
2
176
1
  1
strokes_ogs.tif
176
1
290
0
176
1
 40
1.0
176
1
 40
1.0
176
1
  0
VISUALSTYLE
  5
66
102
{ACAD_REACTORS
330
16
102
}
330
16
100
AcDbVisualStyle
  2
Hidden
 70
6
177
3
291
0
 70
58
 90
2
176
1
 90
2
176
1
 90
0
176
1
 90
1
176
1
 40
0.6
176
1
 40
30.0
176
1
 62
7
420
16777215
176
1
 90
1
176
1
 90
4
176
1
 62
7
176
1
 62
257
176
1
 90
1
176
1
 90
1
176
1
 40
1.0
176
1
 90
8
176
1
 62
7
176
1
 40
1.0
176
1
 90
1
176
1
 90
6
176
1
 90
2
176
1
 62
7
176
1
 90
5
176
1
 90
0
176
1
 90
0
176
1
290
0
176
1
 90
1
176
1
 40
0.0
176
1
 90
0
176
1
290
0
176
1
290
1
176
1
290
1
176
1
290
0
176
1
290
0
176
1
290
0
176
1
290
0
176
1
290
0
176
1
290
0
176
1
 90
50
176
1
 40
0.0
176
1
 40
1.0
176
1
 90
0
176
1
 62
18
420
0
176
1
 90
50
176
1
 90
3
176
1
 62
5
420
255
176
1
290
0
176
1
 90
50
176
1
 90
50
176
1
 90
50
176
1
290
0
176
1
 90
50
176
1
 62
256
176
0
 40
1.0
176
0
 90
2
176
1
  1
strokes_ogs.tif
176
1
290
0
176
1
 40
1.0
176
1
 40
1.0
176
1
  0
VISUALSTYLE
  5
67
102
{ACAD_REACTORS
330
16
102
}
330
16
100
AcDbVisualStyle
  2
JitterOff
 70
20
177
3
291
1
 70
58
 90
2
176
1
 90
2
176
1
 90
0
176
1
 90
2
176
1
 40
0.6
176
1
 40
30.0
176
1
 62
7
420
16777215
176
1
 90
1
176
1
 90
4
176
1
 62
7
176
1
 62
257
176
1
 90
1
176
1
 90
1
176
1
 40
1.0
176
1
 90
8
176
1
 62
7
176
1
 40
1.0
176
1
 90
1
176
1
 90
6
176
1
 90
2
176
1
 62
7
176
1
 90
5
176
1
 90
0
176
1
 90
0
176
1
290
0
176
1
 90
1
176
1
 40
0.0
176
1
 90
0
176
1
290
0
176
1
290
1
176
1
290
1
176
1
290
0
176
1
290
0
176
1
290
0
176
1
290
0
176
1
290
0
176
1
290
0
176
1
 90
50
176
1
 40
0.0
176
1
 40
1.0
176
1
 90
0
176
1
 62
18
420
0
176
1
 90
50
176
1
 90
3
176
1
 62
5
420
255
176
1
290
0
176
1
 90
50
176
1
 90
50
176
1
 90
50
176
1
290
0
176
1
 90
50
176
1
 62
256
176
0
 40
1.0
176
0
 90
2
176
1
  1
strokes_ogs.tif
176
1
290
0
176
1
 40
1.0
176
1
 40
1.0
176
1
  0
VISUALSTYLE
  5
68
102
{ACAD_REACTORS
330
16
102
}
330
16
100
AcDbVisualStyle
  2
Linepattern
 70
14
177
3
291
1
 70
58
 90
2
176
1
 90
2
176
1
 90
0
176
1
 90
2
176
1
 40
0.6
176
1
 40
30.0
176
1
 62
7
420
16777215
176
1
 90
1
176
1
 90
4
176
1
 62
7
176
1
 62
257
176
1
 90
1
176
1
 90
1
176
1
 40
1.0
176
1
 90
8
176
1
 62
7
176
1
 40
1.0
176
1
 90
1
176
1
 90
6
176
1
 90
2
176
1
 62
7
176
1
 90
5
176
1
 90
0
176
1
 90
0
176
1
290
0
176
1
 90
1
176
1
 40
0.0
176
1
 90
0
176
1
290
0
176
1
290
1
176
1
290
1
176
1
290
0
176
1
290
0
176
1
290
0
176
1
290
0
176
1
290
0
176
1
290
0
176
1
 90
50
176
1
 40
0.0
176
1
 40
1.0
176
1
 90
0
176
1
 62
18
420
0
176
1
 90
50
176
1
 90
3
176
1
 62
5
420
255
176
1
290
0
176
1
 90
50
176
1
 90
50
176
1
 90
50
176
1
290
0
176
1
 90
50
176
1
 62
256
176
0
 40
1.0
176
0
 90
2
176
1
  1
strokes_ogs.tif
176
1
290
0
176
1
 40
1.0
176
1
 40
1.0
176
1
  0
VISUALSTYLE
  5
69
102
{ACAD_REACTORS
330
16
102
}
330
16
100
AcDbVisualStyle
  2
Modeling
 70
10
177
3
291
0
 70
58
 90
2
176
1
 90
2
176
1
 90
0
176
1
 90
2
176
1
 40
0.6
176
1
 40
30.0
176
1
 62
7
420
16777215
176
1
 90
1
176
1
 90
4
176
1
 62
7
176
1
 62
257
176
1
 90
1
176
1
 90
1
176
1
 40
1.0
176
1
 90
8
176
1
 62
7
176
1
 40
1.0
176
1
 90
1
176
1
 90
6
176
1
 90
2
176
1
 62
7
176
1
 90
5
176
1
 90
0
176
1
 90
0
176
1
290
0
176
1
 90
1
176
1
 40
0.0
176
1
 90
0
176
1
290
0
176
1
290
1
176
1
290
1
176
1
290
0
176
1
290
0
176
1
290
0
176
1
290
0
176
1
290
0
176
1
290
0
176
1
 90
50
176
1
 40
0.0
176
1
 40
1.0
176
1
 90
0
176
1
 62
18
420
0
176
1
 90
50
176
1
 90
3
176
1
 62
5
420
255
176
1
290
0
176
1
 90
50
176
1
 90
50
176
1
 90
50
176
1
290
0
176
1
 90
50
176
1
 62
256
176
0
 40
1.0
176
0
 90
2
176
1
  1
strokes_ogs.tif
176
1
290
0
176
1
 40
1.0
176
1
 40
1.0
176
1
  0
VISUALSTYLE
  5
6A
102
{ACAD_REACTORS
330
16
102
}
330
16
100
AcDbVisualStyle
  2
OverhangOff
 70
21
177
3
291
1
 70
58
 90
2
176
1
 90
2
176
1
 90
0
176
1
 90
2
176
1
 40
0.6
176
1
 40
30.0
176
1
 62
7
420
16777215
176
1
 90
1
176
1
 90
4
176
1
 62
7
176
1
 62
257
176
1
 90
1
176
1
 90
1
176
1
 40
1.0
176
1
 90
8
176
1
 62
7
176
1
 40
1.0
176
1
 90
1
176
1
 90
6
176
1
 90
2
176
1
 62
7
176
1
 90
5
176
1
 90
0
176
1
 90
0
176
1
290
0
176
1
 90
1
176
1
 40
0.0
176
1
 90
0
176
1
290
0
176
1
290
1
176
1
290
1
176
1
290
0
176
1
290
0
176
1
290
0
176
1
290
0
176
1
290
0
176
1
290
0
176
1
 90
50
176
1
 40
0.0
176
1
 40
1.0
176
1
 90
0
176
1
 62
18
420
0
176
1
 90
50
176
1
 90
3
176
1
 62
5
420
255
176
1
290
0
176
1
 90
50
176
1
 90
50
176
1
 90
50
176
1
290
0
176
1
 90
50
176
1
 62
256
176
0
 40
1.0
176
0
 90
2
176
1
  1
strokes_ogs.tif
176
1
290
0
176
1
 40
1.0
176
1
 40
1.0
176
1
  0
VISUALSTYLE
  5
6B
102
{ACAD_REACTORS
330
16
102
}
330
16
100
AcDbVisualStyle
  2
Realistic
 70
8
177
3
291
0
 70
58
 90
2
176
1
 90
2
176
1
 90
0
176
1
 90
2
176
1
 40
0.6
176
1
 40
30.0
176
1
 62
7
420
16777215
176
1
 90
1
176
1
 90
4
176
1
 62
7
176
1
 62
257
176
1
 90
1
176
1
 90
1
176
1
 40
1.0
176
1
 90
8
176
1
 62
7
176
1
 40
1.0
176
1
 90
1
176
1
 90
6
176
1
 90
2
176
1
 62
7
176
1
 90
5
176
1
 90
0
176
1
 90
0
176
1
290
0
176
1
 90
1
176
1
 40
0.0
176
1
 90
0
176
1
290
0
176
1
290
1
176
1
290
1
176
1
290
0
176
1
290
0
176
1
290
0
176
1
290
0
176
1
290
0
176
1
290
0
176
1
 90
50
176
1
 40
0.0
176
1
 40
1.0
176
1
 90
0
176
1
 62
18
420
0
176
1
 90
50
176
1
 90
3
176
1
 62
5
420
255
176
1
290
0
176
1
 90
50
176
1
 90
50
176
1
 90
50
176
1
290
0
176
1
 90
50
176
1
 62
256
176
0
 40
1.0
176
0
 90
2
176
1
  1
strokes_ogs.tif
176
1
290
0
176
1
 40
1.0
176
1
 40
1.0
176
1
  0
VISUALSTYLE
  5
6C
102
{ACAD_REACTORS
330
16
102
}
330
16
100
AcDbVisualStyle
  2
Shaded
 70
27
177
3
291
0
 70
58
 90
2
176
1
 90
2
176
1
 90
0
176
1
 90
2
176
1
 40
0.6
176
1
 40
30.0
176
1
 62
7
420
16777215
176
1
 90
1
176
1
 90
4
176
1
 62
7
176
1
 62
257
176
1
 90
1
176
1
 90
1
176
1
 40
1.0
176
1
 90
8
176
1
 62
7
176
1
 40
1.0
176
1
 90
1
176
1
 90
6
176
1
 90
2
176
1
 62
7
176
1
 90
5
176
1
 90
0
176
1
 90
0
176
1
290
0
176
1
 90
1
176
1
 40
0.0
176
1
 90
0
176
1
290
0
176
1
290
1
176
1
290
1
176
1
290
0
176
1
290
0
176
1
290
0
176
1
290
0
176
1
290
0
176
1
290
0
176
1
 90
50
176
1
 40
0.0
176
1
 40
1.0
176
1
 90
0
176
1
 62
18
420
0
176
1
 90
50
176
1
 90
3
176
1
 62
5
420
255
176
1
290
0
176
1
 90
50
176
1
 90
50
176
1
 90
50
176
1
290
0
176
1
 90
50
176
1
 62
256
176
0
 40
1.0
176
0
 90
2
176
1
  1
strokes_ogs.tif
176
1
290
0
176
1
 40
1.0
176
1
 40
1.0
176
1
  0
VISUALSTYLE
  5
6D
102
{ACAD_REACTORS
330
16
102
}
330
16
100
AcDbVisualStyle
  2
Shaded with edges
 70
26
177
3
291
0
 70
58
 90
2
176
1
 90
2
176
1
 90
0
176
1
 90
2
176
1
 40
0.6
176
1
 40
30.0
176
1
 62
7
420
16777215
176
1
 90
1
176
1
 90
4
176
1
 62
7
176
1
 62
257
176
1
 90
1
176
1
 90
1
176
1
 40
1.0
176
1
 90
8
176
1
 62
7
176
1
 40
1.0
176
1
 90
1
176
1
 90
6
176
1
 90
2
176
1
 62
7
176
1
 90
5
176
1
 90
0
176
1
 90
0
176
1
290
0
176
1
 90
1
176
1
 40
0.0
176
1
 90
0
176
1
290
0
176
1
290
1
176
1
290
1
176
1
290
0
176
1
290
0
176
1
290
0
176
1
290
0
176
1
290
0
176
1
290
0
176
1
 90
50
176
1
 40
0.0
176
1
 40
1.0
176
1
 90
0
176
1
 62
18
420
0
176
1
 90
50
176
1
 90
3
176
1
 62
5
420
255
176
1
290
0
176
1
 90
50
176
1
 90
50
176
1
 90
50
176
1
290
0
176
1
 90
50
176
1
 62
256
176
0
 40
1.0
176
0
 90
2
176
1
  1
strokes_ogs.tif
176
1
290
0
176
1
 40
1.0
176
1
 40
1.0
176
1
  0
VISUALSTYLE
  5
6E
102
{ACAD_REACTORS
330
16
102
}
330
16
100
AcDbVisualStyle
  2
Shades of Gray
 70
23
177
3
291
0
 70
58
 90
2
176
1
 90
2
176
1
 90
0
176
1
 90
2
176
1
 40
0.6
176
1
 40
30.0
176
1
 62
7
420
16777215
176
1
 90
1
176
1
 90
4
176
1
 62
7
176
1
 62
257
176
1
 90
1
176
1
 90
1
176
1
 40
1.0
176
1
 90
8
176
1
 62
7
176
1
 40
1.0
176
1
 90
1
176
1
 90
6
176
1
 90
2
176
1
 62
7
176
1
 90
5
176
1
 90
0
176
1
 90
0
176
1
290
0
176
1
 90
1
176
1
 40
0.0
176
1
 90
0
176
1
290
0
176
1
290
1
176
1
290
1
176
1
290
0
176
1
290
0
176
1
290
0
176
1
290
0
176
1
290
0
176
1
290
0
176
1
 90
50
176
1
 40
0.0
176
1
 40
1.0
176
1
 90
0
176
1
 62
18
420
0
176
1
 90
50
176
1
 90
3
176
1
 62
5
420
255
176
1
290
0
176
1
 90
50
176
1
 90
50
176
1
 90
50
176
1
290
0
176
1
 90
50
176
1
 62
256
176
0
 40
1.0
176
0
 90
2
176
1
  1
strokes_ogs.tif
176
1
290
0
176
1
 40
1.0
176
1
 40
1.0
176
1
  0
VISUALSTYLE
  5
6F
102
{ACAD_REACTORS
330
16
102
}
330
16
100
AcDbVisualStyle
  2
Sketchy
 70
24
177
3
291
0
 70
58
 90
2
176
1
 90
2
176
1
 90
0
176
1
 90
1
176
1
 40
0.6
176
1
 40
30.0
176
1
 62
7
420
16777215
176
1
 90
1
176
1
 90
4
176
1
 62
7
176
1
 62
257
176
1
 90
1
176
1
 90
1
176
1
 40
1.0
176
1
 90
8
176
1
 62
7
176
1
 40
1.0
176
1
 90
1
176
1
 90
6
176
1
 90
2
176
1
 62
7
176
1
 90
5
176
1
 90
0
176
1
 90
0
176
1
290
0
176
1
 90
1
176
1
 40
0.0
176
1
 90
0
176
1
290
0
176
1
290
1
176
1
290
1
176
1
290
0
176
1
290
0
176
1
290
0
176
1
290
0
176
1
290
0
176
1
290
0
176
1
 90
50
176
1
 40
0.0
176
1
 40
1.0
176
1
 90
0
176
1
 62
18
420
0
176
1
 90
50
176
1
 90
3
176
1
 62
5
420
255
176
1
290
0
176
1
 90
50
176
1
 90
50
176
1
 90
50
176
1
290
0
176
1
 90
50
176
1
 62
256
176
0
 40
1.0
176
0
 90
2
176
1
  1
strokes_ogs.tif
176
1
290
0
176
1
 40
1.0
176
1
 40
1.0
176
1
  0
VISUALSTYLE
  5
70
102
{ACAD_REACTORS
330
16
102
}
330
16
100
AcDbVisualStyle
  2
Thicken
 70
13
177
3
291
1
 70
58
 90
2
176
1
 90
2
176
1
 90
0
176
1
 90
2
176
1
 40
0.6
176
1
 40
30.0
176
1
 62
7
420
16777215
176
1
 90
1
176
1
 90
4
176
1
 62
7
176
1
 62
257
176
1
 90
1
176
1
 90
1
176
1
 40
1.0
176
1
 90
8
176
1
 62
7
176
1
 40
1.0
176
1
 90
1
176
1
 90
6
176
1
 90
2
176
1
 62
7
176
1
 90
5
176
1
 90
0
176
1
 90
0
176
1
290
0
176
1
 90
1
176
1
 40
0.0
176
1
 90
0
176
1
290
0
176
1
290
1
176
1
290
1
176
1
290
0
176
1
290
0
176
1
290
0
176
1
290
0
176
1
290
0
176
1
290
0
176
1
 90
50
176
1
 40
0.0
176
1
 40
1.0
176
1
 90
0
176
1
 62
18
420
0
176
1
 90
50
176
1
 90
3
176
1
 62
5
420
255
176
1
290
0
176
1
 90
50
176
1
 90
50
176
1
 90
50
176
1
290
0
176
1
 90
50
176
1
 62
256
176
0
 40
1.0
176
0
 90
2
176
1
  1
strokes_ogs.tif
176
1
290
0
176
1
 40
1.0
176
1
 40
1.0
176
1
  0
VISUALSTYLE
  5
71
102
{ACAD_REACTORS
330
16
102
}
330
16
100
AcDbVisualStyle
  2
Wireframe
 70
5
177
3
291
0
 70
58
 90
2
176
1
 90
2
176
1
 90
0
176
1
 90
0
176
1
 40
0.6
176
1
 40
30.0
176
1
 62
7
420
16777215
176
1
 90
1
176
1
 90
4
176
1
 62
7
176
1
 62
257
176
1
 90
1
176
1
 90
1
176
1
 40
1.0
176
1
 90
8
176
1
 62
7
176
1
 40
1.0
176
1
 90
1
176
1
 90
6
176
1
 90
2
176
1
 62
7
176
1
 90
5
176
1
 90
0
176
1
 90
0
176
1
290
0
176
1
 90
1
176
1
 40
0.0
176
1
 90
0
176
1
290
0
176
1
290
1
176
1
290
1
176
1
290
0
176
1
290
0
176
1
290
0
176
1
290
0
176
1
290
0
176
1
290
0
176
1
 90
50
176
1
 40
0.0
176
1
 40
1.0
176
1
 90
0
176
1
 62
18
420
0
176
1
 90
50
176
1
 90
3
176
1
 62
5
420
255
176
1
290
0
176
1
 90
50
176
1
 90
50
176
1
 90
50
176
1
290
0
176
1
 90
50
176
1
 62
256
176
0
 40
1.0
176
0
 90
2
176
1
  1
strokes_ogs.tif
176
1
290
0
176
1
 40
1.0
176
1
 40
1.0
176
1
  0
VISUALSTYLE
  5
72
102
{ACAD_REACTORS
330
16
102
}
330
16
100
AcDbVisualStyle
  2
X-Ray
 70
25
177
3
291
0
 70
58
 90
2
176
1
 90
2
176
1
 90
0
176
1
 90
2
176
1
 40
0.5
176
1
 40
30.0
176
1
 62
7
420
16777215
176
1
 90
1
176
1
 90
4
176
1
 62
7
176
1
 62
257
176
1
 90
1
176
1
 90
1
176
1
 40
1.0
176
1
 90
8
176
1
 62
7
176
1
 40
1.0
176
1
 90
1
176
1
 90
6
176
1
 90
2
176
1
 62
7
176
1
 90
5
176
1
 90
0
176
1
 90
0
176
1
290
0
176
1
 90
1
176
1
 40
0.0
176
1
 90
0
176
1
290
0
176
1
290
1
176
1
290
1
176
1
290
0
176
1
290
0
176
1
290
0
176
1
290
0
176
1
290
0
176
1
290
0
176
1
 90
50
176
1
 40
0.0
176
1
 40
1.0
176
1
 90
0
176
1
 62
18
420
0
176
1
 90
50
176
1
 90
3
176
1
 62
5
420
255
176
1
290
0
176
1
 90
50
176
1
 90
50
176
1
 90
50
176
1
290
0
176
1
 90
50
176
1
 62
256
176
0
 40
1.0
176
0
 90
2
176
1
  1
strokes_ogs.tif
176
1
290
0
176
1
 40
1.0
176
1
 40
1.0
176
1
  0
DICTIONARYVAR
  5
160
330
2D
100
DictionaryVariables
280
0
  1
1.4.4 @ 2026-09-05T02:00:56.000621+00:00
  0
ENDSEC
  0
EOF
